<svg width="20" height="20" viewBox="0 0 20 20" xmlns="http://www.w3.org/2000/svg" xmlns:sketch="http://www.bohemiancoding.com/sketch/ns"><title>action-outgoing</title><path d="M7.5 1.25l11.25 8.763-11.25 8.762 1.25-6.262h-7.5v-5h7.5l-1.25-6.263m0-1.25c-.227 0-.455.062-.657.186-.444.274-.671.796-.569 1.309l.952 4.768h-5.976c-.69 0-1.25.559-1.25 1.25v5c0 .69.56 1.25 1.25 1.25h5.976l-.952 4.767c-.103.512.124 1.034.569 1.309.202.124.43.186.657.186.272 0 .543-.089.768-.264l11.25-8.763c.304-.236.482-.6.482-.985 0-.387-.177-.751-.482-.988l-11.25-8.762c-.225-.174-.496-.264-.768-.264" sketch:type="MSShapeGroup" fill="#009DD4" fill-rule="evenodd"/></svg>