<svg width="20" height="20" viewBox="0 0 20 20" xmlns="http://www.w3.org/2000/svg" xmlns:sketch="http://www.bohemiancoding.com/sketch/ns"><title>action-outgoing</title><path d="M13.125 1.25l5.625 4.688-5.625 4.688v-3.125h-4.688c-2.24 0-4.063 1.822-4.063 4.063 0 2.24 1.822 4.063 4.063 4.063l.313-.016v3.125l-.313.016c-3.97 0-7.188-3.217-7.188-7.188 0-3.97 3.218-7.188 7.188-7.188h4.688v-3.125m0-1.25c-.179 0-.36.039-.53.117-.439.206-.72.647-.72 1.133v1.875h-3.438c-4.652 0-8.438 3.785-8.438 8.438 0 4.652 3.786 8.438 8.438 8.438l.278-.012.086-.006c.67-.027 1.199-.578 1.199-1.248v-3.125c0-.348-.145-.681-.401-.918-.232-.214-.536-.332-.849-.332l-.095.004-.217.012c-1.55 0-2.813-1.262-2.813-2.813 0-1.551 1.263-2.813 2.813-2.813h3.438v1.875c0 .485.281.926.72 1.133.17.078.351.117.53.117.287 0 .571-.099.801-.29l5.625-4.688c.284-.237.449-.589.449-.96s-.165-.723-.449-.96l-5.625-4.688c-.229-.191-.514-.29-.801-.29" sketch:type="MSShapeGroup" fill="#009DD4" fill-rule="evenodd"/></svg>