<svg width="20" height="20" viewBox="0 0 20 20" xmlns="http://www.w3.org/2000/svg" xmlns:sketch="http://www.bohemiancoding.com/sketch/ns"><title>channel-whitepapers</title><path d="M18.75 18.75h-17.5v-17.5h17.5v17.5zm-8.749-15c.516 0 .936-.419.936-.938 0-.517-.42-.938-.936-.938-.518 0-.939.421-.939.938 0 .518.421.938.939.938zm.624 5.625h6.25v-4.375h-6.25v4.375zm-7.5-3.75h6.25v-.625h-6.25v.625zm0 1.875h6.25v-.625h-6.25v.625zm0 1.875h6.25v-.625h-6.25v.625zm0 1.875h13.75v-.625h-13.75v.625zm0 1.875h13.75v-.625h-13.75v.625zm0 1.875h13.75v-.625h-13.75v.625zm0 1.875h13.75v-.625h-13.75v.625zm15.625-16.875h-17.5c-.69 0-1.25.56-1.25 1.25v17.5c0 .69.56 1.25 1.25 1.25h17.5c.691 0 1.25-.56 1.25-1.25v-17.5c0-.69-.559-1.25-1.25-1.25z" sketch:type="MSShapeGroup" fill="#fff" fill-rule="evenodd"/></svg>