<svg width="20" height="20" viewBox="0 0 20 20" xmlns="http://www.w3.org/2000/svg" xmlns:sketch="http://www.bohemiancoding.com/sketch/ns"><title>channel-videos</title><g sketch:type="MSLayerGroup" fill="#fff" fill-rule="evenodd"><path d="M11.563 2.5c-1.551 0-2.813 1.262-2.813 2.813 0 1.551 1.262 2.813 2.813 2.813 1.551 0 2.813-1.262 2.813-2.813 0-1.551-1.262-2.813-2.813-2.813M4.063 8.125c.862 0 1.563-.701 1.563-1.563 0-.861-.701-1.563-1.563-1.563s-1.563.701-1.563 1.563c0 .861.701 1.563 1.563 1.563" id="Shape" sketch:type="MSShapeGroup"/><path d="M19.481 9.611c-.216-.155-.472-.236-.731-.236-.133 0-.266.021-.396.064l-2.878.959c-.129-.355-.338-.674-.603-.934 1.219-.974 2.002-2.473 2.002-4.152 0-2.929-2.383-5.313-5.313-5.313-2.254 0-4.186 1.412-4.956 3.397-.697-.561-1.582-.897-2.544-.897-2.24 0-4.063 1.822-4.063 4.063 0 1.026.382 1.964 1.012 2.68-.614.456-1.012 1.186-1.012 2.008v6.25c0 1.379 1.121 2.5 2.5 2.5h10.625c1.287 0 2.35-.977 2.486-2.229l2.744.915c.129.043.262.064.395.064.259 0 .515-.081.731-.236.326-.235.519-.613.519-1.014v-6.875c0-.402-.193-.779-.519-1.014zm-15.418-5.861c1.553 0 2.813 1.259 2.813 2.813 0 1.553-1.259 2.813-2.813 2.813-1.553 0-2.813-1.259-2.813-2.813 0-1.553 1.259-2.813 2.813-2.813zm10.313 13.75c0 .69-.56 1.25-1.25 1.25h-10.625c-.69 0-1.25-.56-1.25-1.25v-6.25c0-.69.56-1.25 1.25-1.25h10.625c.69 0 1.25.56 1.25 1.25v6.25zm-2.813-8.125c-2.244 0-4.063-1.819-4.063-4.063 0-2.244 1.819-4.063 4.063-4.063 2.244 0 4.063 1.819 4.063 4.063 0 2.244-1.819 4.063-4.063 4.063zm7.188 8.125l-3.75-1.25v-4.375l3.75-1.25v6.875z" sketch:type="MSShapeGroup"/></g></svg>