<svg width="20" height="20" viewBox="0 0 20 20" xmlns="http://www.w3.org/2000/svg" xmlns:sketch="http://www.bohemiancoding.com/sketch/ns"><title>channel-websites</title><path d="M17.071 2.929c-1.888-1.889-4.401-2.929-7.071-2.929-2.671 0-5.182 1.041-7.07 2.929-1.889 1.888-2.93 4.4-2.93 7.071 0 2.671 1.04 5.182 2.929 7.071 1.889 1.889 4.4 2.929 7.071 2.929 2.672 0 5.183-1.04 7.071-2.929 1.888-1.889 2.929-4.399 2.929-7.071 0-2.671-1.04-5.183-2.929-7.071zm1.679 7.074v-.006.006zm-.014-.316h-2.806c-.049-2.294-.621-4.565-1.73-6.317-.431-.681-.912-1.233-1.423-1.661 1.246.416 2.419 1.111 3.412 2.103 1.628 1.63 2.471 3.741 2.547 5.875zm-9.048.625v8.413c-1.249-.123-2.432-.97-3.358-2.431-1.049-1.655-1.591-3.807-1.639-5.982h4.997zm-4.997-.625c.048-2.174.59-4.326 1.639-5.982.926-1.461 2.109-2.307 3.358-2.43v8.412h-4.997zm5.622.625h4.998c-.048 2.174-.591 4.327-1.639 5.982-.925 1.463-2.108 2.308-3.358 2.431v-8.413zm0-.625v-8.412c1.251.122 2.433.968 3.358 2.431 1.049 1.656 1.591 3.808 1.639 5.982h-4.998v-.001zm-6.499-5.874c.992-.992 2.167-1.688 3.414-2.104-.513.428-.995.981-1.426 1.662-1.11 1.752-1.681 4.023-1.73 6.317h-2.808c.076-2.134.92-4.246 2.549-5.875zm-2.564 6.184v.006-.006zm.014.316h2.808c.047 2.294.62 4.566 1.73 6.316.431.681.913 1.234 1.426 1.663-1.246-.416-2.422-1.111-3.414-2.104-1.629-1.629-2.472-3.741-2.549-5.874zm14.923 5.874c-.992.992-2.166 1.687-3.412 2.103.511-.428.992-.981 1.423-1.661 1.108-1.751 1.681-4.023 1.73-6.316h2.806c-.076 2.134-.919 4.246-2.547 5.874z" sketch:type="MSShapeGroup" fill="#fff" fill-rule="evenodd"/></svg>