<svg width="20" height="20" viewBox="0 0 20 20" xmlns="http://www.w3.org/2000/svg" xmlns:sketch="http://www.bohemiancoding.com/sketch/ns"><title>channel-article</title><g sketch:type="MSLayerGroup" fill="#fff" fill-rule="evenodd"><path sketch:type="MSShapeGroup" d="M4.375 7.5h3.75v.625h-3.75zM4.375 3.75h3.75v.625h-3.75zM4.375 5.625h3.75v.625h-3.75zM9.375 3.75h8.125v4.375h-8.125zM4.375 11.25h13.125v.625h-13.125zM4.375 13.125h13.125v.625h-13.125zM4.375 9.375h13.125v.625h-13.125zM4.375 15h13.125v.625h-13.125z"/><path d="M18.75 0h-15.625c-.69 0-1.25.56-1.25 1.25v.625h-.625c-.69 0-1.25.56-1.25 1.25v12.708c0 2.297 1.869 4.167 4.167 4.167h11.666c2.297 0 4.167-1.869 4.167-4.167v-14.583c0-.69-.56-1.25-1.25-1.25zm0 15.834c0 1.61-1.306 2.917-2.917 2.917h-11.666c-1.611 0-2.917-1.307-2.917-2.917v-12.709h1.25v12.573c0 .179.133.324.313.324.179 0 .313-.146.313-.324v-14.448h15.625v14.584z" sketch:type="MSShapeGroup"/></g></svg>