<svg width="20" height="20" viewBox="0 0 20 20" xmlns="http://www.w3.org/2000/svg" xmlns:sketch="http://www.bohemiancoding.com/sketch/ns"><title>channel-presentations</title><g sketch:type="MSLayerGroup" fill="#fff" fill-rule="evenodd"><path d="M8.567 8.384l2.5 2.5 3.254-3.254 1.121 1.121v-3.125h-3.125l1.094 1.081.033.034-2.377 2.376-2.5-2.5-4.192 4.192.884.884 3.308-3.308zM18.75 1.875h-6.875c0-1.034-.841-1.875-1.875-1.875s-1.875.841-1.875 1.875h-6.875c-.691 0-1.25.56-1.25 1.25v11.25c0 .691.559 1.25 1.25 1.25h3.183l-.923 1.534c-.531.887-.243 2.04.641 2.573.292.176.626.267.966.267.655 0 1.271-.348 1.608-.909l2.082-3.466h2.504l2.082 3.466c.337.561.953.909 1.608.909.338 0 .671-.091.962-.265.89-.537 1.177-1.691.644-2.576l-.921-1.534h3.064c.69 0 1.25-.559 1.25-1.25v-11.25c0-.69-.56-1.25-1.25-1.25zm-9.375 0c0-.344.279-.625.625-.625s.625.281.625.625v.625h-1.25v-.625zm-3.722 16.573c-.118.195-.324.302-.536.302-.109 0-.221-.028-.321-.089-.296-.178-.391-.561-.214-.857l1.685-2.804h1.457l-2.071 3.448zm9.669.213c-.102.061-.212.089-.322.089-.212 0-.419-.108-.536-.302l-2.071-3.448h1.458l1.684 2.804c.178.296.082.679-.213.857zm3.428-4.286h-17.5v-11.25h17.5v11.25z" sketch:type="MSShapeGroup"/></g></svg>