<svg width="20" height="20" viewBox="0 0 20 20" xmlns="http://www.w3.org/2000/svg" xmlns:sketch="http://www.bohemiancoding.com/sketch/ns"><title>channel-tools</title><path d="M18.978 10.604l-.211-4.058.81-1.444c.131-.234.184-.504.15-.77l-.413-3.24c-.08-.624-.611-1.092-1.24-1.092h-2.412c-.629 0-1.16.468-1.239 1.091l-.047.361v-.202c0-.691-.56-1.25-1.25-1.25h-7.94c-.396 0-.396 0-2.686 1.604l-1.966 1.378c-.334.234-.533.616-.533 1.024v2.244c0 .69.56 1.25 1.25 1.25h3.125v9.367c0 1.727 1.401 3.132 3.124 3.133.849 0 1.699-.343 2.272-.918.55-.549.854-1.344.854-2.237v-9.345h2.5c.69 0 1.25-.56 1.25-1.25v-.765l.607 1.064-.224 4.059-.099.096c-.585.586-.908 1.373-.908 2.214v3.95c0 1.727 1.402 3.132 3.125 3.133.836 0 1.622-.326 2.212-.918.588-.588.913-1.375.913-2.214v-3.95c-.001-.894-.379-1.729-1.022-2.314zm-10.093 7.596c-.339.341-.866.551-1.386.551-1.04-.001-1.874-.844-1.874-1.883v-9.992h3.75v9.97c0 .519-.148 1.013-.49 1.354zm4.24-11.949h-11.875v-2.244s3.933-2.756 3.935-2.756h7.94v5zm2.536-5h2.412l.413 3.24-.987 1.76.227 4.375h-1.72l.242-4.375-1.003-1.76.414-3.24zm3.089 15.618c0 .519-.206.99-.547 1.331-.34.341-.808.551-1.327.551-1.04-.001-1.876-.844-1.876-1.883v-3.95c0-.519.203-.99.544-1.331.128-.129.268-.238.429-.326l.001-.01h1.786l.001.011c.588.318.989.94.989 1.657h.001v3.95z" sketch:type="MSShapeGroup" fill="#fff" fill-rule="evenodd"/></svg>