<svg width="20" height="20" viewBox="0 0 20 20" xmlns="http://www.w3.org/2000/svg" xmlns:sketch="http://www.bohemiancoding.com/sketch/ns"><title>channel-tutorials</title><path d="M18.612 11.542c-.76-.76-1.723-1.239-2.765-1.398l2.96-2.948c1.636-1.636 1.636-4.296.002-5.93-.792-.792-1.844-1.228-2.964-1.228-1.12 0-2.173.436-2.965 1.228l-2.958 2.971c-.157-1.025-.621-2.005-1.39-2.774-.943-.943-2.196-1.462-3.531-1.462-.437 0-.873.058-1.294.17-.432.115-.769.452-.885.884-.116.431.006.891.323 1.208l1.821 1.821-.148.737-.736.147-1.821-1.821c-.237-.237-.556-.366-.884-.366-.108 0-.218.014-.324.043-.432.116-.769.454-.884.886-.458 1.721.038 3.571 1.293 4.824.764.766 1.736 1.246 2.788 1.402l-2.511 2.521c-.161.161-.274.364-.328.584l-1.336 5.449c-.104.426.021.873.33 1.183.237.238.557.366.884.366l.297-.036 5.448-1.336c.221-.055.424-.168.584-.327l2.53-2.519c.154 1.032.619 2.019 1.393 2.794.943.942 2.197 1.462 3.531 1.462.437 0 .873-.058 1.294-.169.432-.116.769-.453.886-.884.116-.432-.008-.892-.324-1.209l-1.821-1.821.148-.737.736-.146 1.821 1.82c.238.238.557.367.884.367.108 0 .218-.014.324-.043.432-.117.768-.454.884-.886.46-1.721-.036-3.57-1.291-4.826zm-4.848-9.392c.575-.575 1.328-.862 2.081-.862.752 0 1.505.287 2.08.862 1.149 1.149 1.149 3.013 0 4.161l-.349.348-4.16-4.16.348-.349zm-.789.792l4.157 4.158-3.881 3.864-4.141-4.141 3.864-3.881zm-11.688 15.846l1.237-5.047 3.811 3.81-5.048 1.237zm5.641-1.527l-4.114-4.114 4.013-4.03 4.13 4.131-4.029 4.013zm11.768-1.214l-2.294-2.294-2.209.442-.442 2.21 2.294 2.294c-.319.086-.646.128-.973.128-.958 0-1.915-.364-2.647-1.096-.854-.855-1.197-2.018-1.053-3.129.062-.477.204-.945.448-1.374l-4.552-4.553-.419-.419c-.429.244-.897.386-1.373.448 0 0-.328.043-.486.043-.958 0-1.914-.364-2.646-1.096-.981-.981-1.301-2.369-.968-3.62l2.294 2.294 2.209-.442.442-2.21-2.294-2.294c.319-.084.646-.127.973-.127.958 0 1.915.364 2.647 1.096.851.851 1.193 2.007 1.055 3.115-.061.481-.203.955-.449 1.389l.416.416 4.139 4.139.416.416c.434-.247.907-.389 1.389-.449 0 0 .316-.041.468-.041.957 0 1.914.365 2.646 1.097.982.98 1.302 2.367.968 3.619z" sketch:type="MSShapeGroup" fill="#fff" fill-rule="evenodd"/></svg>