<svg width="14" height="14" viewBox="0 0 14 14" xmlns="http://www.w3.org/2000/svg" xmlns:sketch="http://www.bohemiancoding.com/sketch/ns"><title>js-infotip</title><path d="M7 .875c3.382 0 6.125 2.742 6.125 6.125 0 3.384-2.743 6.125-6.125 6.125-3.383 0-6.125-2.741-6.125-6.125 0-3.383 2.742-6.125 6.125-6.125m-.012 3.97c.468 0 .887-.388.887-.875 0-.486-.396-.875-.864-.875-.467 0-.886.389-.886.875 0 .487.396.875.863.875m-1.3 2.155h.875v2.625h-.875v1.313h3.063v-1.313h-.875v-3.938h-2.188v1.313m1.313-7c-3.86 0-7 3.14-7 7s3.14 7 7 7 7-3.14 7-7-3.14-7-7-7" sketch:type="MSShapeGroup" fill="#007DA9" fill-rule="evenodd"/></svg>