<svg width="50" height="50" viewBox="0 0 50 50" xmlns="http://www.w3.org/2000/svg" xmlns:sketch="http://www.bohemiancoding.com/sketch/ns"><title>logo-small</title><g sketch:type="MSLayerGroup" fill="none" fill-rule="evenodd"><path d="M25.282 41.789l-.318-.149-.386-.184-.199-.096-.465-.227-.064-.032c-.963-.478-1.874-.962-2.733-1.453l-.018-.005.001-.005c-1.389-.794-2.643-1.606-3.768-2.438-3.044-2.25-5.184-4.705-6.362-7.296-.523-1.15-.864-2.34-1.023-3.564-.19.411-.378.832-.565 1.262-1.528 3.505-2.993 7.607-4.405 12.319 3.243 4.359 7.923 7.698 13.579 9.213 6.769 1.814 13.633.668 19.22-2.643-4.804-1.496-8.924-3.045-12.425-4.671l-.066-.03z" id="Shape" fill="#DD7E69" sketch:type="MSShapeGroup"/><path d="M8.18 25.204l.15-.32.184-.386.097-.201.227-.464.032-.065c.478-.963.962-1.874 1.453-2.733l.005-.018.005.001c.794-1.389 1.606-2.643 2.438-3.768 2.25-3.044 4.705-5.184 7.296-6.362 1.15-.523 2.34-.864 3.564-1.023-.416-.191-.841-.382-1.274-.571l-.146-.064-.021-.009c-3.452-1.494-7.477-2.927-12.087-4.31-4.374 3.244-7.725 7.933-9.244 13.601-1.81 6.754-.673 13.602 2.621 19.182 1.496-4.805 3.045-8.926 4.672-12.427l.029-.063z" id="Shape" fill="#4FC19C" sketch:type="MSShapeGroup"/><path d="M12.309 3.459c4.781 1.491 8.884 3.034 12.371 4.654l.062.029.321.15.384.183.203.098.462.226.067.033c.962.478 1.873.961 2.732 1.452l.018.005-.001.005c1.389.794 2.643 1.606 3.768 2.438 3.044 2.25 5.184 4.705 6.362 7.296.523 1.15.864 2.34 1.023 3.564.191-.414.38-.838.569-1.27l.066-.152.005-.012c1.494-3.452 2.928-7.478 4.312-12.089-3.243-4.358-7.923-7.696-13.577-9.211-6.739-1.806-13.573-.678-19.147 2.601z" id="Shape" fill="#709CCB" sketch:type="MSShapeGroup"/><path d="M41.698 25.071l-.173.364-.109.225-.217.443-.045.09c-.475.957-.956 1.862-1.444 2.716-.804 1.406-1.616 2.661-2.448 3.785-2.25 3.044-4.705 5.184-7.296 6.362-1.15.523-2.34.864-3.564 1.023l.912.412.345.151c3.504 1.528 7.606 2.993 12.318 4.405 4.343-3.242 7.669-7.913 9.181-13.555 1.81-6.754.673-13.604-2.623-19.185-1.496 4.797-3.044 8.91-4.67 12.405l-.167.357z" fill="#5A6C80" sketch:type="MSShapeGroup"/></g></svg>