<svg width="120" height="100" viewBox="0 0 120 100" xmlns="http://www.w3.org/2000/svg" xmlns:sketch="http://www.bohemiancoding.com/sketch/ns"><title>logo-footer</title><g sketch:type="MSLayerGroup" fill="none" fill-rule="evenodd"><path d="M60 99.84c27.57 0 49.92-22.35 49.92-49.92s-22.35-49.92-49.92-49.92-49.92 22.35-49.92 49.92 22.35 49.92 49.92 49.92zm0-19.92c16.569 0 30-13.431 30-30 0-16.569-13.431-30-30-30-16.569 0-30 13.431-30 30 0 16.569 13.431 30 30 30z" fill="#004662" sketch:type="MSShapeGroup"/><path fill="#004662" sketch:type="MSShapeGroup" d="M0 0h120v19.92h-120z"/><path d="M60 19.92h39.904c.001.002-14.318 14.327-14.318 14.327-5.276-8.594-14.761-14.327-25.585-14.327z" fill-opacity=".12" fill="#000" sketch:type="MSShapeGroup"/><path d="M17.04 19.92h2.967c9.11-12.098 23.593-19.92 39.904-19.92h-15.711c-11.107 3.492-20.617 10.589-27.159 19.92z" fill-opacity=".33" fill="#fff" sketch:type="MSShapeGroup"/></g></svg>