<svg width="100" height="100" viewBox="0 0 100 100" xmlns="http://www.w3.org/2000/svg" xmlns:sketch="http://www.bohemiancoding.com/sketch/ns"><title>logo-med</title><g sketch:type="MSLayerGroup" fill="none" fill-rule="evenodd"><path d="M50.565 83.577l-.637-.298-.773-.368-.399-.193-.93-.455-.129-.064c-1.926-.956-3.748-1.924-5.467-2.907l-.037-.01.002-.01c-2.777-1.588-5.286-3.212-7.536-4.875-6.087-4.5-10.368-9.41-12.724-14.591-1.046-2.299-1.728-4.68-2.047-7.128-.379.823-.756 1.665-1.131 2.523-3.055 7.009-5.985 15.213-8.809 24.639 6.486 8.719 15.846 15.395 27.158 18.426 13.537 3.627 27.266 1.336 38.44-5.287-9.608-2.992-17.849-6.089-24.85-9.342l-.132-.061z" id="Shape" fill="#DD7E69" sketch:type="MSShapeGroup"/><path d="M16.36 50.408l.3-.64.367-.771.194-.401.454-.929.065-.13c.956-1.926 1.924-3.747 2.906-5.466l.01-.037.01.002c1.588-2.777 3.212-5.287 4.875-7.536 4.501-6.087 9.41-10.368 14.591-12.724 2.3-1.046 4.68-1.728 7.128-2.047-.831-.383-1.682-.763-2.549-1.142l-.292-.128-.042-.018c-6.903-2.987-14.953-5.855-24.174-8.621-8.749 6.487-15.449 15.865-18.487 27.202-3.619 13.507-1.346 27.204 5.242 38.364 2.992-9.61 6.09-17.852 9.343-24.854l.058-.125z" id="Shape" fill="#4FC19C" sketch:type="MSShapeGroup"/><path d="M24.617 6.917c9.562 2.981 17.767 6.068 24.742 9.309l.124.057.641.3.768.366.405.196.925.452.134.067c1.925.955 3.745 1.923 5.463 2.904l.037.01-.002.01c2.777 1.589 5.286 3.212 7.535 4.875 6.087 4.501 10.368 9.41 12.724 14.591 1.046 2.299 1.728 4.68 2.047 7.128.381-.828.76-1.675 1.138-2.539l.133-.305.01-.023c2.989-6.904 5.857-14.955 8.624-24.178-6.486-8.717-15.845-15.392-27.155-18.422-13.479-3.612-27.147-1.355-38.294 5.202z" id="Shape" fill="#709CCB" sketch:type="MSShapeGroup"/><path d="M83.397 50.142l-.347.728-.217.449-.434.887-.09.181c-.95 1.913-1.913 3.723-2.889 5.432-1.608 2.812-3.232 5.322-4.895 7.571-4.501 6.087-9.41 10.368-14.591 12.724-2.3 1.046-4.68 1.728-7.128 2.047.599.276 1.207.551 1.825.824l.69.303c7.008 3.055 15.211 5.985 24.636 8.81 8.687-6.484 15.338-15.826 18.361-27.11 3.62-13.509 1.346-27.208-5.245-38.369-2.992 9.594-6.089 17.821-9.341 24.81l-.335.714z" fill="#5A6C80" sketch:type="MSShapeGroup"/></g></svg>