<svg width="216" height="180" viewBox="0 0 216 180" xmlns="http://www.w3.org/2000/svg" xmlns:sketch="http://www.bohemiancoding.com/sketch/ns"><title>logo-med</title><g sketch:type="MSLayerGroup" fill="none" fill-rule="evenodd"><path d="M107.5 178.88c49.396 0 89.44-40.044 89.44-89.44s-40.044-89.44-89.44-89.44-89.44 40.044-89.44 89.44 40.044 89.44 89.44 89.44zm0-35.69c29.685 0 53.75-24.065 53.75-53.75s-24.065-53.75-53.75-53.75-53.75 24.065-53.75 53.75 24.065 53.75 53.75 53.75z" fill="#54BCD2" sketch:type="MSShapeGroup"/><path fill="#54BCD2" sketch:type="MSShapeGroup" d="M0 0h216v35.69h-216z"/><path d="M107.5 35.69h71.494c.002.003-25.654 25.669-25.654 25.669-9.453-15.398-26.447-25.669-45.84-25.669z" fill-opacity=".12" fill="#000" sketch:type="MSShapeGroup"/><path d="M32.68 35.69c12.643-17.539 31.31-30.447 52.971-35.69h21.727c-29.223 0-55.172 14.015-71.494 35.69h-3.205z" fill-opacity=".45" fill="#fff" sketch:type="MSShapeGroup"/></g></svg>