<svg width="200" height="200" viewBox="0 0 200 200" xmlns="http://www.w3.org/2000/svg" xmlns:sketch="http://www.bohemiancoding.com/sketch/ns"><title>logo-med</title><g sketch:type="MSLayerGroup" fill="none" fill-rule="evenodd"><path d="M101.129 167.155l-1.274-.597-1.546-.736-.798-.385c-.625-.303-1.246-.605-1.86-.909l-.258-.128c-3.852-1.911-7.496-3.848-10.934-5.813l-.073-.019.004-.02c-5.555-3.177-10.573-6.424-15.071-9.751-12.174-9.001-20.736-18.819-25.447-29.182-2.091-4.599-3.456-9.36-4.093-14.257-.758 1.646-1.512 3.33-2.262 5.047-6.111 14.018-11.97 30.427-17.618 49.277 12.972 17.437 31.693 30.79 54.315 36.852 27.075 7.255 54.533 2.673 76.879-10.573-19.216-5.983-35.698-12.179-49.7-18.683l-.263-.122z" id="Shape" fill="#DD7E69" sketch:type="MSShapeGroup"/><path d="M32.72 100.817l.6-1.28.734-1.542.388-.803c.302-.624.605-1.244.908-1.857l.13-.26c1.911-3.852 3.848-7.495 5.812-10.932l.02-.073.02.004c3.177-5.555 6.425-10.573 9.751-15.071 9.001-12.174 18.819-20.736 29.182-25.447 4.599-2.091 9.36-3.456 14.257-4.093-1.662-.766-3.363-1.527-5.098-2.284l-.584-.255-.084-.036c-13.806-5.975-29.907-11.709-48.347-17.242-17.498 12.975-30.898 31.73-36.974 54.405-7.238 27.014-2.692 54.408 10.485 76.727 5.984-19.22 12.181-35.704 18.687-49.708l.116-.25z" id="Shape" fill="#4FC19C" sketch:type="MSShapeGroup"/><path d="M49.235 13.835c19.124 5.963 35.534 12.136 49.484 18.617l.248.115 1.282.601 1.536.731.811.392c.621.301 1.239.602 1.849.904l.269.134c3.849 1.91 7.49 3.846 10.926 5.809l.074.02-.004.02c5.554 3.177 10.573 6.425 15.071 9.751 12.175 9.001 20.736 18.819 25.448 29.182 2.091 4.599 3.456 9.36 4.093 14.257.762-1.656 1.521-3.351 2.276-5.079l.266-.609.02-.046c5.977-13.807 11.714-29.911 17.248-48.355-12.971-17.434-31.69-30.784-54.31-36.845-26.957-7.223-54.293-2.711-76.588 10.403z" id="Shape" fill="#709CCB" sketch:type="MSShapeGroup"/><path d="M166.793 100.283l-.693 1.457-.434.899c-.289.595-.578 1.188-.867 1.773l-.18.362c-1.899 3.826-3.825 7.446-5.777 10.863-3.217 5.625-6.464 10.643-9.79 15.141-9.001 12.174-18.82 20.736-29.182 25.447-4.599 2.091-9.36 3.456-14.257 4.094 1.197.552 2.414 1.101 3.65 1.649l1.379.605c14.016 6.111 30.422 11.971 49.272 17.619 17.374-12.968 30.676-31.653 36.722-54.22 7.24-27.018 2.691-54.417-10.491-76.738-5.983 19.188-12.178 35.641-18.682 49.62l-.669 1.428z" fill="#5A6C80" sketch:type="MSShapeGroup"/></g></svg>