<svg width="20" height="20" viewBox="0 0 20 20" xmlns="http://www.w3.org/2000/svg" xmlns:sketch="http://www.bohemiancoding.com/sketch/ns"><title>menu-tag</title><path d="M18.158 1.25c.326 0 .591.266.591.591v6.423c0 .325-.188.779-.418 1.009l-9.304 9.304c-.115.114-.266.172-.418.172-.152 0-.304-.058-.418-.172l-6.77-6.769c-.23-.23-.23-.606 0-.837l9.304-9.304c.23-.229.684-.418 1.01-.418h6.422m-2.221 3.75c.518 0 .938-.42.938-.938s-.42-.938-.938-.938-.938.42-.938.938.42.938.938.938m2.221-5h-6.422c-.653 0-1.432.323-1.894.784l-9.304 9.304c-.717.72-.716 1.887-.001 2.603l6.771 6.77c.347.347.809.538 1.302.538s.955-.192 1.303-.539l9.303-9.303c.462-.461.784-1.24.784-1.893v-6.423c0-1.016-.826-1.841-1.841-1.841" sketch:type="MSShapeGroup" fill="#666" fill-rule="evenodd"/></svg>