<svg width="20" height="20" viewBox="0 0 20 20" xmlns="http://www.w3.org/2000/svg" xmlns:sketch="http://www.bohemiancoding.com/sketch/ns"><title>menu-author</title><path d="M5.964 1.25c1.814 0 3.281 1.468 3.281 3.277 0 1.813-1.468 3.279-3.281 3.279-1.808 0-3.279-1.467-3.279-3.279 0-1.809 1.471-3.277 3.279-3.277m9.037 1.351c1.673 0 3.028 1.354 3.028 3.024 0 1.672-1.355 3.026-3.028 3.026-1.669 0-3.026-1.354-3.026-3.026 0-1.67 1.357-3.024 3.026-3.024m-9.064 6.705c2.591 0 4.687 1.981 4.687 4.427v5.018h-9.375v-5.018c0-2.445 2.098-4.427 4.688-4.427m9.062.694c2.074 0 3.75 1.586 3.75 3.541v5.209h-7.5v-5.209c0-1.956 1.679-3.541 3.75-3.541m-9.036-10c-2.498 0-4.529 2.031-4.529 4.527 0 1.684.923 3.156 2.291 3.937-2.182.84-3.726 2.885-3.726 5.268v5.018c0 .69.56 1.25 1.25 1.25h17.5c.691 0 1.25-.56 1.25-1.25v-5.209c0-1.867-1.121-3.489-2.751-4.279 1.217-.755 2.031-2.103 2.031-3.637 0-2.357-1.919-4.274-4.278-4.274-2.357 0-4.276 1.917-4.276 4.274 0 1.534.812 2.881 2.028 3.636-.709.343-1.322.844-1.789 1.454-.658-.998-1.629-1.786-2.783-2.238 1.379-.778 2.313-2.256 2.313-3.949 0-2.496-2.033-4.527-4.531-4.527" sketch:type="MSShapeGroup" fill="#666" fill-rule="evenodd"/></svg>