<svg width="20" height="20" viewBox="0 0 20 20" xmlns="http://www.w3.org/2000/svg" xmlns:sketch="http://www.bohemiancoding.com/sketch/ns"><title>menu-sort</title><path d="M19.479 13.69l-5.133-3.69 5.133-3.69c.326-.235.52-.613.52-1.015 0-.402-.194-.78-.52-1.015l-5.624-4.045c-.217-.156-.473-.235-.73-.235-.195 0-.391.045-.57.138-.418.214-.68.643-.68 1.112v1.25h-1.875c-.439 0-.846.231-1.072.607l-1.109 1.849-1.106-1.848c-.225-.377-.633-.608-1.073-.608h-4.39c-.69 0-1.25.56-1.25 1.25v3.125c0 .69.56 1.25 1.25 1.25h2.417l1.126 1.875-1.126 1.875h-2.417c-.69 0-1.25.56-1.25 1.25v3.125c0 .69.56 1.25 1.25 1.25h4.39c.44 0 .848-.231 1.073-.608l1.106-1.848 1.109 1.849c.226.376.633.607 1.072.607h1.875v1.25c0 .469.262.898.68 1.112.179.093.375.138.57.138.257 0 .513-.079.73-.235l5.624-4.045c.326-.235.52-.613.52-1.015 0-.402-.194-.78-.52-1.015zm-9.479-9.94h3.125v-2.5l5.624 4.045-5.624 4.044v-2.464h-1.875l-1.506 2.516-1.562-2.61 1.818-3.031zm1.875 7.985l-1.038-1.735 1.038-1.735v3.47zm-6.235 4.515h-4.39v-3.125h3.125l1.511-2.518 1.567 2.613-1.813 3.029zm7.485 2.5v-2.5h-3.125l-2.183-3.638-1.817-3.029-1.625-2.707h-3.125v-3.125h4.39l1.927 3.22 1.813 3.03 1.87 3.125h1.875v-2.464l5.624 4.044-5.624 4.044z" sketch:type="MSShapeGroup" fill="#666" fill-rule="evenodd"/></svg>