<svg width="20" height="20" viewBox="0 0 20 20" xmlns="http://www.w3.org/2000/svg" xmlns:sketch="http://www.bohemiancoding.com/sketch/ns"><title>menu-status</title><g sketch:type="MSLayerGroup" fill="#666" fill-rule="evenodd"><path d="M17.071 2.929c-1.889-1.889-4.4-2.929-7.071-2.929-2.671 0-5.182 1.041-7.071 2.929-1.889 1.888-2.929 4.4-2.929 7.071 0 2.671 1.04 5.182 2.929 7.071 1.889 1.889 4.4 2.929 7.071 2.929 2.671 0 5.182-1.04 7.071-2.929 1.889-1.889 2.929-4.4 2.929-7.071 0-2.671-1.041-5.183-2.929-7.071m-.884 13.258c-1.709 1.709-3.947 2.563-6.187 2.563-2.239 0-4.479-.854-6.187-2.563-3.417-3.418-3.417-8.957 0-12.374 1.709-1.709 3.948-2.563 6.187-2.563 2.239 0 4.478.854 6.187 2.563 3.417 3.417 3.418 8.957 0 12.374M15.306 4.696c-1.416-1.415-3.299-2.196-5.302-2.196h-.001c-2.003.001-3.888.781-5.304 2.198-1.417 1.416-2.197 3.302-2.197 5.303 0 4.136 3.364 7.5 7.499 7.5h.001c2.002 0 3.887-.78 5.304-2.197 1.418-1.418 2.197-3.301 2.198-5.304.001-2.003-.779-3.887-2.196-5.304m-12.178 5.256v.098l-.002-.049.002-.049m.029.672h1.846v-1.25h-1.847c.126-1.394.667-2.7 1.565-3.774l1.305 1.305.884-.884-1.305-1.304c1.074-.896 2.379-1.437 3.773-1.562v1.844h1.25v-1.844c1.393.125 2.699.665 3.773 1.562l-1.304 1.305.884.884 1.304-1.305c.898 1.074 1.439 2.381 1.563 3.774h-1.844v1.25h1.844c-.125 1.393-.666 2.699-1.563 3.773l-1.304-1.304-.884.884 1.304 1.305c-1.074.898-2.379 1.439-3.773 1.564v-1.846h-1.25v1.846c-1.427-.129-2.731-.693-3.774-1.564l1.306-1.305-.884-.884-1.306 1.305c-.87-1.043-1.434-2.346-1.563-3.773m1.978 4.231l.012.012-.012-.012m4.864 2.021l-.042-.002h.086l-.044.002M11.515 11.516c.855-.855.854-2.239 0-3.094-.854-.854-4.64-1.546-4.64-1.546s.693 3.786 1.547 4.64c.854.854 2.238.855 3.093.001" sketch:type="MSShapeGroup"/></g></svg>