<svg width="20" height="20" viewBox="0 0 20 20" xmlns="http://www.w3.org/2000/svg" xmlns:sketch="http://www.bohemiancoding.com/sketch/ns"><title>meta-ancestry</title><path d="M18.75 13.75h-1.25v-3.75h-6.875v-1.875h3.75c.691 0 1.25-.56 1.25-1.25v-5.625c0-.69-.559-1.25-1.25-1.25h-8.75c-.69 0-1.25.56-1.25 1.25v5.625c0 .69.56 1.25 1.25 1.25h3.75v1.875h-6.875v3.75h-1.25c-.69 0-1.25.56-1.25 1.25v3.75c0 .69.56 1.25 1.25 1.25h3.75c.691 0 1.25-.56 1.25-1.25v-3.75c0-.69-.559-1.25-1.25-1.25h-1.25v-2.5h5.625v2.5h-1.25c-.69 0-1.25.56-1.25 1.25v3.75c0 .69.56 1.25 1.25 1.25h3.75c.691 0 1.25-.56 1.25-1.25v-3.75c0-.69-.559-1.25-1.25-1.25h-1.25v-2.5h5.625v2.5h-1.25c-.69 0-1.25.56-1.25 1.25v3.75c0 .69.56 1.25 1.25 1.25h3.75c.691 0 1.25-.56 1.25-1.25v-3.75c0-.69-.559-1.25-1.25-1.25zm-13.125-12.5h8.75v5.625h-8.75v-5.625zm-.625 17.5h-3.75v-3.75h3.75v3.75zm6.875 0h-3.75v-3.75h3.75v3.75zm6.875 0h-3.75v-3.75h3.75v3.75z" sketch:type="MSShapeGroup" fill="#666" fill-rule="evenodd"/></svg>