<svg width="20" height="20" viewBox="0 0 20 20" xmlns="http://www.w3.org/2000/svg" xmlns:sketch="http://www.bohemiancoding.com/sketch/ns"><title>meta-specifications</title><path d="M14.375 1.25l4.375 4.375h-4.375v-4.375zm-.625 0v5h5v10h-11.25v-15h6.25zm-4.375 7.5h7.5v-.625h-7.5v.625zm0 1.875h7.5v-.625h-7.5v.625zm0 1.875h7.5v-.625h-7.5v.625zm0 1.875h7.5v-.625h-7.5v.625zm-2.5-10.625v5h-3.75v.625h3.75v1.25h-3.75v.625h3.75v1.25h-3.75v.625h3.75v1.25h-3.75v.625h3.75v1.875h5.625v1.875h-11.25v-15h5.625zm7.168-3.75h-6.543c-.69 0-1.25.56-1.25 1.25v1.25h-5c-.69 0-1.25.56-1.25 1.25v15c0 .69.56 1.25 1.25 1.25h11.25c.69 0 1.25-.56 1.25-1.25v-1.25h5c.69 0 1.25-.56 1.25-1.25v-10.255c0-.108-.05-.587-.366-.903l-4.707-4.726c-.239-.239-.559-.366-.884-.366z" sketch:type="MSShapeGroup" fill="#666" fill-rule="evenodd"/></svg>