<svg width="20" height="20" viewBox="0 0 20 20" xmlns="http://www.w3.org/2000/svg" xmlns:sketch="http://www.bohemiancoding.com/sketch/ns"><title>meta-connected</title><g sketch:type="MSLayerGroup" fill="#666" fill-rule="evenodd"><path d="M15.625 0c-2.412 0-4.375 1.962-4.375 4.375 0 .532.098 1.048.277 1.527-.478-.179-.994-.277-1.527-.277-1.712 0-3.241 1.006-3.952 2.5h-3.548v3.547c-1.494.712-2.5 2.241-2.5 3.953 0 2.412 1.963 4.375 4.375 4.375s4.375-1.963 4.375-4.375c0-.533-.098-1.049-.277-1.527.478.179.994.277 1.527.277 1.712 0 3.241-1.006 3.953-2.5h3.547v-3.547c1.494-.712 2.5-2.241 2.5-3.953 0-2.412-1.963-4.375-4.375-4.375m.625 7.437v3.188h-3.188c-.29 1.426-1.55 2.5-3.062 2.5-1.512 0-2.772-1.074-3.062-2.5h-1.938v1.938c1.426.29 2.5 1.55 2.5 3.062 0 1.726-1.399 3.125-3.125 3.125s-3.125-1.399-3.125-3.125c0-1.512 1.074-2.773 2.5-3.062v-3.188h3.188c.289-1.427 1.55-2.5 3.062-2.5 1.512 0 2.773 1.073 3.062 2.5h1.938v-1.938c-1.426-.29-2.5-1.55-2.5-3.062 0-1.726 1.399-3.125 3.125-3.125s3.125 1.399 3.125 3.125c0 1.512-1.074 2.772-2.5 3.062M10 8.75c-.691 0-1.25.559-1.25 1.25s.559 1.25 1.25 1.25 1.25-.559 1.25-1.25-.559-1.25-1.25-1.25M15.625 3.125c-.691 0-1.25.559-1.25 1.25s.559 1.25 1.25 1.25 1.25-.559 1.25-1.25-.559-1.25-1.25-1.25M3.125 15.625c0 .691.559 1.25 1.25 1.25s1.25-.559 1.25-1.25-.559-1.25-1.25-1.25-1.25.559-1.25 1.25" sketch:type="MSShapeGroup"/></g></svg>