<svg width="20" height="20" viewBox="0 0 20 20" xmlns="http://www.w3.org/2000/svg" xmlns:sketch="http://www.bohemiancoding.com/sketch/ns"><title>meta-issues</title><path d="M16.517 13.225c.114-.502.199-1.024.259-1.56 1.144.479 1.81 1.069 2.007 1.658.086.262.331.428.592.428l.198-.033c.327-.109.504-.462.396-.791-.363-1.088-1.454-1.955-3.106-2.563l.012-.364-.012-.364c1.652-.608 2.743-1.475 3.106-2.563.109-.327-.068-.682-.396-.791-.331-.109-.681.068-.79.395-.196.589-.863 1.179-2.007 1.658-.06-.538-.145-1.059-.259-1.56 2.128-1.492 3.483-3.693 3.483-6.15 0-.346-.279-.625-.625-.625s-.625.279-.625.625c0 1.905-.992 3.632-2.593 4.878-1.114-3.286-3.422-5.503-6.157-5.503-2.734 0-5.043 2.217-6.158 5.503-1.599-1.246-2.592-2.973-2.592-4.878 0-.346-.279-.625-.625-.625s-.625.279-.625.625c0 2.457 1.355 4.658 3.484 6.15-.114.501-.2 1.022-.26 1.56-1.144-.479-1.809-1.069-2.006-1.658-.109-.327-.461-.504-.791-.395-.328.109-.504.463-.394.791.362 1.088 1.454 1.955 3.104 2.563l-.013.364.013.364c-1.651.608-2.742 1.474-3.104 2.563-.11.328.067.682.394.791.329.11.682-.068.791-.395.197-.588.862-1.179 2.006-1.657.06.536.146 1.058.26 1.56-2.129 1.491-3.484 3.692-3.484 6.149 0 .346.279.625.625.625s.625-.279.625-.625c0-1.906.994-3.633 2.592-4.879 1.115 3.287 3.423 5.504 6.158 5.504 2.736 0 5.044-2.217 6.157-5.504 1.6 1.246 2.593 2.973 2.593 4.879 0 .346.279.625.625.625s.625-.279.625-.625c0-2.457-1.355-4.658-3.483-6.15m-10.703-9.054c.233-.405.489-.775.766-1.106l.138-.16.223-.241.231-.218.282-.24.273-.205.181-.119.315-.179.141-.074c.152-.072.306-.134.464-.186l.131-.037.381-.091.148-.025c.168-.024.339-.04.512-.04s.344.016.514.04l.146.025.381.091.132.038c.156.052.311.114.461.185l.145.076.309.176.186.121.266.199.3.256.216.204.228.246.132.154c.279.333.537.706.771 1.113l.026.044.232.454c-.978 1.945-2.635 3.141-4.444 3.141-1.803 0-3.467-1.198-4.444-3.142l.231-.452.028-.048m3.144 14.423l-.131-.038c-.158-.052-.311-.114-.464-.186l-.141-.074-.315-.179-.181-.119-.273-.204-.282-.24-.231-.219-.223-.241-.138-.16c-.277-.331-.533-.701-.766-1.107l-.028-.047c-.527-.928-.931-2.027-1.168-3.242l-.034-.203c-.132-.744-.209-1.525-.209-2.335s.077-1.591.209-2.336l.034-.203c.143-.736.354-1.422.61-2.061.987 1.684 2.491 2.762 4.147 2.984v10.307l-.036-.006-.381-.091m6.457-6.259l-.033.203c-.237 1.216-.642 2.315-1.169 3.244l-.026.043c-.234.407-.492.779-.771 1.113l-.132.154-.228.246-.216.204-.3.256-.266.199-.186.121-.309.176-.145.076c-.15.071-.305.133-.461.185l-.132.038-.381.091-.036.006v-10.299c1.661-.219 3.159-1.304 4.147-2.991.256.639.467 1.325.612 2.061l.033.203c.132.745.207 1.526.207 2.336 0 .81-.076 1.591-.209 2.335" sketch:type="MSShapeGroup" fill="#666" fill-rule="evenodd"/></svg>