<svg width="20" height="20" viewBox="0 0 20 20" xmlns="http://www.w3.org/2000/svg" xmlns:sketch="http://www.bohemiancoding.com/sketch/ns"><title>meta-meetings</title><path d="M10.001 1.25l2.917 3.125h5.833v2.5h-17.501v-2.5h5.831l2.92-3.125zm-2.065 3.125h4.127l-2.062-2.209-2.065 2.209zm10.815 14.375h-17.501v-11.25h17.5v11.25h.001zm-3.125-8.125h1.25v-1.25h-1.25v1.25zm-3.125 0h1.25v-1.25h-1.25v1.25zm-3.126 0h1.25v-1.25h-1.25v1.25zm-3.125 0h1.25v-1.25h-1.25v1.25zm-3.125 0h1.25v-1.25h-1.25v1.25zm8.751 3.75h2.5v-2.5h-2.5v2.5zm3.75-.625h1.25v-1.25h-1.25v1.25zm-6.251 0h1.25v-1.25h-1.25v1.25zm-3.125 0h1.25v-1.25h-1.25v1.25zm-3.125 0h1.25v-1.25h-1.25v1.25zm6.25 3.125h1.25v-1.25h-1.25v1.25zm-3.125 0h1.25v-1.25h-1.25v1.25zm-3.125 0h1.25v-1.25h-1.25v1.25zm10.626-3.125h-1.25v-1.25h1.25v1.25zm-3.75-13.75c-.347 0-.677.144-.913.397l-2.55 2.728h-5.287c-.69 0-1.25.56-1.25 1.25v14.375c0 .69.559 1.25 1.25 1.25h17.5c.69 0 1.25-.56 1.25-1.25v-14.375c0-.69-.56-1.25-1.25-1.25h-5.291l-2.546-2.728c-.236-.253-.566-.397-.913-.397z" sketch:type="MSShapeGroup" fill="#666" fill-rule="evenodd"/></svg>