<svg width="20" height="20" viewBox="0 0 20 20" xmlns="http://www.w3.org/2000/svg" xmlns:sketch="http://www.bohemiancoding.com/sketch/ns"><title>meta-mailing-list</title><path d="M16.994 5.379c.307-.228.506-.593.506-1.004v-3.125c0-.69-.559-1.25-1.25-1.25h-4.375c-.69 0-1.25.56-1.25 1.25v3.75h-5.625c-3.131 0-5 2.336-5 6.25v7.5c0 .69.56 1.25 1.25 1.25h17.5c.691 0 1.25-.56 1.25-1.25v-7.5c0-2.992-1.093-5.062-3.006-5.871zm-5.119-4.129h4.375v3.125h-2.5v5.313c0 .518-.42.938-.938.938s-.938-.419-.938-.938v-8.438zm-3.125 17.5h-7.5v-7.5c0-3.125 1.25-5 3.75-5s3.75 1.875 3.75 5v7.5zm10 0h-9.375v-1.25h9.375v1.25zm0-1.875h-9.375v-5.625c0-2.5-.625-4.375-1.875-5h3.75v3.438c0 .861.701 1.563 1.563 1.563s1.563-.701 1.563-1.563v-3.438h.625c2.5 0 3.75 1.875 3.75 5v5.625z" sketch:type="MSShapeGroup" fill="#666" fill-rule="evenodd"/></svg>