<svg width="20" height="20" viewBox="0 0 20 20" xmlns="http://www.w3.org/2000/svg" xmlns:sketch="http://www.bohemiancoding.com/sketch/ns"><title>meta-forum</title><path d="M9.375 1.25c2.071 0 3.75 1.679 3.75 3.75v1.25c0 2.071-1.679 3.75-3.75 3.75h-1.248l-3.127 3.125v-3.125c-2.071 0-3.75-1.679-3.75-3.75v-1.25c0-2.071 1.679-3.75 3.75-3.75h4.375m5.625 5.625c2.071 0 3.75 1.679 3.75 3.75v1.25c0 2.071-1.679 3.75-3.75 3.75v3.125l-3.127-3.125h-1.248c-1.723 0-3.171-1.163-3.61-2.747l1.629-1.628h.731c2.545 0 4.648-1.913 4.957-4.375h.668m-5.625-6.875h-4.375c-2.757 0-5 2.243-5 5v1.25c0 2.326 1.596 4.285 3.75 4.842v2.033c0 .506.304.961.771 1.155.155.064.317.095.479.095.325 0 .644-.127.884-.366l.154-.154c.781 1.807 2.581 3.019 4.588 3.019h.731l2.761 2.759c.239.239.559.366.884.366.161 0 .324-.031.479-.095.467-.194.771-.649.771-1.155v-2.033c2.154-.557 3.75-2.516 3.75-4.842v-1.25c0-2.757-2.243-5-5-5h-.625v-.625c0-2.757-2.243-5-5-5" sketch:type="MSShapeGroup" fill="#666" fill-rule="evenodd"/></svg>