<svg width="20" height="20" viewBox="0 0 20 20" xmlns="http://www.w3.org/2000/svg" xmlns:sketch="http://www.bohemiancoding.com/sketch/ns"><title>meta-namespace</title><path d="M10 1.25c4.831 0 8.75 3.918 8.75 8.75 0 4.834-3.919 8.75-8.75 8.75-4.832 0-8.75-3.916-8.75-8.75 0-4.832 3.918-8.75 8.75-8.75m-.018 5.671c.668 0 1.268-.555 1.268-1.25 0-.694-.565-1.25-1.234-1.25-.667 0-1.266.556-1.266 1.25 0 .695.565 1.25 1.232 1.25m-1.857 3.079h1.25v3.75h-1.25v1.875h4.375v-1.875h-1.25v-5.625h-3.125v1.875m1.875-10c-5.514 0-10 4.486-10 10s4.486 10 10 10 10-4.486 10-10-4.486-10-10-10" sketch:type="MSShapeGroup" fill="#666" fill-rule="evenodd"/></svg>