<svg width="20" height="20" viewBox="0 0 20 20" xmlns="http://www.w3.org/2000/svg" xmlns:sketch="http://www.bohemiancoding.com/sketch/ns"><title>meta-statusFinal</title><g sketch:type="MSLayerGroup" fill="#46BE98" fill-rule="evenodd"><path d="M19.998 10c0-2.671-1.04-5.182-2.928-7.07s-4.399-2.928-7.07-2.928c-2.67 0-5.182 1.04-7.07 2.928s-2.928 4.399-2.928 7.07c0 2.671 1.04 5.182 2.928 7.07s4.399 2.929 7.07 2.928c2.671 0 5.182-1.04 7.07-2.928s2.928-4.4 2.928-7.07m-9.998 8.748c-2.417 0-4.603-.979-6.186-2.562-1.583-1.583-2.562-3.771-2.562-6.186 0-4.832 3.916-8.749 8.749-8.749 2.416 0 4.603.979 6.186 2.562 1.583 1.583 2.562 3.77 2.562 6.186 0 4.831-3.917 8.749-8.749 8.749M17.501 10.001c0-2.001-.78-3.885-2.196-5.302l-.001-.001c-1.417-1.415-3.301-2.196-5.304-2.196s-3.888.781-5.303 2.196c-2.924 2.924-2.924 7.681-.001 10.604l.001.001c1.416 1.416 3.3 2.197 5.303 2.197 2.004 0 3.888-.78 5.304-2.196 1.417-1.415 2.197-3.299 2.197-5.302m-12.326-4.894l-.069.069.033-.036.037-.033m-.455.496l1.305 1.305.884-.884-1.306-1.306c1.075-.897 2.381-1.437 3.774-1.562v1.845h1.25v-1.845c1.393.125 2.698.666 3.772 1.563l-1.304 1.304.884.884 1.304-1.304c.897 1.073 1.438 2.378 1.563 3.771l-1.844.001v1.25l1.844-.001c-.125 1.395-.666 2.7-1.563 3.773l-1.304-1.304-.884.884 1.304 1.304c-1.073.897-2.379 1.437-3.772 1.562v-1.844h-1.25v1.845c-1.394-.124-2.699-.665-3.774-1.562l1.305-1.305-.884-.884-1.305 1.305c-.918-1.1-1.441-2.421-1.562-3.774h1.846v-1.25h-1.846c.122-1.352.644-2.672 1.562-3.773m-1.593 4.39v.017-.017m2.01 4.868l-.028-.031.061.061-.033-.03M10 12.143c1.209 0 2.187-.98 2.188-2.188 0-1.207-2.187-4.374-2.187-4.374s-2.187 3.167-2.187 4.374c0 1.207.977 2.186 2.186 2.187" sketch:type="MSShapeGroup"/></g></svg>