<svg width="20" height="20" viewBox="0 0 20 20" xmlns="http://www.w3.org/2000/svg" xmlns:sketch="http://www.bohemiancoding.com/sketch/ns"><title>meta-downloads</title><g sketch:type="MSLayerGroup" fill="#666" fill-rule="evenodd"><path d="M19.998 6.841l-.036-.266-1.249-5.598c-.128-.571-.634-.978-1.22-.978h-14.989c-.585 0-1.092.406-1.219.978l-1.255 5.625-.029.301v11.847c0 .69.559 1.25 1.25 1.25h17.5c.69 0 1.25-.56 1.25-1.25v-11.871l-.002-.038zm-9.373-5.591h6.868l1.256 5.625h-8.124v-5.625zm8.125 17.5h-17.501v-11.875l1.255-5.625h6.87v5.625h-8.125v.625h17.5v11.25h.001zM14.376 13.125h-3.125v-3.125h-2.501v3.125h-3.125l4.376 3.995 4.374-3.995z" sketch:type="MSShapeGroup"/></g></svg>