<svg width="20" height="20" viewBox="0 0 20 20" xmlns="http://www.w3.org/2000/svg" xmlns:sketch="http://www.bohemiancoding.com/sketch/ns"><title>meta-link</title><path d="M17.251 1.25l1.5 1.501-3.541 3.54-1.5-1.5 3.541-3.541m-3.117.021c.604 0 1.206.144 1.757.424l-2.273 2.273-.092.014-.346-.027c-.079 0-.149.013-.192.056l-1.601 1.602c-.129.13.014.496-.044.628l-2.274 2.274c-.741-1.457-.505-3.284.716-4.504l1.602-1.603c.758-.759 1.752-1.138 2.746-1.138m4.174 2.84c.741 1.458.504 3.284-.716 4.503l-1.601 1.603c-.758.759-1.753 1.137-2.747 1.137-.603 0-1.205-.143-1.756-.424l2.272-2.273.092-.014.346.027c.078 0 .148-.013.191-.056l1.601-1.602c.129-.129-.014-.496.043-.628l2.275-2.273m-6.119 2.202l1.5 1.501-6.061 6.061-1.502-1.501 6.063-6.061m-5.451 2.354c.604 0 1.206.144 1.756.424l-2.272 2.273-.091.014-.347-.027c-.078 0-.146.013-.19.056l-1.603 1.602c-.129.13.015.496-.042.628l-2.274 2.274c-.741-1.457-.504-3.284.716-4.504l1.601-1.602c.759-.759 1.752-1.138 2.747-1.138m4.174 2.84c.741 1.457.506 3.284-.714 4.503l-1.603 1.602c-.758.759-1.752 1.137-2.746 1.137-.604 0-1.206-.144-1.757-.424l2.273-2.273.092-.014.345.027c.078 0 .148-.013.191-.056l1.601-1.602c.129-.129-.013-.496.044-.627l2.274-2.274m-6.119 2.201l1.501 1.502-3.542 3.54-1.501-1.501 3.542-3.541m12.459-13.708c-.331 0-.649.132-.884.366l-.115.116c-.665-.302-1.393-.461-2.118-.461-1.373 0-2.662.534-3.632 1.503l-1.601 1.603c-1.166 1.164-1.676 2.776-1.456 4.34-.235-.032-.472-.05-.709-.05-1.371 0-2.66.534-3.631 1.503l-1.601 1.603c-1.521 1.522-1.928 3.806-1.044 5.749l-.094.093c-.488.488-.488 1.279 0 1.768l1.501 1.501c.235.235.553.367.884.367.332 0 .649-.132.884-.366l.095-.095c.667.302 1.394.461 2.118.461 1.371 0 2.661-.534 3.63-1.503l1.603-1.603c1.164-1.164 1.675-2.776 1.454-4.341.236.034.473.051.709.051 1.372 0 2.661-.534 3.631-1.503l1.601-1.603c1.523-1.52 1.928-3.804 1.045-5.748l.114-.115c.488-.488.488-1.279.001-1.768l-1.5-1.501c-.234-.235-.553-.367-.885-.367" sketch:type="MSShapeGroup" fill="#666" fill-rule="evenodd"/></svg>