<svg width="20" height="20" viewBox="0 0 20 20" xmlns="http://www.w3.org/2000/svg" xmlns:sketch="http://www.bohemiancoding.com/sketch/ns"><title>meta-lead</title><path d="M10 1.25c.863 0 1.563.699 1.563 1.563 0 .863-.699 1.563-1.563 1.563-.862 0-1.563-.699-1.563-1.563 0-.863.701-1.563 1.563-1.563zm7.188 1.875c.863 0 1.563.699 1.563 1.563 0 .863-.699 1.563-1.563 1.563-.862 0-1.563-.7-1.563-1.563 0-.862.701-1.563 1.563-1.563zm-14.375 0c.863 0 1.563.699 1.563 1.563 0 .863-.699 1.563-1.563 1.563-.862 0-1.563-.7-1.563-1.563 0-.862.701-1.563 1.563-1.563zm7.813 1.875l2.5 4.375 2.5-3.125 1.875.625-1.875 8.125h-11.25l-1.875-8.125c.021 0 1.875-.625 1.875-.625l2.5 3.125 2.5-4.375h1.25zm5.625 13.751h-12.5v-3.125h12.5v3.125zm-6.25-18.751c-1.551 0-2.813 1.262-2.813 2.813 0 .788.325 1.501.848 2.012l-1.332 2.333-1.236-1.543c.103-.289.157-.602.157-.927 0-1.551-1.261-2.813-2.813-2.813-1.55 0-2.813 1.262-2.813 2.813 0 .978.502 1.84 1.26 2.344.006.041 1.746 7.59 1.746 7.59-.307.228-.506.593-.506 1.004v3.125c0 .69.56 1.25 1.25 1.25h12.5c.691 0 1.25-.56 1.25-1.25v-3.125c0-.411-.198-.776-.504-1.004 0 0 1.739-7.549 1.744-7.59.759-.505 1.26-1.368 1.26-2.344 0-1.551-1.261-2.813-2.813-2.813-1.55 0-2.813 1.262-2.813 2.813 0 .325.056.638.158.928l-1.234 1.543-1.334-2.334c.523-.511.849-1.224.849-2.011 0-1.55-1.262-2.813-2.813-2.813z" sketch:type="MSShapeGroup" fill="#666" fill-rule="evenodd"/></svg>