<svg width="20" height="20" viewBox="0 0 20 20" xmlns="http://www.w3.org/2000/svg" xmlns:sketch="http://www.bohemiancoding.com/sketch/ns"><title>meta-charter</title><path d="M9.998 1.25l2.919 3.125h5.833v14.375h-17.5v-14.375h5.831l2.917-3.125zm-1.998 3.125h3.999l-2.001-2.208-1.998 2.208zm-5.499 13.125h15v-11.875h-15v11.875zm14.375-.625h-13.75v-10.625h13.75v10.625zm-6.877-16.875c-.347 0-.678.144-.914.398l-2.546 2.728h-5.287c-.691 0-1.25.56-1.25 1.25v14.375c0 .69.559 1.25 1.25 1.25h17.5c.69 0 1.25-.56 1.25-1.25v-14.375c0-.69-.56-1.25-1.25-1.25h-5.291l-2.548-2.728c-.237-.254-.568-.397-.914-.397z" sketch:type="MSShapeGroup" fill="#666" fill-rule="evenodd"/></svg>