<svg width="20" height="20" viewBox="0 0 20 20" xmlns="http://www.w3.org/2000/svg" xmlns:sketch="http://www.bohemiancoding.com/sketch/ns"><title>meta-produces</title><g sketch:type="MSLayerGroup" fill="#666" fill-rule="evenodd"><path d="M8.125 1.25h.003m-.003 0l-2.38 2.38 2.38 2.379-2.116 2.116-2.379-2.406-2.38 2.406v-6.875h6.875m.003-1.25h-6.878c-.69 0-1.25.56-1.25 1.25v6.875c0 .507.306.964.774 1.156.154.063.316.094.476.094.327 0 .649-.129.889-.371l1.491-1.508 1.491 1.508c.234.237.552.37.885.371h.004c.332 0 .649-.132.884-.366l2.116-2.116c.234-.234.366-.552.366-.884 0-.331-.132-.649-.366-.884l-1.496-1.496 1.471-1.471c.242-.228.393-.551.393-.909 0-.69-.559-1.25-1.249-1.25" id="Shape" sketch:type="MSShapeGroup"/><path d="M18.75 8.125v.003m-2.38-2.383l-2.379 2.38-2.116-2.116 2.406-2.379-2.406-2.38h6.875v6.875l-2.38-2.38zm3.63-4.495c0-.69-.56-1.25-1.25-1.25h-6.875c-.507 0-.964.306-1.156.774-.063.154-.094.316-.094.476 0 .327.129.649.371.889l1.508 1.491-1.508 1.491c-.237.234-.37.552-.371.885 0 .336.132.653.366.888l2.116 2.116c.234.234.552.366.884.366.331 0 .649-.132.884-.366l1.496-1.496 1.471 1.471c.228.242.551.393.909.393.69 0 1.25-.559 1.25-1.249v-6.878zM6.009 11.875l2.116 2.116-2.406 2.38 2.406 2.379h-6.875v-6.875l2.38 2.38 2.379-2.38m-4.759-1.25c-.161 0-.324.031-.479.095-.467.194-.771.649-.771 1.155v6.875c0 .69.56 1.25 1.25 1.25h6.875c.507 0 .964-.306 1.156-.774.193-.469.083-1.008-.277-1.364l-1.508-1.491 1.508-1.491c.237-.234.371-.553.371-.885.001-.333-.131-.652-.366-.888l-2.116-2.116c-.234-.234-.552-.366-.884-.366-.331 0-.649.132-.884.366l-1.496 1.496-1.496-1.496c-.239-.239-.558-.366-.884-.366M18.75 11.875v6.875h-6.875l2.38-2.38-2.38-2.379 2.116-2.116 2.38 2.406 2.379-2.406m0-1.25c-.327 0-.649.129-.889.371l-1.491 1.508-1.491-1.508c-.234-.237-.553-.37-.885-.371h-.004c-.332 0-.649.132-.884.366l-2.116 2.116c-.234.234-.366.552-.366.884 0 .331.132.649.366.884l1.496 1.496-1.496 1.496c-.358.357-.464.895-.271 1.363.194.466.649.771 1.155.771h6.875c.69 0 1.25-.56 1.25-1.25v-6.875c0-.507-.306-.964-.774-1.156-.154-.063-.316-.094-.476-.094" sketch:type="MSShapeGroup"/></g></svg>