<svg width="20" height="20" viewBox="0 0 20 20" xmlns="http://www.w3.org/2000/svg" xmlns:sketch="http://www.bohemiancoding.com/sketch/ns"><title>meta-wiki</title><g sketch:type="MSLayerGroup" fill="#666" fill-rule="evenodd"><path d="M20 10.625v-2.5c0-.69-.56-1.25-1.25-1.25h-1.875v-2.149c0-.108-.051-.567-.366-.883l-3.411-3.476c-.239-.239-.559-.366-.884-.366h-7.838c-.69 0-1.25.56-1.25 1.25v5.625h-1.875c-.69 0-1.25.56-1.25 1.25v2.5c0 .69.56 1.25 1.25 1.25h.013l-1.19 3.329c-.048.135-.073.277-.073.421 0 2.576 1.799 4.375 4.375 4.375h11.25c2.576 0 4.375-1.799 4.375-4.375 0-.143-.025-.286-.073-.421l-1.189-3.329h.012c.69 0 1.25-.56 1.25-1.25zm-7.5-9.375l3.125 3.125h-3.125v-3.125zm-.625 0v3.75h3.75v2.5h-11.25v-6.25h7.5zm-8.125 6.875h12.5v2.5h-12.5v-2.5zm-2.5 0h1.875v2.5h-1.875v-2.5zm17.5 7.5c0 1.875-1.25 3.125-3.125 3.125h-11.25c-1.875 0-3.125-1.25-3.125-3.125l1.564-4.375h5.311c0 .625.625.625 1.875.625s1.875 0 1.875-.625h5.312l1.563 4.375zm-1.875-7.5h1.875v2.5h-1.875v-2.5z" id="Shape" sketch:type="MSShapeGroup"/><path sketch:type="MSShapeGroup" d="M6.25 2.5h4.375v.625h-4.375zM6.25 4.375h4.375v.625h-4.375z"/><path d="M15.626 13.125c-.692 0-1.251.279-1.251.625s.559.625 1.251.625c.69 0 1.249-.279 1.249-.625s-.559-.625-1.249-.625M13.125 13.75c0-.346-.559-.625-1.249-.625-.691 0-1.251.279-1.251.625 0 .345.56.625 1.251.625.689 0 1.249-.28 1.249-.625M10.001 15c-.692 0-1.251.279-1.251.625s.559.625 1.251.625c.69 0 1.249-.279 1.249-.625s-.559-.625-1.249-.625M13.751 15c-.692 0-1.251.279-1.251.625s.559.625 1.251.625c.69 0 1.249-.279 1.249-.625s-.559-.625-1.249-.625M5.625 13.75c0-.346-.559-.625-1.249-.625-.691 0-1.251.279-1.251.625 0 .345.559.625 1.251.625.689 0 1.249-.28 1.249-.625M9.375 13.75c0-.346-.559-.625-1.249-.625-.691 0-1.251.279-1.251.625 0 .345.559.625 1.251.625.689 0 1.249-.28 1.249-.625M6.251 15c-.692 0-1.251.279-1.251.625s.559.625 1.251.625c.69 0 1.249-.279 1.249-.625s-.559-.625-1.249-.625" sketch:type="MSShapeGroup"/></g></svg>