<svg width="20" height="20" viewBox="0 0 20 20" xmlns="http://www.w3.org/2000/svg" xmlns:sketch="http://www.bohemiancoding.com/sketch/ns"><title>meta-membership</title><path d="M17.5 3.125h-15v-1.875h15v1.875zm.625 3.125h-16.25v-2.5h16.25v2.5zm.625.625v11.875h-5v-1.875h1.25v-.625h-3.125v.625h1.25v1.875h-6.25v-1.875h1.25v-.625h-3.125v.625h1.25v1.875h-5v-11.875h17.5zm-14.063 3.855c.647 0 1.169-.524 1.169-1.17 0-.644-.522-1.168-1.169-1.168-.644 0-1.169.524-1.169 1.168 0 .646.524 1.17 1.169 1.17zm4.688-.73h7.5v-.625h-7.5v.625zm0 1.875h7.5v-.625h-7.5v.625zm-6.25 2.5h3.125v-1.534c0-.871-.633-1.578-1.563-1.578-.929-.001-1.562.706-1.562 1.578v1.534zm6.25-.625h7.5v-.625h-7.5v.625zm8.125-13.75h-15c-.69 0-1.25.56-1.25 1.25v1.417c-.374.216-.625.62-.625 1.083v2.043c-.374.216-.625.62-.625 1.082v11.875c0 .69.56 1.25 1.25 1.25h17.5c.69 0 1.25-.56 1.25-1.25v-11.875c0-.463-.251-.867-.625-1.082v-2.043c0-.462-.251-.867-.625-1.083v-1.417c0-.69-.56-1.25-1.25-1.25z" sketch:type="MSShapeGroup" fill="#666" fill-rule="evenodd"/></svg>