<svg width="20" height="20" viewBox="0 0 20 20" xmlns="http://www.w3.org/2000/svg" xmlns:sketch="http://www.bohemiancoding.com/sketch/ns"><title>meta-organization</title><path d="M18.75 18.75h-2.5v-17.5h2.5v17.5zm-5-17.5v4.966l-2.5.833v-5.799h2.5zm1.875 5v12.5h-14.375v-10l7.5-2.5v2.292l6.875-2.292zm-4.375 6.25h1.875v-1.875h-1.875v1.875zm-3.75 0h1.875v-1.875h-1.875v1.875zm-3.75 0h1.875v-1.875h-1.875v1.875zm7.5 3.75h1.875v-1.875h-1.875v1.875zm-3.75 0h1.875v-1.875h-1.875v1.875zm-3.75 0h1.875v-1.875h-1.875v1.875zm15-16.25h-2.5c-.691 0-1.25.559-1.25 1.25 0-.691-.559-1.25-1.25-1.25h-2.5c-.691 0-1.25.559-1.25 1.25v5c0-.402-.193-.779-.519-1.014-.215-.156-.472-.236-.731-.236-.133 0-.266.021-.395.064l-7.5 2.5c-.511.17-.855.647-.855 1.186v10c0 .691.559 1.25 1.25 1.25h17.5c.691 0 1.25-.559 1.25-1.25v-17.5c0-.691-.559-1.25-1.25-1.25z" sketch:type="MSShapeGroup" fill="#666" fill-rule="evenodd"/></svg>