<svg width="20" height="20" viewBox="0 0 20 20" xmlns="http://www.w3.org/2000/svg" xmlns:sketch="http://www.bohemiancoding.com/sketch/ns"><title>meta-components</title><path d="M18.75 5.625h-4.375v-4.375h4.375v4.375zm-8.125 3.125h-4.375v-4.375h4.375v4.375zm-5 0h-4.375v-4.375h4.375v4.375zm10 5h-4.375v-4.375h4.375v4.375zm-5 0h-4.375v-4.375h4.375v4.375zm-5 0h-4.375v-4.375h4.375v4.375zm10 5h-4.375v-4.375h4.375v4.375zm-5 0h-4.375v-4.375h4.375v4.375zm-5 0h-4.375v-4.375h4.375v4.375zm13.125-18.75h-4.375c-.69 0-1.25.56-1.25 1.25v4.375c0 .69.56 1.25 1.25 1.25h4.375c.69 0 1.25-.56 1.25-1.25v-4.375c0-.69-.56-1.25-1.25-1.25zm-8.125 3.125h-9.375c-.69 0-1.25.56-1.25 1.25v14.375c0 .69.56 1.25 1.25 1.25h14.375c.69 0 1.25-.56 1.25-1.25v-9.375c0-.69-.56-1.25-1.25-1.25h-3.75v-3.75c0-.69-.56-1.25-1.25-1.25z" sketch:type="MSShapeGroup" fill="#666" fill-rule="evenodd"/></svg>