<svg width="28" height="25" viewBox="0 0 28 25" xmlns="http://www.w3.org/2000/svg" xmlns:sketch="http://www.bohemiancoding.com/sketch/ns"><title>navtoggle-menu</title><path d="M23.625 1.786c1.444 0 2.625 1.205 2.625 2.679 0 1.473-1.181 2.679-2.625 2.679h-19.25c-1.444 0-2.625-1.205-2.625-2.679 0-1.473 1.181-2.679 2.625-2.679h19.25m0 8.036c1.444 0 2.625 1.205 2.625 2.679 0 1.473-1.181 2.679-2.625 2.679h-19.25c-1.444 0-2.625-1.205-2.625-2.679 0-1.473 1.181-2.679 2.625-2.679h19.25m0 8.036c1.444 0 2.625 1.205 2.625 2.679 0 1.473-1.181 2.679-2.625 2.679h-19.25c-1.444 0-2.625-1.205-2.625-2.679 0-1.473 1.181-2.679 2.625-2.679h19.25m0-17.857h-19.25c-2.412 0-4.375 2.003-4.375 4.464 0 1.765 1.009 3.294 2.468 4.018-1.46.724-2.468 2.253-2.468 4.018 0 1.765 1.009 3.294 2.468 4.018-1.46.724-2.468 2.253-2.468 4.018 0 2.462 1.963 4.464 4.375 4.464h19.25c2.412 0 4.375-2.003 4.375-4.464 0-1.765-1.009-3.294-2.468-4.018 1.46-.724 2.468-2.253 2.468-4.018 0-1.765-1.009-3.294-2.468-4.018 1.46-.724 2.468-2.253 2.468-4.018 0-2.462-1.963-4.464-4.375-4.464" sketch:type="MSShapeGroup" fill="#666" fill-rule="evenodd"/></svg>