<svg width="28" height="25" viewBox="0 0 28 25" xmlns="http://www.w3.org/2000/svg" xmlns:sketch="http://www.bohemiancoding.com/sketch/ns"><title>navtoggle-close</title><path d="M20.227 12.5l5.154 5.154-5.727 5.727-5.154-5.154-5.154 5.154-5.727-5.727 5.154-5.154-5.154-5.154 5.727-5.727 5.154 5.154 5.154-5.154 5.727 5.727m-4.581-6.872c-.632-.632-1.658-.632-2.291 0l-4.009 4.009-4.009-4.009c-.632-.632-1.658-.632-2.291 0l-5.727 5.727c-.632.632-.632 1.658 0 2.291l4.009 4.009-4.009 4.009c-.632.632-.632 1.658 0 2.291l5.727 5.727c.632.632 1.658.632 2.291 0l4.009-4.009 4.009 4.009c.632.632 1.658.632 2.291 0l5.727-5.727c.632-.632.632-1.658 0-2.291l-4.009-4.009 4.009-4.009c.632-.632.632-1.658 0-2.291" sketch:type="MSShapeGroup" fill="#fff" fill-rule="evenodd"/></svg>