<svg width="32" height="32" viewBox="0 0 32 32" xmlns="http://www.w3.org/2000/svg" xmlns:sketch="http://www.bohemiancoding.com/sketch/ns"><title>previous</title><path d="M20 2h.005-.005zm0 0l-2 10.02h12v8h-12l2 10.019-18-14.018 18-14.021zm0-2h-.024c-.46.006-.883.167-1.219.434l-17.986 14.007c-.487.379-.771.961-.771 1.58 0 .616.284 1.198.771 1.577l18 14.02c.359.279.793.422 1.229.422.363 0 .728-.099 1.051-.298.711-.439 1.074-1.274.91-2.094l-1.522-7.627h9.561c1.104 0 2-.896 2-2v-8c0-1.105-.896-2-2-2h-9.562l1.502-7.526c.041-.158.062-.323.062-.494 0-1.104-.894-2-1.998-2h-.004v-.001z" sketch:type="MSShapeGroup" fill="#666" fill-rule="evenodd"/></svg>