<svg width="16" height="16" viewBox="0 0 16 16" xmlns="http://www.w3.org/2000/svg" xmlns:sketch="http://www.bohemiancoding.com/sketch/ns"><title>search</title><g sketch:type="MSLayerGroup" fill="#666" fill-rule="evenodd"><path d="M15.403 12.524l-2.664-2.664c.5-.957.761-2.018.761-3.11 0-3.722-3.028-6.75-6.75-6.75-3.721 0-6.75 3.028-6.75 6.75s3.029 6.75 6.75 6.75c1.093 0 2.152-.261 3.11-.761l2.665 2.664c.382.384.894.597 1.439.597s1.056-.213 1.44-.598c.383-.383.595-.895.595-1.438 0-.544-.213-1.056-.597-1.44m-.707 2.173c-.203.202-.468.303-.732.303-.265 0-.531-.101-.732-.303l-3.214-3.214.015-.015c-.931.649-2.062 1.033-3.283 1.033-3.175 0-5.75-2.575-5.75-5.75s2.575-5.75 5.75-5.75c3.176 0 5.75 2.575 5.75 5.75 0 1.221-.384 2.352-1.033 3.284l.015-.015 3.214 3.214c.405.404.405 1.059 0 1.465M6.75 2c-2.623 0-4.75 2.127-4.75 4.75s2.127 4.75 4.75 4.75 4.75-2.127 4.75-4.75-2.127-4.75-4.75-4.75m0 9c-2.343 0-4.25-1.906-4.25-4.25 0-2.343 1.907-4.25 4.25-4.25 2.344 0 4.25 1.907 4.25 4.25 0 2.344-1.906 4.25-4.25 4.25" sketch:type="MSShapeGroup"/></g></svg>