<svg width="10" height="10" viewBox="0 0 10 10" xmlns="http://www.w3.org/2000/svg" xmlns:sketch="http://www.bohemiancoding.com/sketch/ns"><title>sextant-backToTop</title><path d="M5.006.625l4.381 5.625-3.131-.625v3.75h-2.5v-3.75l-3.131.625 4.381-5.625m0-.625c-.192 0-.375.089-.493.241l-4.381 5.625c-.16.206-.176.49-.039.712.115.187.318.297.532.297l.123-.012 2.384-.476v2.988c0 .345.28.625.625.625h2.5c.345 0 .625-.28.625-.625v-2.988l2.384.476.123.013c.214 0 .417-.11.532-.297.137-.222.122-.506-.039-.712l-4.381-5.625c-.118-.152-.301-.241-.493-.241" sketch:type="MSShapeGroup" fill="#305A87" fill-rule="evenodd"/></svg>