<svg width="24" height="24" viewBox="0 0 24 24" xmlns="http://www.w3.org/2000/svg" xmlns:sketch="http://www.bohemiancoding.com/sketch/ns"><title>sextant-menu</title><path d="M0 24h3.429v-3.429h-3.429v3.429zm5.143 0h18.857v-3.429h-18.857v3.429zm-5.143-5.143h3.429v-3.429h-3.429v3.429zm5.143 0h18.857v-3.429h-18.857v3.429zm-5.143-5.143h3.429v-3.429h-3.429v3.429zm5.143 0h18.857v-3.429h-18.857v3.429zm-5.143-5.143h3.429v-3.429h-3.429v3.429zm5.143 0h18.857v-3.429h-18.857v3.429zm-5.143-5.143h3.429v-3.429h-3.429v3.429zm5.143 0h18.857v-3.429h-18.857v3.429z" sketch:type="MSShapeGroup" fill="#009DD4" fill-rule="evenodd"/></svg>