<svg width="24" height="24" viewBox="0 0 24 24" xmlns="http://www.w3.org/2000/svg" xmlns:sketch="http://www.bohemiancoding.com/sketch/ns"><title>social-github</title><path d="M12 0c-6.628 0-12 5.372-12 12s5.372 12 12 12 12-5.372 12-12-5.372-12-12-12zm7.127 19.127c-.926.926-2.004 1.653-3.204 2.161-.304.129-.614.242-.928.34v-1.799c0-.945-.324-1.641-.973-2.086.406-.039.779-.094 1.119-.164.34-.07.699-.172 1.079-.304.38-.133.718-.291 1.019-.475.301-.184.59-.422.867-.715.277-.292.51-.625.697-.996.188-.371.336-.817.446-1.336.11-.519.164-1.092.164-1.717 0-1.211-.395-2.242-1.183-3.094.359-.938.32-1.957-.117-3.058l-.293-.035c-.203-.023-.569.062-1.096.258-.527.196-1.119.516-1.775.961-.93-.258-1.894-.387-2.894-.387-1.008 0-1.969.129-2.883.387-.414-.281-.806-.514-1.177-.697-.371-.184-.668-.308-.891-.375-.223-.067-.43-.107-.621-.123l-.369-.012-.117.023c-.437 1.109-.476 2.129-.117 3.058-.789.851-1.183 1.883-1.183 3.094 0 .625.055 1.197.164 1.717.109.52.258.964.446 1.336.188.371.42.704.697.996.277.293.566.531.867.715.301.184.641.342 1.019.475.379.133.738.235 1.079.305.34.07.713.125 1.119.164-.64.437-.961 1.133-.961 2.086v1.834c-.354-.105-.703-.23-1.045-.375-1.2-.508-2.278-1.235-3.204-2.161-.926-.926-1.653-2.004-2.161-3.204-.525-1.241-.791-2.56-.791-3.922s.266-2.681.791-3.922c.508-1.2 1.235-2.278 2.161-3.204.926-.926 2.004-1.653 3.204-2.161 1.241-.525 2.561-.791 3.922-.791 1.361 0 2.681.266 3.922.791 1.2.508 2.278 1.234 3.204 2.161.926.926 1.653 2.004 2.161 3.204.525 1.241.791 2.561.791 3.922 0 1.361-.266 2.681-.791 3.922-.508 1.2-1.235 2.278-2.161 3.204l-.002.001z" sketch:type="MSShapeGroup" fill="#305A87" fill-rule="evenodd"/></svg>