<svg width="24" height="24" viewBox="0 0 24 24" xmlns="http://www.w3.org/2000/svg" xmlns:sketch="http://www.bohemiancoding.com/sketch/ns"><title>social-rss</title><g sketch:type="MSLayerGroup" fill="#305A87" fill-rule="evenodd"><path d="M1.5 0c-.828 0-1.5.671-1.5 1.5v9.152c0 .828.672 1.5 1.5 1.5 5.79 0 10.5 4.71 10.5 10.5 0 .828.672 1.5 1.5 1.5h9c.828 0 1.5-.672 1.5-1.5 0-12.49-10.094-22.651-22.5-22.651zm12 22.651c0-6.616-5.383-12-12-12v-3.75c8.699 0 15.75 7.05 15.75 15.75h-3.75zm5.25 0c0-9.512-7.738-17.25-17.25-17.25v-3.901c11.6 0 21 9.466 21 21.151h-3.75zM3.938 15.75c-2.171 0-3.938 1.766-3.938 3.938 0 2.171 1.766 3.938 3.938 3.938 2.171 0 3.938-1.766 3.938-3.938 0-2.171-1.766-3.938-3.938-3.938m0 6.375c-1.345 0-2.438-1.092-2.438-2.438s1.092-2.438 2.438-2.438 2.438 1.091 2.438 2.438c0 1.346-1.092 2.438-2.438 2.438" sketch:type="MSShapeGroup"/></g></svg>