<svg width="24" height="24" viewBox="0 0 24 24" xmlns="http://www.w3.org/2000/svg" xmlns:sketch="http://www.bohemiancoding.com/sketch/ns"><title>social-linkedin</title><path d="M19.969 0h-15.938c-2.217 0-4.031 1.814-4.031 4.031v15.938c0 2.217 1.814 4.031 4.031 4.031h15.938c2.217 0 4.031-1.814 4.031-4.031v-15.938c0-2.217-1.814-4.031-4.031-4.031zm-10.969 19.5h-3v-10.5h3v10.5zm-1.5-12c-.829 0-1.5-.671-1.5-1.5s.671-1.5 1.5-1.5 1.5.671 1.5 1.5-.671 1.5-1.5 1.5zm12 12h-3v-6c0-.829-.671-1.5-1.5-1.5s-1.5.671-1.5 1.5v6h-3v-10.5h3v1.862c.619-.85 1.565-1.862 2.625-1.862 1.864 0 3.375 1.679 3.375 3.75v6.75z" sketch:type="MSShapeGroup" fill="#003246" fill-rule="evenodd"/></svg>