<svg width="24" height="24" viewBox="0 0 24 24" xmlns="http://www.w3.org/2000/svg" xmlns:sketch="http://www.bohemiancoding.com/sketch/ns"><title>social-googleplus</title><path d="M.018 20.383l-.013-.179.013.179zm5.51-7.137c2.156.065 3.603-2.173 3.231-4.996-.372-2.824-2.423-5.09-4.579-5.155-2.157-.064-3.603 2.097-3.231 4.921.372 2.824 2.422 5.165 4.579 5.23zm18.471-7.246v-2c0-2.2-1.799-4-4-4h-16c-2.163 0-3.938 1.74-3.998 3.889 1.368-1.204 3.265-2.21 5.224-2.21h8.373l-1.873 1.585h-2.655c1.761.675 2.699 2.722 2.699 4.822 0 1.763-.98 3.28-2.365 4.359-1.351 1.052-1.607 1.493-1.607 2.388 0 .763 1.448 2.063 2.204 2.596 2.212 1.559 2.928 3.008 2.928 5.425 0 .385-.048.77-.143 1.148h7.213c2.2 0 4-1.799 4-4v-12.5h-4.5v4.5h-1.5v-4.5h-4.5v-1.5h4.5v-4.5h1.5v4.5h4.5v-.001zm-19.643 11.952l1.452-.014c-.636-.617-1.14-1.373-1.14-2.306 0-.553.177-1.086.425-1.559-.253.018-.511.023-.776.023-1.743 0-3.223-.564-4.317-1.496v6.304c1.252-.595 2.74-.952 4.357-.952l-.001-.001zm-4.276 2.843l-.059-.39.059.39zm10.595 1.537c-.353-1.379-1.604-2.062-3.349-3.271-.634-.205-1.333-.326-2.083-.333-2.101-.023-4.057.819-5.161 2.072.373 1.821 1.993 3.2 3.919 3.2h6.713c.043-.261.063-.53.063-.807 0-.294-.036-.581-.103-.861h.001z" sketch:type="MSShapeGroup" fill="#305A87" fill-rule="evenodd"/></svg>