<svg width="24" height="24" viewBox="0 0 24 24" xmlns="http://www.w3.org/2000/svg" xmlns:sketch="http://www.bohemiancoding.com/sketch/ns"><title>social-twitter</title><path d="M24.001 4.368c-.883.402-1.832.673-2.828.795 1.016-.625 1.797-1.615 2.165-2.794-.952.578-2.006.999-3.127 1.225-.898-.982-2.178-1.595-3.594-1.595-2.72 0-4.924 2.261-4.924 5.05 0 .396.043.782.127 1.151-4.092-.211-7.721-2.222-10.149-5.277-.424.746-.667 1.613-.667 2.539 0 1.752.869 3.298 2.191 4.204-.807-.026-1.566-.253-2.23-.632l-.001.064c0 2.447 1.697 4.488 3.949 4.952-.413.115-.848.177-1.297.177-.317 0-.625-.032-.926-.091.626 2.006 2.445 3.466 4.6 3.507-1.685 1.355-3.808 2.162-6.115 2.162-.398 0-.789-.024-1.175-.071 2.179 1.433 4.767 2.269 7.548 2.269 9.057 0 14.009-7.695 14.009-14.369l-.014-.653c.962-.712 1.797-1.602 2.457-2.614h.001z" sketch:type="MSShapeGroup" fill="#003246" fill-rule="evenodd"/></svg>