<svg width="20" height="20" viewBox="0 0 20 20" xmlns="http://www.w3.org/2000/svg" xmlns:sketch="http://www.bohemiancoding.com/sketch/ns"><title>tag-favorite</title><path d="M10.001 1.25l2.703 5.76 6.046.924-4.375 4.485 1.034 6.331-5.408-2.989-5.408 2.989 1.032-6.331-4.375-4.485 6.046-.924 2.704-5.76m0-1.25c-.484 0-.925.28-1.132.719l-2.421 5.156-5.388.824c-.463.071-.847.394-.996.839-.149.444-.037.934.29 1.269l3.934 4.033-.931 5.708c-.077.473.122.948.513 1.223.216.151.468.228.721.228.207 0 .416-.052.604-.156l4.804-2.655 4.804 2.655c.189.104.397.156.605.156.252 0 .505-.077.72-.228.391-.276.591-.751.513-1.223l-.932-5.708 3.934-4.033c.327-.335.439-.826.291-1.269-.149-.444-.534-.768-.997-.839l-5.387-.824-2.42-5.156c-.206-.439-.648-.719-1.132-.719" sketch:type="MSShapeGroup" fill="#fff" fill-rule="evenodd"/></svg>