<svg width="20" height="20" viewBox="0 0 20 20" xmlns="http://www.w3.org/2000/svg" xmlns:sketch="http://www.bohemiancoding.com/sketch/ns"><title>tag-upcoming</title><g sketch:type="MSLayerGroup" fill="#fff" fill-rule="evenodd"><path d="M10 0c-5.514 0-10 4.486-10 10s4.486 10 10 10 10-4.486 10-10-4.486-10-10-10m0 18.75c-4.832 0-8.75-3.918-8.75-8.75s3.918-8.75 8.75-8.75 8.75 3.918 8.75 8.75-3.918 8.75-8.75 8.75M15.303 4.697c-1.418-1.416-3.301-2.197-5.305-2.197-2.003 0-3.888.781-5.304 2.197-2.924 2.924-2.924 7.682 0 10.607 1.416 1.416 3.302 2.196 5.304 2.196 2.004 0 3.887-.781 5.305-2.197 1.418-1.416 2.197-3.299 2.197-5.303 0-2.003-.78-3.887-2.197-5.303m-.442 10.164c-1.299 1.299-3.026 2.014-4.863 2.014-1.837 0-3.564-.716-4.863-2.014-1.296-1.296-2.01-3.023-2.01-4.861 0-1.839.714-3.565 2.01-4.861 1.299-1.299 3.026-2.014 4.863-2.014 1.836 0 3.563.716 4.863 2.014 1.299 1.298 2.014 3.025 2.014 4.861 0 1.837-.716 3.564-2.014 4.861M10.625 8.569v-4.194c0-.345-.279-.625-.625-.625s-.625.28-.625.625v4.194c-.36.158-.649.446-.806.806h-3.569c-.345 0-.625.279-.625.625s.28.625.625.625h3.569c.242.551.79.938 1.431.938.864 0 1.563-.701 1.563-1.563 0-.64-.386-1.189-.937-1.431" sketch:type="MSShapeGroup"/></g></svg>