<svg width="100" height="26" viewBox="0 0 100 26" xmlns="http://www.w3.org/2000/svg" xmlns:sketch="http://www.bohemiancoding.com/sketch/ns"><title>wordmark-med</title><path d="M25.797 12.617c0 1.91-.323 3.654-.97 5.234s-1.545 2.933-2.693 4.058c-1.149 1.125-2.515 1.995-4.099 2.609-1.584.614-3.301.921-5.153.921-1.851 0-3.563-.307-5.136-.921-1.573-.614-2.933-1.483-4.082-2.609-1.149-1.125-2.047-2.478-2.693-4.058-.647-1.58-.97-3.325-.97-5.234 0-1.932.323-3.677.97-5.234s1.545-2.881 2.693-3.973c1.149-1.091 2.509-1.932 4.082-2.523 1.573-.591 3.285-.887 5.136-.887s3.569.296 5.153.887c1.584.591 2.95 1.432 4.099 2.523 1.149 1.091 2.047 2.415 2.693 3.973.647 1.557.97 3.302.97 5.234zm-6.123 0c0-1.046-.167-2.023-.502-2.933-.335-.909-.797-1.688-1.389-2.336-.591-.648-1.305-1.159-2.141-1.534-.836-.375-1.757-.563-2.76-.563-1.004 0-1.918.188-2.744.563-.825.375-1.539.887-2.141 1.534-.602.648-1.065 1.427-1.389 2.336-.323.909-.485 1.887-.485 2.933 0 1.091.167 2.097.502 3.018.335.921.797 1.711 1.389 2.37.591.659 1.299 1.176 2.125 1.552.825.375 1.74.563 2.744.563 1.004 0 1.918-.188 2.744-.563.825-.375 1.539-.892 2.141-1.552.602-.659 1.071-1.449 1.405-2.37.335-.921.502-1.927.502-3.018zm26.82-5.695c-.491-.637-1.132-1.142-1.924-1.517s-1.556-.563-2.292-.563c-.379 0-.764.034-1.154.102-.39.068-.742.199-1.054.392-.312.193-.574.443-.786.75-.212.307-.318.699-.318 1.176 0 .409.084.75.251 1.023.167.273.413.511.736.716.323.205.708.392 1.154.563.446.171.948.347 1.506.529.803.273 1.639.574 2.509.904.87.33 1.662.767 2.376 1.313.714.546 1.305 1.222 1.773 2.029.468.807.703 1.813.703 3.018 0 1.387-.251 2.586-.753 3.598s-1.177 1.847-2.024 2.506c-.848.659-1.818 1.148-2.911 1.466-1.093.318-2.219.477-3.379.477-1.695 0-3.335-.301-4.918-.904-1.584-.602-2.9-1.461-3.948-2.575l3.747-3.887c.58.727 1.344 1.336 2.292 1.824.948.489 1.89.733 2.827.733.424 0 .836-.045 1.238-.136.402-.091.753-.239 1.054-.443.301-.205.541-.477.719-.818.178-.341.268-.75.268-1.228 0-.455-.112-.841-.335-1.159-.223-.318-.541-.608-.954-.87-.413-.261-.926-.5-1.539-.716-.613-.216-1.31-.449-2.091-.699-.758-.25-1.5-.546-2.225-.887-.725-.341-1.372-.779-1.941-1.313-.569-.534-1.026-1.182-1.372-1.944-.346-.762-.519-1.688-.519-2.779 0-1.341.268-2.489.803-3.444.535-.955 1.238-1.739 2.108-2.353.87-.614 1.851-1.063 2.944-1.347 1.093-.284 2.197-.426 3.312-.426 1.338 0 2.705.25 4.099.75 1.394.5 2.615 1.239 3.664 2.216l-3.647 3.921zm11.663 17.868v-24.143h5.755v19.062h9.168v5.081h-14.923zm41.843-3.342c-1.048 1.228-2.342 2.199-3.881 2.916-1.539.716-3.312 1.074-5.32 1.074-1.829 0-3.519-.307-5.069-.921-1.55-.614-2.894-1.483-4.032-2.609-1.138-1.125-2.03-2.472-2.677-4.041-.647-1.569-.97-3.296-.97-5.183 0-1.932.329-3.683.987-5.251.658-1.569 1.567-2.904 2.727-4.007 1.16-1.103 2.521-1.949 4.082-2.54s3.246-.887 5.052-.887c1.673 0 3.318.301 4.935.904 1.617.602 2.928 1.483 3.931 2.643l-3.881 3.956c-.535-.75-1.238-1.307-2.108-1.671-.87-.364-1.762-.546-2.677-.546-1.004 0-1.924.188-2.76.563-.836.375-1.556.892-2.158 1.552-.602.659-1.071 1.438-1.405 2.336-.335.898-.502 1.881-.502 2.95 0 1.091.167 2.091.502 3.001.335.909.797 1.688 1.389 2.336.591.648 1.299 1.154 2.125 1.517.825.364 1.729.546 2.71.546 1.138 0 2.13-.227 2.978-.682.848-.455 1.528-1.046 2.041-1.773l3.982 3.819z" sketch:type="MSShapeGroup" fill="#666" fill-rule="evenodd"/></svg>