<?xml version="1.0" encoding="UTF-8" standalone="no"?>
<svg width="20px" height="20px" viewBox="0 0 20 20" version="1.1" xmlns="http://www.w3.org/2000/svg" xmlns:xlink="http://www.w3.org/1999/xlink" xmlns:sketch="http://www.bohemiancoding.com/sketch/ns">
    <title>channel-article</title>
    <description>Created with Sketch (http://www.bohemiancoding.com/sketch)</description>
    <defs></defs>
    <g id="Page-1" stroke="none" stroke-width="1" fill="none" fill-rule="evenodd" sketch:type="MSPage">
        <g id="channel-article" sketch:type="MSArtboardGroup" fill="#FFFFFF">
            <g id="Group" sketch:type="MSLayerGroup">
                <rect id="Rectangle" sketch:type="MSShapeGroup" x="4.375" y="7.5" width="3.75" height="0.625"></rect>
                <rect id="Rectangle" sketch:type="MSShapeGroup" x="4.375" y="3.75" width="3.75" height="0.625"></rect>
                <rect id="Rectangle" sketch:type="MSShapeGroup" x="4.375" y="5.625" width="3.75" height="0.625"></rect>
                <rect id="Rectangle" sketch:type="MSShapeGroup" x="9.375" y="3.75" width="8.125" height="4.375"></rect>
                <rect id="Rectangle" sketch:type="MSShapeGroup" x="4.375" y="11.25" width="13.125" height="0.625"></rect>
                <rect id="Rectangle" sketch:type="MSShapeGroup" x="4.375" y="13.125" width="13.125" height="0.625"></rect>
                <rect id="Rectangle" sketch:type="MSShapeGroup" x="4.375" y="9.375" width="13.125" height="0.625"></rect>
                <rect id="Rectangle" sketch:type="MSShapeGroup" x="4.375" y="15" width="13.125" height="0.625"></rect>
                <path d="M18.75,0 L3.125,0 C2.435,0 1.875,0.56 1.875,1.25 L1.875,1.875 L1.25,1.875 C0.56,1.875 0,2.435 0,3.125 L0,15.833125 C0,18.130625 1.869375,20 4.166875,20 L15.833125,20 C18.130625,20 20,18.130625 20,15.833125 L20,1.25 C20,0.56 19.44,0 18.75,0 L18.75,0 Z M18.75,15.83375 C18.75,17.44375 17.444375,18.750625 15.833125,18.750625 L4.166875,18.750625 C2.555625,18.750625 1.25,17.44375 1.25,15.83375 L1.25,3.125 L2.5,3.125 L2.5,15.698125 C2.5,15.876875 2.633125,16.0225 2.8125,16.0225 C2.991875,16.0225 3.125,15.876875 3.125,15.698125 L3.125,1.25 L18.75,1.25 L18.75,15.83375 L18.75,15.83375 Z" id="Shape" sketch:type="MSShapeGroup"></path>
            </g>
        </g>
    </g>
</svg>