<?xml version="1.0" encoding="UTF-8" standalone="no"?>
<svg width="20px" height="20px" viewBox="0 0 20 20" version="1.1" xmlns="http://www.w3.org/2000/svg" xmlns:xlink="http://www.w3.org/1999/xlink" xmlns:sketch="http://www.bohemiancoding.com/sketch/ns">
    <title>menu-filter</title>
    <description>Created with Sketch (http://www.bohemiancoding.com/sketch)</description>
    <defs></defs>
    <g id="Page-1" stroke="none" stroke-width="1" fill="none" fill-rule="evenodd" sketch:type="MSPage">
        <g id="menu-filter" sketch:type="MSArtboardGroup" fill="#666666">
            <path d="M10,1.25 C14.8325,1.25 18.75,2.509375 18.75,4.0625 C18.75,5.615625 14.8325,6.875 10,6.875 C5.1675,6.875 1.25,5.615625 1.25,4.0625 C1.25,2.509375 5.1675,1.25 10,1.25 M18.691875,5.5875 L18.695,5.5875 M18.691875,5.5875 L16.3075,8.436875 L16.826875,8.960625 C17.73375,9.86625 17.7275,11.349375 16.820625,12.25625 L15.2975,13.76625 C14.84375,14.22 14.24125,14.446875 13.6375,14.446875 C13.033125,14.446875 12.430625,14.22 11.978125,13.76625 L11.834375,13.671875 L11.25,14.253125 L11.25,17.5 C11.25,18.19 10.69,18.75 10,18.75 C9.31,18.75 8.75,18.19 8.75,17.5 L8.75,14.253125 L1.394375,5.5875 C2.865625,6.995 6.389375,7.72375 9.989375,7.72375 C13.59,7.72375 17.22125,6.995 18.691875,5.5875 M13.675,13.154375 C13.94,13.154375 14.205,13.053125 14.406875,12.85125 L15.9175,11.341875 C16.32125,10.936875 16.32125,10.28 15.91875,9.875625 L15.476875,9.434375 L12.76625,12.675 L12.9425,12.850625 C13.14375,13.053125 13.409375,13.154375 13.675,13.154375 M10,0 C5.0225,0 0,1.25625 0,4.0625 C0,4.43125 0.12375,6.0225 0.441875,6.39625 L7.5,14.711875 L7.5,17.5 C7.5,18.87875 8.62125,20 10,20 C11.37875,20 12.5,18.87875 12.5,17.5 L12.5,15.51625 C12.86125,15.634375 13.244375,15.696875 13.6375,15.696875 C14.60375,15.696875 15.508125,15.324375 16.181875,14.65 L17.700625,13.14375 C18.37875,12.465625 18.751875,11.568125 18.754375,10.61125 C18.75625,9.79 18.485,9.01125 17.98375,8.381875 L19.625,6.420625 C19.823125,6.2 19.944375,5.908125 19.944375,5.5875 C19.944375,5.374375 20.000625,4.395625 20.000625,4.0625 C20,1.25625 14.9775,0 10,0" id="Shape" sketch:type="MSShapeGroup"></path>
        </g>
    </g>
</svg>