<?xml version="1.0" encoding="UTF-8" standalone="no"?>
<svg width="20px" height="20px" viewBox="0 0 20 20" version="1.1" xmlns="http://www.w3.org/2000/svg" xmlns:xlink="http://www.w3.org/1999/xlink" xmlns:sketch="http://www.bohemiancoding.com/sketch/ns">
    <title>menu-tag</title>
    <description>Created with Sketch (http://www.bohemiancoding.com/sketch)</description>
    <defs></defs>
    <g id="Page-1" stroke="none" stroke-width="1" fill="none" fill-rule="evenodd" sketch:type="MSPage">
        <g id="menu-tag" sketch:type="MSArtboardGroup" fill="#666666">
            <path d="M18.1575782,1.25 C18.4838282,1.25 18.7488282,1.51625 18.7488282,1.84125 L18.7488282,8.264375 C18.7488282,8.589375 18.5613282,9.04375 18.3307032,9.27375 L9.02695315,18.578125 C8.91195315,18.6925 8.76070315,18.75 8.60945315,18.75 C8.45757815,18.75 8.30570315,18.6925 8.19132815,18.578125 L1.42132815,11.809375 C1.19132815,11.579375 1.19132815,11.203125 1.42132815,10.9725 L10.7257032,1.668125 C10.9557032,1.43875 11.4100782,1.25 11.7357032,1.25 L18.1575782,1.25 M15.9369532,5 C16.4544532,5 16.8744532,4.58 16.8744532,4.0625 C16.8744532,3.545 16.4544532,3.125 15.9369532,3.125 C15.4194532,3.125 14.9994532,3.545 14.9994532,4.0625 C14.9994532,4.58 15.4194532,5 15.9369532,5 M18.1575782,0 L11.7357032,0 C11.0825782,0 10.3038282,0.3225 9.84195315,0.784375 L0.537578151,10.08875 C-0.179296849,10.80875 -0.178671849,11.975625 0.536328151,12.691875 L7.30757815,19.461875 C7.65445315,19.80875 8.11695315,20 8.60945315,20 C9.10257815,20 9.56445315,19.808125 9.91195315,19.460625 L19.2144532,10.1575 C19.6769532,9.69625 19.9988282,8.9175 19.9988282,8.264375 L19.9988282,1.84125 C19.9988282,0.825625 19.1732032,0 18.1575782,0" id="Shape" sketch:type="MSShapeGroup"></path>
        </g>
    </g>
</svg>