<?xml version="1.0" encoding="UTF-8" standalone="no"?>
<svg width="20px" height="20px" viewBox="0 0 20 20" version="1.1" xmlns="http://www.w3.org/2000/svg" xmlns:xlink="http://www.w3.org/1999/xlink" xmlns:sketch="http://www.bohemiancoding.com/sketch/ns">
    <title>menu-workgroup</title>
    <description>Created with Sketch (http://www.bohemiancoding.com/sketch)</description>
    <defs></defs>
    <g id="Page-1" stroke="none" stroke-width="1" fill="none" fill-rule="evenodd" sketch:type="MSPage">
        <g id="menu-workgroup" sketch:type="MSArtboardGroup" fill="#666666">
            <path d="M10,1.25 C11.725625,1.25 13.125,2.65 13.125,4.375 L13.125,6.875 C13.125,9.031875 11.04125,10 10,10 C8.95875,9.99875 6.875,9.031875 6.875,6.875 L6.875,4.375 C6.875,2.65 8.274375,1.25 10,1.25 M15.625,5 C16.66,5 17.5,5.84 17.5,6.875 L17.5,8.125 C17.5,9.41875 16.25,9.999375 15.625,10 C15,10 13.75,9.41875 13.75,8.125 L13.75,6.875 C13.75,5.84 14.59,5 15.625,5 M4.375,5 C5.41,5 6.25,5.84 6.25,6.875 L6.25,8.125 C6.25,9.41875 5,10 4.375,10 C3.75,9.999375 2.5,9.41875 2.5,8.125 L2.5,6.875 C2.5,5.84 3.34,5 4.375,5 M15.625,10.625 C18.303125,10.625 18.75,13.125 18.75,14.375 L16.365625,14.375 C16.193125,13.871875 15.970625,13.3625 15.664375,12.8725 C15.20625,12.136875 14.623125,11.5425 13.936875,11.084375 C14.36625,10.803125 14.915,10.625 15.625,10.625 M10,10.625 C15.3575,10.625 16.25,15.208125 16.25,17.5 L16.25,18.75 L3.75,18.75 L3.75,17.5 C3.75,15.208125 4.643125,10.625 10,10.625 M4.375,10.625 C5.085,10.625 5.634375,10.80375 6.063125,11.084375 C5.37625,11.5425 4.794375,12.136875 4.335625,12.8725 C4.03,13.3625 3.806875,13.871875 3.63375,14.375 L1.25,14.375 C1.25,13.125 1.696875,10.625 4.375,10.625 M10,0 C7.708125,0 5.821875,1.771875 5.639375,4.0175 C5.2525,3.845625 4.825,3.75 4.375,3.75 C2.651875,3.75 1.25,5.151875 1.25,6.875 L1.25,8.125 C1.25,8.918125 1.5375,9.57125 1.96375,10.071875 C0.848125,10.803125 0,12.16 0,14.375 C0,15.065625 0.559375,15.625 1.25,15.625 L2.66625,15.625 C2.553125,16.251875 2.5,16.885 2.5,17.5 L2.5,18.75 C2.5,19.440625 3.059375,20 3.75,20 L16.25,20 C16.94,20 17.5,19.440625 17.5,18.75 L17.5,17.5 C17.5,16.885 17.446875,16.251875 17.33375,15.625 L18.75,15.625 C19.44,15.625 20,15.065625 20,14.375 C20,12.16 19.15125,10.803125 18.03625,10.071875 C18.4625,9.57125 18.75,8.918125 18.75,8.125 L18.75,6.875 C18.75,5.151875 17.348125,3.75 15.625,3.75 C15.175,3.75 14.7475,3.845625 14.360625,4.0175 C14.178125,1.771875 12.291875,0 10,0" id="Shape" sketch:type="MSShapeGroup"></path>
        </g>
    </g>
</svg>