<?xml version="1.0" encoding="UTF-8" standalone="no"?>
<svg width="20px" height="20px" viewBox="0 0 20 20" version="1.1" xmlns="http://www.w3.org/2000/svg" xmlns:xlink="http://www.w3.org/1999/xlink" xmlns:sketch="http://www.bohemiancoding.com/sketch/ns">
    <title>meta-downloads</title>
    <description>Created with Sketch (http://www.bohemiancoding.com/sketch)</description>
    <defs></defs>
    <g id="Page-1" stroke="none" stroke-width="1" fill="none" fill-rule="evenodd" sketch:type="MSPage">
        <g id="meta-downloads" sketch:type="MSArtboardGroup" fill="#666666">
            <g id="Shape-+-Shape" sketch:type="MSLayerGroup">
                <path d="M19.9983587,6.84125 C19.9971087,6.750625 19.9852337,6.66125 19.9627337,6.575625 L18.7133587,0.9775 C18.5858587,0.40625 18.0789837,0 17.4933587,0 L2.50398366,0 C1.91898366,0 1.41148366,0.40625 1.28460866,0.9775 L0.0296086566,6.6025 C0.0077336566,6.7025 -0.0016413434,6.803125 0.000233656598,6.903125 L0.000233656598,18.75 C0.000233656598,19.44 0.559608657,20 1.25023366,20 L18.7502337,20 C19.4402337,20 20.0002337,19.44 20.0002337,18.75 L20.0002337,6.879375 C20.0002337,6.866875 20.0002337,6.854375 19.9983587,6.84125 L19.9983587,6.84125 Z M10.6252337,1.25 L17.4933587,1.25 L18.7489837,6.875 L10.6252337,6.875 L10.6252337,1.25 L10.6252337,1.25 Z M18.7502337,18.75 L1.24960866,18.75 L1.24960866,6.875 L2.50460866,1.25 L9.37460866,1.25 L9.37460866,6.875 L1.24960866,6.875 L1.24960866,7.5 L18.7496087,7.5 L18.7496087,18.75 L18.7502337,18.75 Z" id="Shape" sketch:type="MSShapeGroup"></path>
                <path d="M14.375625,13.125 L11.250625,13.125 L11.250625,10 L8.75,10 L8.75,13.125 L5.625,13.125 L10.00125,17.12 L14.375625,13.125 Z" id="Shape" sketch:type="MSShapeGroup"></path>
            </g>
        </g>
    </g>
</svg>