<?xml version="1.0" encoding="UTF-8" standalone="no"?>
<svg width="28px" height="25px" viewBox="0 0 28 25" version="1.1" xmlns="http://www.w3.org/2000/svg" xmlns:xlink="http://www.w3.org/1999/xlink" xmlns:sketch="http://www.bohemiancoding.com/sketch/ns">
    <title>navtoggle-menu</title>
    <description>Created with Sketch (http://www.bohemiancoding.com/sketch)</description>
    <defs></defs>
    <g id="Page-1" stroke="none" stroke-width="1" fill="none" fill-rule="evenodd" sketch:type="MSPage">
        <g id="navtoggle-menu" sketch:type="MSArtboardGroup" fill="#FFFFFF">
            <path d="M23.625,1.78571429 C25.06875,1.78571429 26.25,2.99107143 26.25,4.46428571 C26.25,5.9375 25.06875,7.14285714 23.625,7.14285714 L4.375,7.14285714 C2.93125,7.14285714 1.75,5.9375 1.75,4.46428571 C1.75,2.99107143 2.93125,1.78571429 4.375,1.78571429 L23.625,1.78571429 M23.625,9.82142857 C25.06875,9.82142857 26.25,11.0267857 26.25,12.5 C26.25,13.9732143 25.06875,15.1785714 23.625,15.1785714 L4.375,15.1785714 C2.93125,15.1785714 1.75,13.9732143 1.75,12.5 C1.75,11.0267857 2.93125,9.82142857 4.375,9.82142857 L23.625,9.82142857 M23.625,17.8571429 C25.06875,17.8571429 26.25,19.0625 26.25,20.5357143 C26.25,22.0089286 25.06875,23.2142857 23.625,23.2142857 L4.375,23.2142857 C2.93125,23.2142857 1.75,22.0089286 1.75,20.5357143 C1.75,19.0625 2.93125,17.8571429 4.375,17.8571429 L23.625,17.8571429 M23.625,0 L4.375,0 C1.962625,0 0,2.00267857 0,4.46428571 C0,6.22946429 1.008875,7.75803571 2.468375,8.48214286 C1.008875,9.20625 0,10.7348214 0,12.5 C0,14.2651786 1.008875,15.79375 2.468375,16.5178571 C1.008875,17.2419643 0,18.7705357 0,20.5357143 C0,22.9973214 1.962625,25 4.375,25 L23.625,25 C26.037375,25 28,22.9973214 28,20.5357143 C28,18.7705357 26.991125,17.2419643 25.531625,16.5178571 C26.991125,15.79375 28,14.2651786 28,12.5 C28,10.7348214 26.991125,9.20625 25.531625,8.48214286 C26.991125,7.75803571 28,6.22946429 28,4.46428571 C28,2.00267857 26.037375,0 23.625,0" id="Shape" sketch:type="MSShapeGroup"></path>
        </g>
    </g>
</svg>