<?xml version="1.0" encoding="UTF-8" standalone="no"?>
<svg width="32px" height="32px" viewBox="0 0 32 32" version="1.1" xmlns="http://www.w3.org/2000/svg" xmlns:xlink="http://www.w3.org/1999/xlink" xmlns:sketch="http://www.bohemiancoding.com/sketch/ns">
    <title>next</title>
    <description>Created with Sketch (http://www.bohemiancoding.com/sketch)</description>
    <defs></defs>
    <g id="Page-1" stroke="none" stroke-width="1" fill="none" fill-rule="evenodd" sketch:type="MSPage">
        <g id="next" sketch:type="MSArtboardGroup" fill="#666666">
            <path d="M12,2 L30,16.021 L12,30.04 L14,20.021 L2,20.021 L2,12.021 L14,12.021 L12,2 M12,0 C11.637,0 11.272,0.099 10.949,0.298 C10.238,0.737 9.875,1.572 10.039,2.392 L11.562,10.02 L2,10.02 C0.896,10.02 0,10.915 0,12.02 L0,20.02 C0,21.124 0.896,22.02 2,22.02 L11.562,22.02 L10.039,29.647 C9.875,30.466 10.238,31.301 10.949,31.741 C11.272,31.94 11.637,32.039 12,32.039 C12.436,32.039 12.869,31.897 13.229,31.617 L31.229,17.597 C31.716,17.219 32,16.637 32,16.021 C32,15.402 31.716,14.82 31.229,14.441 L13.229,0.422 C12.869,0.144 12.436,0 12,0" id="Shape" sketch:type="MSShapeGroup"></path>
        </g>
    </g>
</svg>