<?xml version="1.0" encoding="UTF-8" standalone="no"?>
<svg width="20px" height="20px" viewBox="0 0 20 20" version="1.1" xmlns="http://www.w3.org/2000/svg" xmlns:xlink="http://www.w3.org/1999/xlink" xmlns:sketch="http://www.bohemiancoding.com/sketch/ns">
    <title>pagination-last</title>
    <description>Created with Sketch (http://www.bohemiancoding.com/sketch)</description>
    <defs></defs>
    <g id="Page-1" stroke="none" stroke-width="1" fill="none" fill-rule="evenodd" sketch:type="MSPage">
        <g id="pagination-last" sketch:type="MSArtboardGroup" fill="#666666">
            <path d="M9.999375,1.25 C14.83125,1.25 18.75,5.1675 18.75,10 C18.75,14.8325 14.83125,18.75 9.999375,18.75 C5.1675,18.75 1.25,14.8325 1.25,10 C1.25,5.1675 5.1675,1.25 9.999375,1.25 L9.999375,1.25 Z M12.499375,15.00125 L14.374375,15.00125 L14.374375,5.00125 L12.499375,5.00125 L12.499375,15.00125 L12.499375,15.00125 Z M5.624375,14.6975 L11.256875,10 L5.624375,5.3025 L5.624375,14.6975 L5.624375,14.6975 Z M9.999375,0 C4.485625,0 1.77635684e-15,4.48625 1.77635684e-15,10 C1.77635684e-15,15.51375 4.485625,20 9.999375,20 C15.51375,20 20,15.51375 20,10 C20,4.48625 15.51375,0 9.999375,0 L9.999375,0 Z" id="Shape" sketch:type="MSShapeGroup"></path>
        </g>
    </g>
</svg>