<?xml version="1.0" encoding="UTF-8" standalone="no"?>
<svg width="20px" height="20px" viewBox="0 0 20 20" version="1.1" xmlns="http://www.w3.org/2000/svg" xmlns:xlink="http://www.w3.org/1999/xlink" xmlns:sketch="http://www.bohemiancoding.com/sketch/ns">
    <title>pagination-first</title>
    <description>Created with Sketch (http://www.bohemiancoding.com/sketch)</description>
    <defs></defs>
    <g id="Page-1" stroke="none" stroke-width="1" fill="none" fill-rule="evenodd" sketch:type="MSPage">
        <g id="pagination-first" sketch:type="MSArtboardGroup" fill="#666666">
            <path d="M9.999375,1.25 C14.8325,1.25 18.75,5.1675 18.75,10 C18.75,14.8325 14.8325,18.75 9.999375,18.75 C5.1675,18.75 1.25,14.8325 1.25,10 C1.25,5.1675 5.1675,1.25 9.999375,1.25 L9.999375,1.25 Z M5.625625,15 L7.500625,15 L7.500625,5 L5.625625,5 L5.625625,15 L5.625625,15 Z M14.375625,14.69625 L14.375625,5.30125 L8.74375,10 L14.375625,14.69625 L14.375625,14.69625 Z M9.999375,0 C4.485625,0 0,4.48625 0,10 C0,15.51375 4.485625,20 9.999375,20 C15.51375,20 20,15.51375 20,10 C20,4.48625 15.51375,0 9.999375,0 L9.999375,0 Z" id="Shape" sketch:type="MSShapeGroup"></path>
        </g>
    </g>
</svg>