<?xml version="1.0" encoding="UTF-8" standalone="no"?>
<svg width="32px" height="32px" viewBox="0 0 32 32" version="1.1" xmlns="http://www.w3.org/2000/svg" xmlns:xlink="http://www.w3.org/1999/xlink" xmlns:sketch="http://www.bohemiancoding.com/sketch/ns">
    <title>previous</title>
    <description>Created with Sketch (http://www.bohemiancoding.com/sketch)</description>
    <defs></defs>
    <g id="Page-1" stroke="none" stroke-width="1" fill="none" fill-rule="evenodd" sketch:type="MSPage">
        <g id="previous" sketch:type="MSArtboardGroup" fill="#666666">
            <path d="M20,2 L20.005,2 L20,2 Z M20,2 L18,12.02 L30,12.02 L30,20.02 L18,20.02 L20,30.039 L2,16.021 L20,2 L20,2 Z M20,0 L19.976,0 C19.516,0.006 19.093,0.167 18.757,0.434 L0.771,14.441 C0.284,14.82 0,15.402 0,16.021 C0,16.637 0.284,17.219 0.771,17.598 L18.771,31.618 C19.13,31.897 19.564,32.04 20,32.04 C20.363,32.04 20.728,31.941 21.051,31.742 C21.762,31.303 22.125,30.468 21.961,29.648 L20.439,22.021 L30,22.021 C31.104,22.021 32,21.125 32,20.021 L32,12.021 C32,10.916 31.104,10.021 30,10.021 L20.438,10.021 L21.94,2.495 C21.981,2.337 22.002,2.172 22.002,2.001 C22.002,0.897 21.108,0.001 20.004,0.001 L20,0.001 L20,0 Z" id="Shape" sketch:type="MSShapeGroup"></path>
        </g>
    </g>
</svg>