<?xml version="1.0" encoding="UTF-8" standalone="no"?>
<svg width="20px" height="20px" viewBox="0 0 20 20" version="1.1" xmlns="http://www.w3.org/2000/svg" xmlns:xlink="http://www.w3.org/1999/xlink" xmlns:sketch="http://www.bohemiancoding.com/sketch/ns">
    <title>tag-upcoming</title>
    <description>Created with Sketch (http://www.bohemiancoding.com/sketch)</description>
    <defs></defs>
    <g id="Page-1" stroke="none" stroke-width="1" fill="none" fill-rule="evenodd" sketch:type="MSPage">
        <g id="tag-upcoming" sketch:type="MSArtboardGroup" fill="#FFFFFF">
            <g id="Shape-+-Shape-+-Shape" sketch:type="MSLayerGroup">
                <path d="M10,0 C4.48625,0 0,4.48625 0,10 C0,15.51375 4.48625,20 10,20 C15.51375,20 20,15.51375 20,10 C20,4.48625 15.51375,0 10,0 M10,18.75 C5.1675,18.75 1.25,14.831875 1.25,10 C1.25,5.1675 5.1675,1.25 10,1.25 C14.8325,1.25 18.75,5.1675 18.75,10 C18.75,14.831875 14.8325,18.75 10,18.75" id="Shape" sketch:type="MSShapeGroup"></path>
                <path d="M15.3026563,4.696875 C13.8851562,3.28125 12.0020312,2.5 9.99765625,2.5 C7.99453125,2.5 6.10953125,3.28125 4.69328125,4.696875 C1.76890625,7.62125 1.76890625,12.379375 4.69328125,15.30375 C6.10953125,16.719375 7.99515625,17.5 9.99765625,17.5 C12.0020312,17.5 13.8851562,16.719375 15.3026562,15.303125 C16.7201562,13.8875 17.5001562,12.00375 17.5001562,10 C17.5001562,7.9975 16.7201562,6.113125 15.3026563,4.696875 M14.8607813,14.860625 C13.5614063,16.159375 11.8345312,16.875 9.99765625,16.875 C8.16078125,16.875 6.43390625,16.159375 5.13515625,14.860625 C3.83890625,13.565 3.12515625,11.838125 3.12515625,10 C3.12515625,8.16125 3.83890625,6.435 5.13515625,5.13875 C6.43453125,3.84 8.16078125,3.125 9.99765625,3.125 C11.8339062,3.125 13.5607813,3.840625 14.8607812,5.13875 C16.1595313,6.436875 16.8751562,8.16375 16.8751562,10 C16.8751562,11.836875 16.1595313,13.56375 14.8607813,14.860625" id="Shape" sketch:type="MSShapeGroup"></path>
                <path d="M10.625,8.569375 L10.625,4.375 C10.625,4.03 10.345625,3.75 10,3.75 C9.654375,3.75 9.375,4.03 9.375,4.375 L9.375,8.56875 C9.015,8.72625 8.72625,9.015 8.56875,9.375 L5,9.375 C4.655,9.375 4.375,9.654375 4.375,10 C4.375,10.345625 4.655,10.625 5,10.625 L8.56875,10.625 C8.810625,11.17625 9.35875,11.5625 9.999375,11.5625 C10.863125,11.5625 11.561875,10.861875 11.561875,10 C11.561875,9.36 11.17625,8.81125 10.625,8.569375" id="Shape" sketch:type="MSShapeGroup"></path>
            </g>
        </g>
    </g>
</svg>