<?xml version="1.0" encoding="UTF-8" standalone="no"?>
<svg width="66px" height="18px" viewBox="0 0 66 18" version="1.1" xmlns="http://www.w3.org/2000/svg" xmlns:xlink="http://www.w3.org/1999/xlink" xmlns:sketch="http://www.bohemiancoding.com/sketch/ns">
    <title>wordmark-small</title>
    <description>Created with Sketch (http://www.bohemiancoding.com/sketch)</description>
    <defs></defs>
    <g id="Page-1" stroke="none" stroke-width="1" fill="none" fill-rule="evenodd" sketch:type="MSPage">
        <g id="wordmark-small" sketch:type="MSArtboardGroup" fill="#666666">
            <path d="M17.8242819,8.92761394 C17.8242819,10.2788271 17.6008064,11.5133992 17.1538485,12.6313673 C16.7068906,13.7493353 16.0865533,14.7064303 15.2928178,15.502681 C14.4990823,16.2989316 13.5550906,16.9142069 12.4608145,17.3485255 C11.3665383,17.782844 10.179806,18 8.90058177,18 C7.62135756,18 6.43847822,17.782844 5.35190826,17.3485255 C4.2653383,16.9142069 3.32519967,16.2989316 2.53146416,15.502681 C1.73772866,14.7064303 1.11739129,13.7493353 0.670433432,12.6313673 C0.223475576,11.5133992 0,10.2788271 0,8.92761394 C0,7.56031488 0.223475576,6.32574277 0.670433432,5.22386059 C1.11739129,4.1219784 1.73772866,3.18499046 2.53146416,2.41286863 C3.32519967,1.64074681 4.2653383,1.0455785 5.35190826,0.627345845 C6.43847822,0.20911319 7.62135756,3.72705713e-15 8.90058177,0 C10.179806,3.72705713e-15 11.3665383,0.20911319 12.4608145,0.627345845 C13.5550906,1.0455785 14.4990823,1.64074681 15.2928178,2.41286863 C16.0865533,3.18499046 16.7068906,4.1219784 17.1538485,5.22386059 C17.6008064,6.32574277 17.8242819,7.56031488 17.8242819,8.92761394 Z M13.5936158,8.92761394 C13.5936158,8.18766386 13.478025,7.49598177 13.2468399,6.85254692 C13.0156548,6.20911206 12.6958535,5.65817924 12.2874265,5.1997319 C11.8789995,4.74128457 11.385812,4.3793579 10.8078493,4.11394102 C10.2298865,3.84852414 9.59413706,3.71581769 8.90058177,3.71581769 C8.20702647,3.71581769 7.57513002,3.84852414 7.00487344,4.11394102 C6.43461687,4.3793579 5.94142939,4.74128457 5.52529621,5.1997319 C5.10916304,5.65817924 4.78936178,6.20911206 4.56588285,6.85254692 C4.34240393,7.49598177 4.23066614,8.18766386 4.23066614,8.92761394 C4.23066614,9.69973576 4.34625695,10.4115249 4.57744205,11.0630027 C4.80862715,11.7144805 5.1284284,12.2734561 5.53685541,12.7399464 C5.94528242,13.2064366 6.43461687,13.5723847 7.00487344,13.8378016 C7.57513002,14.1032185 8.20702647,14.2359249 8.90058177,14.2359249 C9.59413706,14.2359249 10.2260335,14.1032185 10.7962901,13.8378016 C11.3665467,13.5723847 11.8597341,13.2064366 12.2758673,12.7399464 C12.6920005,12.2734561 13.0156548,11.7144805 13.2468399,11.0630027 C13.478025,10.4115249 13.5936158,9.69973576 13.5936158,8.92761394 Z M31.0932351,4.89812332 C30.7541636,4.44771893 30.3110655,4.08981366 29.7639274,3.82439678 C29.2167893,3.55897991 28.6889246,3.42627346 28.1803174,3.42627346 C27.9183076,3.42627346 27.6524487,3.4504019 27.3827328,3.49865952 C27.1130168,3.54691713 26.8702761,3.6394095 26.6545034,3.77613941 C26.4387306,3.91286932 26.2576383,4.08981125 26.1112211,4.30697051 C25.9648039,4.52412977 25.8915964,4.80160689 25.8915964,5.13941019 C25.8915964,5.42895587 25.9493918,5.67024032 26.0649843,5.86327078 C26.1805769,6.05630123 26.3501101,6.22520035 26.573589,6.36997319 C26.7970679,6.51474603 27.0629268,6.64745248 27.3711736,6.76809651 C27.6794204,6.88874055 28.0261928,7.01340418 28.4115013,7.14209115 C28.9663456,7.33512161 29.5442996,7.54825621 30.1453809,7.78150134 C30.7464621,8.01474647 31.293592,8.32439485 31.7867869,8.71045576 C32.2799818,9.09651668 32.6884026,9.57506417 33.0120618,10.1461126 C33.3357209,10.717161 33.497548,11.4289502 33.497548,12.2815013 C33.497548,13.2627395 33.3241618,14.1112565 32.9773842,14.8270777 C32.6306065,15.542899 32.1643902,16.1340459 31.5787213,16.6005362 C30.9930524,17.0670265 30.3226257,17.4128675 29.567421,17.6380697 C28.8122164,17.8632719 28.0339049,17.9758713 27.2324632,17.9758713 C26.0611254,17.9758713 24.9283354,17.7627367 23.8340593,17.3364611 C22.7397831,16.9101855 21.8304687,16.302953 21.1060888,15.5147453 L23.6953489,12.7640751 C24.0960697,13.2788229 24.6239345,13.7091136 25.2789589,14.0549598 C25.9339834,14.400806 26.5851449,14.5737265 27.2324632,14.5737265 C27.5252977,14.5737265 27.8104217,14.5415553 28.0878438,14.4772118 C28.3652659,14.4128683 28.6080066,14.3083117 28.8160732,14.1635389 C29.0241398,14.018766 29.18982,13.8257385 29.3131187,13.5844504 C29.4364174,13.3431623 29.4980659,13.053621 29.4980659,12.7158177 C29.4980659,12.3941003 29.4210053,12.1206446 29.2668819,11.8954424 C29.1127585,11.6702402 28.893136,11.4651484 28.6080077,11.2801609 C28.3228794,11.0951733 27.9684009,10.9262742 27.5445615,10.7734584 C27.1207222,10.6206427 26.6390938,10.455765 26.0996619,10.2788204 C25.5756423,10.1018758 25.0631897,9.8927626 24.5622887,9.65147453 C24.0613876,9.41018646 23.6144365,9.10053808 23.2214218,8.72252011 C22.8284072,8.34450213 22.5124589,7.88606168 22.2735677,7.34718499 C22.0346764,6.8083083 21.9152326,6.15281887 21.9152326,5.38069705 C21.9152326,4.43163064 22.1001779,3.61930633 22.470074,2.94369973 C22.8399702,2.26809314 23.3254516,1.7131389 23.9265329,1.27882038 C24.5276141,0.84450185 25.2057469,0.526810657 25.9609515,0.325737265 C26.7161562,0.124663874 27.4790556,0.0241286863 28.2496726,0.0241286863 C29.174413,0.0241286863 30.1184046,0.201070617 31.0816759,0.554959786 C32.0449471,0.908848954 32.88876,1.43163193 33.61314,2.1233244 L31.0932351,4.89812332 Z M38.1202217,17.541555 L38.1202217,0.45844504 L42.0965855,0.45844504 L42.0965855,13.9463807 L48.4310256,13.9463807 L48.4310256,17.541555 L38.1202217,17.541555 Z M66,15.1769437 C65.27562,16.0455808 64.3817177,16.7332414 63.3182663,17.2399464 C62.2548148,17.7466513 61.0295522,18 59.6424416,18 C58.3786297,18 57.2111625,17.782844 56.1400049,17.3485255 C55.0688473,16.9142069 54.1402677,16.2989316 53.3542384,15.502681 C52.568209,14.7064303 51.9517247,13.7533568 51.5047668,12.6434316 C51.057809,11.5335065 50.8343334,10.3109986 50.8343334,8.97587131 C50.8343334,7.60857225 51.061662,6.36997874 51.516326,5.26005362 C51.9709901,4.1501285 52.5990335,3.20509773 53.4004752,2.42493298 C54.2019168,1.64476822 55.1420555,1.0455785 56.2209193,0.627345845 C57.299783,0.20911319 58.4633972,3.72705713e-15 59.7117968,0 C60.8677223,3.72705713e-15 62.0043653,0.213134598 63.1217599,0.639410188 C64.2391546,1.06568578 65.1446159,1.68900394 65.8381712,2.50938338 L63.1564375,5.30831099 C62.7865414,4.77747724 62.3010599,4.3833793 61.6999787,4.12600536 C61.0988974,3.86863142 60.4824131,3.73994638 59.8505071,3.73994638 C59.1569518,3.73994638 58.5212024,3.87265283 57.9432396,4.13806971 C57.3652769,4.40348658 56.8682364,4.76943466 56.4521032,5.23592493 C56.03597,5.7024152 55.7123157,6.25334803 55.4811306,6.88873995 C55.2499455,7.52413186 55.1343547,8.21983536 55.1343547,8.97587131 C55.1343547,9.74799314 55.2499455,10.4557609 55.4811306,11.0991957 C55.7123157,11.7426306 56.032117,12.2935634 56.440544,12.7520107 C56.848971,13.2104581 57.3383055,13.5683633 57.908562,13.8257373 C58.4788186,14.0831112 59.103009,14.2117962 59.781152,14.2117962 C60.5671813,14.2117962 61.2530201,14.0509399 61.838689,13.7292225 C62.424358,13.4075051 62.8944273,12.9892787 63.2489111,12.4745308 L66,15.1769437 Z" id="OSLC" sketch:type="MSShapeGroup"></path>
        </g>
    </g>
</svg>