<?xml version="1.0" encoding="UTF-8" standalone="no"?>
<svg width="250px" height="209px" viewBox="0 0 250 209" version="1.1" xmlns="http://www.w3.org/2000/svg" xmlns:xlink="http://www.w3.org/1999/xlink" xmlns:sketch="http://www.bohemiancoding.com/sketch/ns">
    <title>logo-med</title>
    <description>Created with Sketch (http://www.bohemiancoding.com/sketch)</description>
    <defs></defs>
    <g id="Page-1" stroke="none" stroke-width="1" fill="none" fill-rule="evenodd" sketch:type="MSPage">
        <g id="logo-med" sketch:type="MSArtboardGroup">
            <g id="Major-6th-oval" sketch:type="MSLayerGroup">
                <path d="M125,209 C182.437617,209 229,162.213759 229,104.5 C229,46.7862408 182.437617,0 125,0 C67.5623832,0 21,46.7862408 21,104.5 C21,162.213759 67.5623832,209 125,209 Z M125.5,168 C160.017799,168 188,139.793941 188,105 C188,70.206059 160.017799,42 125.5,42 C90.9822014,42 63,70.206059 63,105 C63,139.793941 90.9822014,168 125.5,168 Z" id="Oval-3" fill="#53C2D2" sketch:type="MSShapeGroup"></path>
                <rect id="Rectangle-2" fill="#53C2D2" sketch:type="MSShapeGroup" x="0" y="0" width="250" height="42"></rect>
                <path d="M125,42 L207.992461,42 C207.994974,42.0033604 178.212862,72 178.212862,72 C167.239481,54.0033743 147.512032,42 125,42 Z" id="Shadow" fill-opacity="0.12" fill="#000000" sketch:type="MSShapeGroup"></path>
                <path d="M39,42 C53.9953902,21.0365543 76.25072,5.76904511 102.019259,0 L125,0 C91.1151241,0 61.0258115,16.4927359 42.100538,42 L39,42 Z" id="10px-highlight" fill-opacity="0.45" fill="#FFFFFF" sketch:type="MSShapeGroup"></path>
            </g>
        </g>
    </g>
</svg>