<?xml version="1.0" encoding="UTF-8" standalone="no"?>
<svg width="58px" height="48px" viewBox="0 0 58 48" version="1.1" xmlns="http://www.w3.org/2000/svg" xmlns:xlink="http://www.w3.org/1999/xlink" xmlns:sketch="http://www.bohemiancoding.com/sketch/ns">
    <title>logo-small</title>
    <description>Created with Sketch (http://www.bohemiancoding.com/sketch)</description>
    <defs></defs>
    <g id="Page-1" stroke="none" stroke-width="1" fill="none" fill-rule="evenodd" sketch:type="MSPage">
        <g id="logo-small" sketch:type="MSArtboardGroup">
            <g id="Major-6th-oval" sketch:type="MSLayerGroup">
                <path d="M29,48 C42.2548347,48 53,37.2548347 53,24 C53,10.7451653 42.2548347,0 29,0 C15.7451653,0 5,10.7451653 5,24 C5,37.2548347 15.7451653,48 29,48 Z M29.5,39 C37.5081293,39 44,32.5081293 44,24.5 C44,16.4918707 37.5081293,10 29.5,10 C21.4918707,10 15,16.4918707 15,24.5 C15,32.5081293 21.4918707,39 29.5,39 Z" id="Oval-3" fill="#53C2D2" sketch:type="MSShapeGroup"></path>
                <rect id="Rectangle-2" fill="#53C2D2" sketch:type="MSShapeGroup" x="0" y="0" width="58" height="10"></rect>
                <path d="M29,10 L47.9982742,10 C47.9988495,10.0007841 41.1812575,17 41.1812575,17 C38.6692788,12.8007873 34.1533568,10 29,10 Z" id="Shadow" fill-opacity="0.12" fill="#000000" sketch:type="MSShapeGroup"></path>
                <path d="M9,10 C12.2060026,5.21302575 16.8995742,1.62657261 22.3652219,0 L29,0 C21.2850267,0 14.4342345,3.92684188 10.125292,10 L9,10 Z" id="16px-highlight" fill-opacity="0.45" fill="#FFFFFF" sketch:type="MSShapeGroup"></path>
            </g>
        </g>
    </g>
</svg>