<?xml version="1.0" encoding="UTF-8" standalone="no"?>
<svg width="250px" height="208px" viewBox="0 0 250 208" version="1.1" xmlns="http://www.w3.org/2000/svg" xmlns:xlink="http://www.w3.org/1999/xlink" xmlns:sketch="http://www.bohemiancoding.com/sketch/ns">
    <title>logo-med</title>
    <description>Created with Sketch (http://www.bohemiancoding.com/sketch)</description>
    <defs></defs>
    <g id="Page-1" stroke="none" stroke-width="1" fill="none" fill-rule="evenodd" sketch:type="MSPage">
        <g id="logo-med" sketch:type="MSArtboardGroup">
            <rect id="Rectangle-2" fill="#54BCD2" sketch:type="MSShapeGroup" x="0" y="0" width="250" height="41.5"></rect>
            <path d="M125,208 C182.437617,208 229,161.437617 229,104 C229,46.5623832 182.437617,0 125,0 C67.5623832,0 21,46.5623832 21,104 C21,161.437617 67.5623832,208 125,208 Z M125,166.5 C159.517799,166.5 187.5,138.517799 187.5,104 C187.5,69.4822014 159.517799,41.5 125,41.5 C90.4822014,41.5 62.5,69.4822014 62.5,104 C62.5,138.517799 90.4822014,166.5 125,166.5 Z" id="Oval-3" fill="#54BCD2" sketch:type="MSShapeGroup"></path>
            <path d="M125,41.5 L208.192443,41.5 C208.194962,41.503338 178.341086,71.3 178.341086,71.3 C167.341263,53.4233519 147.566278,41.5 125,41.5 Z" id="Shadow" fill-opacity="0.12" fill="#000000" sketch:type="MSShapeGroup"></path>
            <path d="M38.4000015,42 C53.3953918,21.0365543 75.6507216,5.76904511 101.41926,0 L124.400002,0 C90.5151256,0 60.4258131,16.4927359 41.5005395,42 L38.4000015,42 Z" id="10px-highlight" fill-opacity="0.45" fill="#FFFFFF" sketch:type="MSShapeGroup"></path>
        </g>
    </g>
</svg>