<?xml version="1.0" encoding="UTF-8" standalone="no"?>
<svg width="114px" height="29px" viewBox="0 0 114 29" version="1.1" xmlns="http://www.w3.org/2000/svg" xmlns:xlink="http://www.w3.org/1999/xlink" xmlns:sketch="http://www.bohemiancoding.com/sketch/ns">
    <title>wordmark-med</title>
    <description>Created with Sketch (http://www.bohemiancoding.com/sketch)</description>
    <defs></defs>
    <g id="Page-1" stroke="none" stroke-width="1" fill="none" fill-rule="evenodd" sketch:type="MSPage">
        <g id="wordmark-med" sketch:type="MSArtboardGroup" fill="#666666">
            <path d="M29.4084105,14.383378 C29.4084105,16.5603326 29.0396966,18.5493654 28.3022576,20.3505362 C27.5648186,22.151707 26.5413195,23.6936933 25.2317297,24.9765416 C23.9221398,26.2593898 22.3646412,27.2506667 20.5591871,27.9504021 C18.7537331,28.6501375 16.7957349,29 14.6851337,29 C12.5745325,29 10.6228914,28.6501375 8.8301518,27.9504021 C7.03741223,27.2506667 5.48627077,26.2593898 4.17668087,24.9765416 C2.86709098,23.6936933 1.8435919,22.151707 1.10615293,20.3505362 C0.368713954,18.5493654 0,16.5603326 0,14.383378 C0,12.1805073 0.368713954,10.1914745 1.10615293,8.41621984 C1.8435919,6.64096521 2.86709098,5.13137351 4.17668087,3.88739946 C5.48627077,2.64342542 7.03741223,1.68454314 8.8301518,1.01072386 C10.6228914,0.336904584 12.5745325,-2.13162821e-14 14.6851337,-2.13162821e-14 C16.7957349,-2.13162821e-14 18.7537331,0.336904584 20.5591871,1.01072386 C22.3646412,1.68454314 23.9221398,2.64342542 25.2317297,3.88739946 C26.5413195,5.13137351 27.5648186,6.64096521 28.3022576,8.41621984 C29.0396966,10.1914745 29.4084105,12.1805073 29.4084105,14.383378 Z M22.4282041,14.383378 C22.4282041,13.1912362 22.23749,12.0768595 21.8560561,11.0402145 C21.4746221,10.0035694 20.9469797,9.11595544 20.2731131,8.37734584 C19.5992464,7.63873625 18.7855329,7.05563216 17.831948,6.62801609 C16.8783631,6.20040001 15.8294355,5.98659517 14.6851337,5.98659517 C13.5408318,5.98659517 12.4982613,6.20040001 11.5573909,6.62801609 C10.6165205,7.05563216 9.80280694,7.63873625 9.11622583,8.37734584 C8.42964472,9.11595544 7.90200234,10.0035694 7.53328285,11.0402145 C7.16456337,12.0768595 6.98020639,13.1912362 6.98020639,14.383378 C6.98020639,15.6273521 7.1709205,16.7741234 7.55235445,17.8237265 C7.9337884,18.8733296 8.46143079,19.7739015 9.13529743,20.5254692 C9.80916408,21.2770368 10.6165205,21.8666198 11.5573909,22.2942359 C12.4982613,22.721852 13.5408318,22.9356568 14.6851337,22.9356568 C15.8294355,22.9356568 16.872006,22.721852 17.8128764,22.2942359 C18.7537468,21.8666198 19.5674604,21.2770368 20.2540415,20.5254692 C20.9406226,19.7739015 21.4746221,18.8733296 21.8560561,17.8237265 C22.23749,16.7741234 22.4282041,15.6273521 22.4282041,14.383378 Z M53.0029937,7.89142091 C52.4435572,7.16576938 51.7124865,6.58914423 50.8097594,6.16152815 C49.9070324,5.73391207 49.0361046,5.52010724 48.19695,5.52010724 C47.7646581,5.52010724 47.3260157,5.55898084 46.8810094,5.63672922 C46.4360031,5.7144776 46.0355035,5.86349309 45.6794985,6.08378016 C45.3234934,6.30406723 45.024708,6.58914034 44.7831332,6.93900804 C44.5415583,7.28887574 44.4207727,7.73592221 44.4207727,8.28016086 C44.4207727,8.74665113 44.5161298,9.13538718 44.7068468,9.4463807 C44.8975637,9.75737421 45.1772778,10.0294895 45.5459973,10.2627346 C45.9147167,10.4959797 46.3533592,10.7097846 46.8619378,10.9041555 C47.3705164,11.0985264 47.9426587,11.2993734 48.578382,11.5067024 C49.4938235,11.8176959 50.447394,12.1610794 51.4391223,12.5368633 C52.4308506,12.9126471 53.3335641,13.411525 54.1472898,14.0335121 C54.9610156,14.6554991 55.6348721,15.4264923 56.1688797,16.3465147 C56.7028872,17.2665372 56.9698869,18.4133086 56.9698869,19.7868633 C56.9698869,21.367747 56.6838158,22.7348021 56.1116648,23.8880697 C55.5395139,25.0413373 54.7703003,25.9937407 53.804001,26.7453083 C52.8377016,27.496876 51.7315598,28.0540643 50.4855422,28.4168901 C49.2395246,28.7797158 47.9553829,28.961126 46.6330786,28.961126 C44.7004799,28.961126 42.8314816,28.6177425 41.0260275,27.9309651 C39.2205735,27.2441878 37.7202891,26.2658687 36.5251294,24.9959786 L40.7971683,20.5643432 C41.4583205,21.3936592 42.3292483,22.0869052 43.4099778,22.6441019 C44.4907073,23.2012986 45.5650635,23.4798928 46.6330786,23.4798928 C47.1162282,23.4798928 47.5866564,23.4280613 48.0443771,23.3243968 C48.5020979,23.2207323 48.9025975,23.05228 49.2458881,22.8190349 C49.5891786,22.5857897 49.8625355,22.2748009 50.065967,21.886059 C50.2693984,21.4973171 50.3711126,21.0308338 50.3711126,20.4865952 C50.3711126,19.9682727 50.2439699,19.5277051 49.9896806,19.1648794 C49.7353913,18.8020536 49.3730344,18.4716279 48.9025992,18.1735925 C48.432164,17.875557 47.8473074,17.6034418 47.1480118,17.3572386 C46.4487163,17.1110354 45.6540741,16.8453991 44.7640616,16.5603217 C43.8994779,16.2752443 43.0539787,15.9383397 42.2275385,15.5495979 C41.4010983,15.160856 40.6636703,14.661978 40.0152326,14.0529491 C39.3667949,13.4439201 38.8455097,12.7053216 38.4513613,11.8371314 C38.0572128,10.9689411 37.8601416,9.91287485 37.8601416,8.6689008 C37.8601416,7.13984937 38.1652842,5.83110464 38.7755785,4.74262735 C39.3858728,3.65415005 40.1868721,2.76005712 41.1786004,2.06032172 C42.1703286,1.36058631 43.2891848,0.848750503 44.5352023,0.524798928 C45.7812199,0.200847353 47.0399331,0.0388739946 48.3113796,0.0388739946 C49.8371154,0.0388739946 51.394614,0.323947105 52.9839221,0.894101877 C54.5732302,1.46425665 55.9654433,2.30651811 57.160603,3.42091153 L53.0029937,7.89142091 Z M66.2989117,28.2613941 L66.2989117,0.738605898 L72.8595428,0.738605898 L72.8595428,22.4691689 L83.3107808,22.4691689 L83.3107808,28.2613941 L66.2989117,28.2613941 Z M114,24.4517426 C112.80484,25.8512134 111.329984,26.9591112 109.575388,27.7754692 C107.820792,28.5918271 105.799223,29 103.510619,29 C101.425447,29 99.499234,28.6501375 97.7319234,27.9504021 C95.9646127,27.2506667 94.4325427,26.2593898 93.1356672,24.9765416 C91.8387918,23.6936933 90.8216499,22.1581859 90.0842109,20.3699732 C89.3467719,18.5817605 88.978058,16.6121645 88.978058,14.461126 C88.978058,12.2582553 89.3531291,10.2627435 90.1032825,8.47453083 C90.8534359,6.68631814 91.8896493,5.16376857 93.2119537,3.90683646 C94.534258,2.64990435 96.0853995,1.68454314 97.8654246,1.01072386 C99.6454497,0.336904584 101.565305,-2.13162821e-14 103.625048,-2.13162821e-14 C105.532218,-2.13162821e-14 107.407574,0.343383519 109.251171,1.03016086 C111.094768,1.7169382 112.588696,2.72117302 113.732998,4.04289544 L109.308386,8.55227882 C108.698092,7.69704666 107.897092,7.0621111 106.905364,6.64745308 C105.913636,6.23279507 104.896494,6.02546917 103.853908,6.02546917 C102.709606,6.02546917 101.660678,6.239274 100.707093,6.66689008 C99.7535084,7.09450616 98.9334377,7.68408918 98.2468566,8.43565684 C97.5602755,9.18722449 97.026276,10.0748385 96.644842,11.0985255 C96.2634081,12.1222124 96.072694,13.2430681 96.072694,14.461126 C96.072694,15.7051001 96.2634081,16.8453925 96.644842,17.8820375 C97.026276,18.9186826 97.5539184,19.8062966 98.227785,20.5449062 C98.9016517,21.2835158 99.7090081,21.8601409 100.649878,22.2747989 C101.590749,22.6894569 102.620605,22.8967828 103.739478,22.8967828 C105.036353,22.8967828 106.167924,22.6376255 107.134223,22.1193029 C108.100523,21.6009804 108.876093,20.9271713 109.460959,20.0978552 L114,24.4517426 Z" id="OSLC" sketch:type="MSShapeGroup"></path>
        </g>
    </g>
</svg>