<?xml version="1.0" encoding="UTF-8" standalone="no"?>
<svg width="20px" height="20px" viewBox="0 0 20 20" version="1.1" xmlns="http://www.w3.org/2000/svg" xmlns:xlink="http://www.w3.org/1999/xlink" xmlns:sketch="http://www.bohemiancoding.com/sketch/ns">
    <title>action-outgoing</title>
    <description>Created with Sketch (http://www.bohemiancoding.com/sketch)</description>
    <defs></defs>
    <g id="Page-1" stroke="none" stroke-width="1" fill="none" fill-rule="evenodd" sketch:type="MSPage">
        <g id="action-outgoing" sketch:type="MSArtboardGroup" fill="#009DD4">
            <path d="M7.5,1.25 L18.75,10.013125 L7.5,18.775 L8.75,12.513125 L1.25,12.513125 L1.25,7.513125 L8.75,7.513125 L7.5,1.25 M7.5,0 C7.273125,0 7.045,0.061875 6.843125,0.18625 C6.39875,0.460625 6.171875,0.9825 6.274375,1.495 L7.22625,6.2625 L1.25,6.2625 C0.56,6.2625 0,6.821875 0,7.5125 L0,12.5125 C0,13.2025 0.56,13.7625 1.25,13.7625 L7.22625,13.7625 L6.274375,18.529375 C6.171875,19.04125 6.39875,19.563125 6.843125,19.838125 C7.045,19.9625 7.273125,20.024375 7.5,20.024375 C7.7725,20.024375 8.043125,19.935625 8.268125,19.760625 L19.518125,10.998125 C19.8225,10.761875 20,10.398125 20,10.013125 C20,9.62625 19.8225,9.2625 19.518125,9.025625 L8.268125,0.26375 C8.043125,0.09 7.7725,0 7.5,0" id="Shape" sketch:type="MSShapeGroup"></path>
        </g>
    </g>
</svg>