<?xml version="1.0" encoding="UTF-8" standalone="no"?>
<svg width="20px" height="20px" viewBox="0 0 20 20" version="1.1" xmlns="http://www.w3.org/2000/svg" xmlns:xlink="http://www.w3.org/1999/xlink" xmlns:sketch="http://www.bohemiancoding.com/sketch/ns">
    <title>action-outgoing</title>
    <description>Created with Sketch (http://www.bohemiancoding.com/sketch)</description>
    <defs></defs>
    <g id="Page-1" stroke="none" stroke-width="1" fill="none" fill-rule="evenodd" sketch:type="MSPage">
        <g id="action-outgoing" sketch:type="MSArtboardGroup" fill="#009DD4">
            <path d="M13.125,1.25 L18.75,5.9375 L13.125,10.625 L13.125,7.5 L8.4375,7.5 C6.1975,7.5 4.375,9.3225 4.375,11.5625 C4.375,13.8025 6.1975,15.625 8.4375,15.625 C8.54375,15.625 8.6475,15.616875 8.75,15.609375 L8.75,18.734375 C8.64625,18.738125 8.54375,18.75 8.4375,18.75 C4.4675,18.75 1.25,15.5325 1.25,11.5625 C1.25,7.5925 4.4675,4.375 8.4375,4.375 L13.125,4.375 L13.125,1.25 M13.125,0 C12.945625,0 12.765,0.03875 12.595,0.1175 C12.155625,0.32375 11.875,0.765 11.875,1.25 L11.875,3.125 L8.4375,3.125 C3.785625,3.125 0,6.91 0,11.5625 C0,16.215 3.785625,20 8.4375,20 C8.53125,20 8.623125,19.994375 8.715625,19.988125 L8.80125,19.9825 C9.47125,19.955625 10,19.404375 10,18.734375 L10,15.609375 C10,15.26125 9.855,14.92875 9.599375,14.691875 C9.3675,14.4775 9.06375,14.359375 8.75,14.359375 C8.718125,14.359375 8.68625,14.360625 8.655,14.363125 C8.5825,14.368125 8.510625,14.375 8.4375,14.375 C6.8875,14.375 5.625,13.113125 5.625,11.5625 C5.625,10.011875 6.8875,8.75 8.4375,8.75 L11.875,8.75 L11.875,10.625 C11.875,11.11 12.155625,11.55125 12.595,11.7575 C12.765,11.835625 12.945625,11.875 13.125,11.875 C13.411875,11.875 13.69625,11.77625 13.925625,11.585 L19.550625,6.8975 C19.835,6.66 20,6.30875 20,5.9375 C20,5.56625 19.835,5.215 19.550625,4.9775 L13.925625,0.29 C13.69625,0.09875 13.411875,0 13.125,0" id="Shape" sketch:type="MSShapeGroup"></path>
        </g>
    </g>
</svg>