<?xml version="1.0" encoding="UTF-8" standalone="no"?>
<svg width="20px" height="20px" viewBox="0 0 20 20" version="1.1" xmlns="http://www.w3.org/2000/svg" xmlns:xlink="http://www.w3.org/1999/xlink" xmlns:sketch="http://www.bohemiancoding.com/sketch/ns">
    <title>channel-tools</title>
    <description>Created with Sketch (http://www.bohemiancoding.com/sketch)</description>
    <defs></defs>
    <g id="Page-1" stroke="none" stroke-width="1" fill="none" fill-rule="evenodd" sketch:type="MSPage">
        <g id="channel-tools" sketch:type="MSArtboardGroup" fill="#FFFFFF">
            <path d="M18.978125,10.60375 L18.766875,6.545625 L19.576875,5.101875 C19.708125,4.868125 19.760625,4.598125 19.726875,4.331875 L19.31375,1.091875 C19.23375,0.468125 18.703125,0 18.07375,0 L15.66125,0 C15.031875,0 14.50125,0.4675 14.421875,1.09125 L14.375,1.451875 L14.375,1.25 C14.375,0.559375 13.815,0 13.125,0 L5.185,0 C4.789375,0 4.789375,0 2.499375,1.60375 L0.533125,2.981875 C0.19875,3.21625 0,3.598125 0,4.005625 L0,6.25 C0,6.94 0.56,7.5 1.25,7.5 L4.375,7.5 L4.375,16.866875 C4.375,18.59375 5.77625,19.99875 7.49875,20 C8.348125,20 9.1975,19.656875 9.770625,19.081875 C10.320625,18.5325 10.625,17.7375 10.625,16.845 L10.625,7.5 L13.125,7.5 C13.815,7.5 14.375,6.94 14.375,6.25 L14.375,5.485 L14.981875,6.54875 L14.7575,10.6075 C14.72375,10.63875 14.69125,10.670625 14.658125,10.703125 C14.073125,11.289375 13.75,12.07625 13.75,12.916875 L13.75,16.866875 C13.75,18.59375 15.151875,19.99875 16.875,20 C17.71125,20 18.496875,19.674375 19.086875,19.0825 C19.675,18.494375 20,17.7075 20,16.868125 L20,12.918125 C19.999375,12.024375 19.620625,11.18875 18.978125,10.60375 L18.978125,10.60375 Z M8.885,18.199375 C8.545625,18.54 8.019375,18.75 7.499375,18.75 C6.459375,18.749375 5.625,17.90625 5.625,16.866875 L5.625,6.875 L9.375,6.875 L9.375,16.845 C9.375,17.36375 9.226875,17.858125 8.885,18.199375 L8.885,18.199375 Z M13.125,6.25 L10,6.25 L9.375,6.25 L5.625,6.25 L5,6.25 L1.25,6.25 L1.25,4.005625 C1.25,4.005625 5.183125,1.25 5.185,1.25 L13.125,1.25 L13.125,6.25 L13.125,6.25 Z M15.66125,1.25 L18.07375,1.25 L18.486875,4.49 L17.5,6.25 L17.7275,10.625 L16.0075,10.625 L16.25,6.25 L15.246875,4.49 L15.66125,1.25 L15.66125,1.25 Z M18.75,16.868125 C18.75,17.386875 18.54375,17.858125 18.2025,18.199375 C17.8625,18.54 17.394375,18.75 16.875625,18.75 C15.835625,18.749375 15,17.90625 15,16.866875 L15,12.916875 C15,12.398125 15.203125,11.926875 15.54375,11.585625 C15.671875,11.456875 15.81125,11.3475 15.973125,11.26 L15.97375,11.25 L17.76,11.25 L17.760625,11.26125 C18.34875,11.579375 18.749375,12.20125 18.749375,12.918125 L18.75,12.918125 L18.75,16.868125 L18.75,16.868125 Z" id="Shape" sketch:type="MSShapeGroup"></path>
        </g>
    </g>
</svg>