<?xml version="1.0" encoding="UTF-8" standalone="no"?>
<svg width="20px" height="20px" viewBox="0 0 20 20" version="1.1" xmlns="http://www.w3.org/2000/svg" xmlns:xlink="http://www.w3.org/1999/xlink" xmlns:sketch="http://www.bohemiancoding.com/sketch/ns">
    <title>channel-presentations</title>
    <description>Created with Sketch (http://www.bohemiancoding.com/sketch)</description>
    <defs></defs>
    <g id="Page-1" stroke="none" stroke-width="1" fill="none" fill-rule="evenodd" sketch:type="MSPage">
        <g id="channel-presentations" sketch:type="MSArtboardGroup" fill="#FFFFFF">
            <g id="Shape-+-Shape" sketch:type="MSLayerGroup">
                <path d="M8.566875,8.38375 L11.066875,10.88375 L14.32125,7.629375 L15.441875,8.75 L15.441875,5.625 L12.316875,5.625 L13.410625,6.70625 L13.44375,6.740625 L11.066875,9.11625 L8.566875,6.61625 L4.375,10.808125 L5.25875,11.691875 L8.566875,8.38375 Z" id="Shape" sketch:type="MSShapeGroup"></path>
                <path d="M18.75,1.875 L11.875,1.875 C11.875,0.84125 11.03375,0 10,0 C8.96625,0 8.125,0.84125 8.125,1.875 L1.25,1.875 C0.559375,1.875 0,2.435 0,3.125 L0,14.375 C0,15.065625 0.559375,15.625 1.25,15.625 L4.4325,15.625 L3.51,17.159375 C2.97875,18.046875 3.266875,19.199375 4.15125,19.7325 C4.44375,19.90875 4.7775,20 5.116875,20 C5.771875,20 6.388125,19.651875 6.725,19.090625 L8.806875,15.625 L11.310625,15.625 L13.3925,19.090625 C13.729375,19.651875 14.345625,20 15.000625,20 C15.33875,20 15.67125,19.90875 15.9625,19.735 C16.8525,19.198125 17.139375,18.044375 16.606875,17.159375 L15.685625,15.625 L18.75,15.625 C19.44,15.625 20,15.065625 20,14.375 L20,3.125 C20,2.435 19.44,1.875 18.75,1.875 L18.75,1.875 Z M9.375,1.875 C9.375,1.530625 9.654375,1.25 10,1.25 C10.345625,1.25 10.625,1.530625 10.625,1.875 L10.625,2.5 L9.375,2.5 L9.375,1.875 L9.375,1.875 Z M5.653125,18.4475 C5.535625,18.6425 5.32875,18.75 5.116875,18.75 C5.0075,18.75 4.89625,18.721875 4.795625,18.660625 C4.499375,18.4825 4.404375,18.099375 4.58125,17.80375 L6.26625,15 L7.72375,15 L5.653125,18.4475 L5.653125,18.4475 Z M15.3225,18.660625 C15.220625,18.721875 15.11,18.75 15.000625,18.75 C14.78875,18.75 14.58125,18.6425 14.464375,18.4475 L12.393125,15 L13.85125,15 L15.535625,17.80375 C15.71375,18.099375 15.6175,18.4825 15.3225,18.660625 L15.3225,18.660625 Z M18.75,14.375 L1.25,14.375 L1.25,3.125 L18.75,3.125 L18.75,14.375 L18.75,14.375 Z" id="Shape" sketch:type="MSShapeGroup"></path>
            </g>
        </g>
    </g>
</svg>