<?xml version="1.0" encoding="UTF-8" standalone="no"?>
<svg width="20px" height="20px" viewBox="0 0 20 20" version="1.1" xmlns="http://www.w3.org/2000/svg" xmlns:xlink="http://www.w3.org/1999/xlink" xmlns:sketch="http://www.bohemiancoding.com/sketch/ns">
    <title>channel-videos</title>
    <description>Created with Sketch (http://www.bohemiancoding.com/sketch)</description>
    <defs></defs>
    <g id="Page-1" stroke="none" stroke-width="1" fill="none" fill-rule="evenodd" sketch:type="MSPage">
        <g id="channel-videos" sketch:type="MSArtboardGroup" fill="#FFFFFF">
            <g id="Shape-+-Shape-+-Shape" sketch:type="MSLayerGroup">
                <path d="M11.5625,2.5 C10.011875,2.5 8.75,3.761875 8.75,5.3125 C8.75,6.863125 10.011875,8.125 11.5625,8.125 C13.113125,8.125 14.375,6.863125 14.375,5.3125 C14.375,3.761875 13.113125,2.5 11.5625,2.5" id="Shape" sketch:type="MSShapeGroup"></path>
                <path d="M4.0625,8.125 C4.924375,8.125 5.625,7.42375 5.625,6.5625 C5.625,5.70125 4.924375,5 4.0625,5 C3.200625,5 2.5,5.70125 2.5,6.5625 C2.5,7.42375 3.200625,8.125 4.0625,8.125" id="Shape" sketch:type="MSShapeGroup"></path>
                <path d="M19.480625,9.610625 C19.265,9.455625 19.00875,9.375 18.75,9.375 C18.616875,9.375 18.48375,9.39625 18.354375,9.439375 L15.47625,10.39875 C15.346875,10.04375 15.13875,9.724375 14.873125,9.464375 C16.0925,8.49 16.875,6.99125 16.875,5.3125 C16.875,2.383125 14.491875,0 11.5625,0 C9.308125,0 7.376875,1.411875 6.606875,3.3975 C5.91,2.83625 5.025,2.5 4.0625,2.5 C1.8225,2.5 0,4.3225 0,6.5625 C0,7.588125 0.381875,8.526875 1.011875,9.2425 C0.398125,9.69875 0,10.42875 0,11.25 L0,17.5 C0,18.87875 1.12125,20 2.5,20 L13.125,20 C14.4125,20 15.475,19.0225 15.610625,17.77125 L18.355,18.68625 C18.48375,18.72875 18.616875,18.75 18.75,18.75 C19.00875,18.75 19.265,18.669375 19.480625,18.514375 C19.806875,18.279375 20,17.901875 20,17.5 L20,10.625 C20,10.223125 19.806875,9.845625 19.480625,9.610625 L19.480625,9.610625 Z M4.0625,3.75 C5.615625,3.75 6.875,5.009375 6.875,6.5625 C6.875,8.115625 5.615625,9.375 4.0625,9.375 C2.509375,9.375 1.25,8.115625 1.25,6.5625 C1.25,5.009375 2.509375,3.75 4.0625,3.75 L4.0625,3.75 Z M14.375,17.5 C14.375,18.19 13.815,18.75 13.125,18.75 L2.5,18.75 C1.81,18.75 1.25,18.19 1.25,17.5 L1.25,11.25 C1.25,10.56 1.81,10 2.5,10 L13.125,10 C13.815,10 14.375,10.56 14.375,11.25 L14.375,17.5 L14.375,17.5 Z M11.5625,9.375 C9.31875,9.375 7.5,7.55625 7.5,5.3125 C7.5,3.06875 9.31875,1.25 11.5625,1.25 C13.80625,1.25 15.625,3.06875 15.625,5.3125 C15.625,7.55625 13.80625,9.375 11.5625,9.375 L11.5625,9.375 Z M18.75,17.5 L15,16.25 L15,11.875 L18.75,10.625 L18.75,17.5 L18.75,17.5 Z" id="Shape" sketch:type="MSShapeGroup"></path>
            </g>
        </g>
    </g>
</svg>