<?xml version="1.0" encoding="UTF-8" standalone="no"?>
<svg width="20px" height="20px" viewBox="0 0 20 20" version="1.1" xmlns="http://www.w3.org/2000/svg" xmlns:xlink="http://www.w3.org/1999/xlink" xmlns:sketch="http://www.bohemiancoding.com/sketch/ns">
    <title>channel-podcasts</title>
    <description>Created with Sketch (http://www.bohemiancoding.com/sketch)</description>
    <defs></defs>
    <g id="Page-1" stroke="none" stroke-width="1" fill="none" fill-rule="evenodd" sketch:type="MSPage">
        <g id="channel-podcasts" sketch:type="MSArtboardGroup" fill="#FFFFFF">
            <path d="M10,1.25 C14.766875,1.25 18.75,5.1625 18.75,9.989375 C18.75,13.5475 16.2525,16.60625 13.75,17.970625 L13.75,16.1525 C15.00125,14.91875 17.121875,12.62 17.121875,9.989375 C17.121875,6.0625 13.81875,2.868125 9.940625,2.868125 C6.0625,2.868125 2.848125,6.0625 2.848125,9.989375 C2.848125,12.619375 4.99875,14.919375 6.25,16.1525 L6.25,17.970625 C3.7475,16.606875 1.25,13.5475 1.25,9.989375 C1.25,5.1625 5.23375,1.25 10,1.25 M10,4.400625 C13.048125,4.400625 15.52,6.9025 15.52,9.989375 C15.52,11.588125 14.843125,13.015625 13.778125,14.0325 C13.560625,13.545 13.229375,13.10125 12.814375,12.7325 C13.495,12.01875 13.92125,11.056875 13.92125,9.989375 C13.92125,7.8 12.1625,6.019375 10.000625,6.019375 C7.83875,6.019375 6.08,7.8 6.08,9.989375 C6.08,11.056875 6.505,12.018125 7.185625,12.73125 C6.770625,13.099375 6.43875,13.543125 6.220625,14.03 C5.156875,13.01375 4.48125,11.586875 4.48125,9.989375 C4.480625,6.9025 6.951875,4.400625 10,4.400625 M10,7.9275 C11.1075,7.9275 12.003125,8.834375 12.003125,9.953125 C12.003125,11.0725 11.1075,11.979375 10,11.979375 C8.896875,11.979375 7.99875,11.0725 7.99875,9.953125 C7.99875,8.834375 8.896875,7.9275 10,7.9275 M9.999375,12.5925 C11.589375,12.5925 13.125,13.8175 13.125,15.328125 L13.125,17.5 L13.125,18.75 L6.875,18.75 L6.875,15.31875 C6.8825,13.745 8.411875,12.5925 9.999375,12.5925 M10,0 C4.48625,0 0,4.48125 0,9.989375 C0,14.13375 2.83875,17.535625 5.651875,19.068125 L5.66875,19.0775 C5.8125,19.60875 6.29875,20 6.875625,20 L13.125,20 C13.7025,20 14.18875,19.60875 14.331875,19.076875 C14.338125,19.07375 14.34375,19.070625 14.34875,19.0675 C17.16125,17.535 20,14.1325 20,9.989375 C20,4.48125 15.51375,0 10,0" id="Shape" sketch:type="MSShapeGroup"></path>
        </g>
    </g>
</svg>