<?xml version="1.0" encoding="UTF-8" standalone="no"?>
<svg width="20px" height="20px" viewBox="0 0 20 20" version="1.1" xmlns="http://www.w3.org/2000/svg" xmlns:xlink="http://www.w3.org/1999/xlink" xmlns:sketch="http://www.bohemiancoding.com/sketch/ns">
    <title>channel-websites</title>
    <description>Created with Sketch (http://www.bohemiancoding.com/sketch)</description>
    <defs></defs>
    <g id="Page-1" stroke="none" stroke-width="1" fill="none" fill-rule="evenodd" sketch:type="MSPage">
        <g id="channel-websites" sketch:type="MSArtboardGroup" fill="#FFFFFF">
            <path d="M17.07125,2.929375 C15.183125,1.040625 12.670625,0 10,0 C7.329375,0 4.818125,1.040625 2.93,2.929375 C1.040625,4.8175 0,7.329375 0,10 C0,12.670625 1.04,15.181875 2.929375,17.070625 C4.818125,18.96 7.329375,20 10,20 C12.671875,20 15.183125,18.96 17.07125,17.070625 C18.959375,15.18125 20,12.67125 20,10 C20,7.329375 18.96,4.8175 17.07125,2.929375 L17.07125,2.929375 Z M18.75,10.00375 L18.75,9.9975 L18.75,10.00375 L18.75,10.00375 Z M18.735625,9.6875 L15.929375,9.6875 C15.880625,7.39375 15.308125,5.1225 14.199375,3.370625 C13.76875,2.69 13.2875,2.1375 12.77625,1.709375 C14.0225,2.125625 15.195625,2.820625 16.188125,3.8125 C17.81625,5.4425 18.659375,7.55375 18.735625,9.6875 L18.735625,9.6875 Z M9.6875,10.3125 L9.6875,18.725 C8.43875,18.601875 7.255625,17.755 6.329375,16.294375 C5.280625,14.639375 4.73875,12.486875 4.690625,10.3125 L9.6875,10.3125 L9.6875,10.3125 Z M4.690625,9.6875 C4.73875,7.51375 5.280625,5.361875 6.329375,3.705 C7.255625,2.244375 8.43875,1.398125 9.6875,1.275 L9.6875,9.6875 L4.690625,9.6875 L4.690625,9.6875 Z M10.3125,10.3125 L15.31,10.3125 C15.2625,12.486875 14.719375,14.639375 13.670625,16.294375 C12.745625,17.756875 11.5625,18.6025 10.3125,18.725 L10.3125,10.3125 L10.3125,10.3125 Z M10.3125,9.6875 L10.3125,1.275 C11.56375,1.3975 12.745625,2.243125 13.670625,3.705625 C14.719375,5.361875 15.26125,7.51375 15.31,9.688125 L10.3125,9.688125 L10.3125,9.6875 Z M3.81375,3.813125 C4.80625,2.820625 5.980625,2.125 7.228125,1.70875 C6.715625,2.136875 6.233125,2.69 5.8025,3.37125 C4.6925,5.123125 4.12125,7.394375 4.0725,9.688125 L1.264375,9.688125 C1.340625,7.55375 2.184375,5.4425 3.81375,3.813125 L3.81375,3.813125 Z M1.25,9.996875 L1.25,10.003125 L1.25,9.996875 L1.25,9.996875 Z M1.264375,10.3125 L4.071875,10.3125 C4.119375,12.60625 4.691875,14.87875 5.801875,16.62875 C6.2325,17.31 6.715,17.863125 7.2275,18.29125 C5.98125,17.875 4.805625,17.18 3.813125,16.186875 C2.184375,14.558125 1.34125,12.44625 1.264375,10.3125 L1.264375,10.3125 Z M16.1875,16.186875 C15.195,17.17875 14.021875,17.87375 12.775625,18.29 C13.286875,17.861875 13.768125,17.309375 14.19875,16.62875 C15.306875,14.878125 15.879375,12.605625 15.92875,10.3125 L18.735,10.3125 C18.659375,12.44625 17.81625,14.558125 16.1875,16.186875 L16.1875,16.186875 Z" id="Shape" sketch:type="MSShapeGroup"></path>
        </g>
    </g>
</svg>