<?xml version="1.0" encoding="UTF-8" standalone="no"?>
<svg width="20px" height="20px" viewBox="0 0 20 20" version="1.1" xmlns="http://www.w3.org/2000/svg" xmlns:xlink="http://www.w3.org/1999/xlink" xmlns:sketch="http://www.bohemiancoding.com/sketch/ns">
    <title>channel-tutorials</title>
    <description>Created with Sketch (http://www.bohemiancoding.com/sketch)</description>
    <defs></defs>
    <g id="Page-1" stroke="none" stroke-width="1" fill="none" fill-rule="evenodd" sketch:type="MSPage">
        <g id="channel-tutorials" sketch:type="MSArtboardGroup" fill="#FFFFFF">
            <path d="M18.6119515,11.541875 C17.8519515,10.781875 16.8894515,10.303125 15.8469515,10.14375 L18.8069515,7.195625 C20.4432015,5.56 20.4432015,2.9 18.8088265,1.265625 C18.0169515,0.473125 16.9644515,0.0375 15.8450765,0.0375 C14.7250765,0.0375 13.6719515,0.473125 12.8800765,1.265625 L9.92195149,4.23625 C9.76445149,3.21125 9.30132649,2.23125 8.53195149,1.461875 C7.58882649,0.519375 6.33570149,0 5.00070149,0 C4.56382649,0 4.12757649,0.0575 3.70632649,0.17 C3.27445149,0.285 2.93695149,0.621875 2.82132649,1.05375 C2.70507649,1.485 2.82757649,1.945 3.14445149,2.26125 L4.96507649,4.081875 L4.81695149,4.81875 L4.08132649,4.96625 L2.26007649,3.145 C2.02257649,2.9075 1.70382649,2.77875 1.37632649,2.77875 C1.26820149,2.77875 1.15882649,2.793125 1.05195149,2.821875 C0.620076489,2.9375 0.283201489,3.275625 0.167576489,3.708125 C-0.289923511,5.429375 0.205076489,7.27875 1.46007649,8.5325 C2.22445149,9.298125 3.19632649,9.77875 4.24757649,9.934375 L1.73695149,12.455625 C1.57570149,12.616875 1.46257649,12.819375 1.40882649,13.04 L0.0725764887,18.489375 C-0.0317985113,18.915 0.0938264887,19.3625 0.402576489,19.671875 C0.639451489,19.909375 0.960076489,20.0375 1.28695149,20.0375 C1.38570149,20.0375 1.48570149,20.025625 1.58445149,20.00125 L7.03257649,18.665625 C7.25320149,18.610625 7.45632649,18.4975 7.61695149,18.338125 L10.1469515,15.81875 C10.3013265,16.850625 10.7657015,17.838125 11.5400765,18.613125 C12.4832015,19.555625 13.7369515,20.075 15.0707015,20.075 C15.5075765,20.075 15.9432015,20.0175 16.3650765,19.905625 C16.7969515,19.789375 17.1344515,19.453125 17.2507015,19.021875 C17.3669515,18.59 17.2432015,18.13 16.9269515,17.813125 L15.1063265,15.9925 L15.2538265,15.255 L15.9900765,15.10875 L17.8107015,16.92875 C18.0482015,17.166875 18.3675765,17.295625 18.6944515,17.295625 C18.8025765,17.295625 18.9119515,17.281875 19.0188265,17.253125 C19.4507015,17.13625 19.7869515,16.79875 19.9025765,16.3675 C20.3625765,14.64625 19.8669515,12.7975 18.6119515,11.541875 L18.6119515,11.541875 Z M13.7638265,2.149375 C14.3388265,1.574375 15.0919515,1.2875 15.8450765,1.2875 C16.5975765,1.2875 17.3500765,1.574375 17.9250765,2.149375 C19.0738265,3.298125 19.0738265,5.161875 17.9250765,6.310625 L17.5757015,6.658125 L13.4157015,2.498125 L13.7638265,2.149375 L13.7638265,2.149375 Z M12.9750765,2.94125 L17.1325765,7.099375 L13.2513265,10.963125 L9.11070149,6.8225 L12.9750765,2.94125 L12.9750765,2.94125 Z M1.28695149,18.7875 L2.52382649,13.740625 L6.33445149,17.550625 L1.28695149,18.7875 L1.28695149,18.7875 Z M6.92757649,17.26 L2.81382649,13.14625 L6.82695149,9.11625 L10.9569515,13.2475 L6.92757649,17.26 L6.92757649,17.26 Z M18.6957015,16.045625 L16.4019515,13.75125 L14.1925765,14.193125 L13.7507015,16.403125 L16.0444515,18.696875 C15.7257015,18.7825 15.3988265,18.824375 15.0713265,18.824375 C14.1132015,18.824375 13.1563265,18.46 12.4244515,17.72875 C11.5700765,16.87375 11.2275765,15.71125 11.3713265,14.599375 C11.4332015,14.1225 11.5750765,13.654375 11.8194515,13.225 L7.26757649,8.6725 L6.84820149,8.253125 C6.41882649,8.4975 5.95070149,8.63875 5.47507649,8.70125 C5.47507649,8.70125 5.14757649,8.74375 4.98945149,8.74375 C4.03195149,8.74375 3.07507649,8.379375 2.34382649,7.648125 C1.36320149,6.6675 1.04320149,5.279375 1.37570149,4.028125 L3.67007649,6.3225 L5.87945149,5.880625 L6.32132649,3.670625 L4.02757649,1.376875 C4.34632649,1.293125 4.67320149,1.25 5.00070149,1.25 C5.95882649,1.25 6.91570149,1.614375 7.64757649,2.345625 C8.49820149,3.19625 8.84070149,4.3525 8.70257649,5.460625 C8.64195149,5.941875 8.50007649,6.415625 8.25320149,6.849375 L8.66945149,7.265625 L12.8082015,11.404375 L13.2244515,11.820625 C13.6582015,11.57375 14.1313265,11.43125 14.6138265,11.37125 C14.6138265,11.37125 14.9294515,11.33 15.0819515,11.33 C16.0394515,11.33 16.9963265,11.695 17.7275765,12.426875 C18.7094515,13.406875 19.0294515,14.794375 18.6957015,16.045625 L18.6957015,16.045625 Z" id="Shape" sketch:type="MSShapeGroup"></path>
        </g>
    </g>
</svg>