<?xml version="1.0" encoding="UTF-8" standalone="no"?>
<svg width="20px" height="20px" viewBox="0 0 20 20" version="1.1" xmlns="http://www.w3.org/2000/svg" xmlns:xlink="http://www.w3.org/1999/xlink" xmlns:sketch="http://www.bohemiancoding.com/sketch/ns">
    <title>channel-whitepapers</title>
    <description>Created with Sketch (http://www.bohemiancoding.com/sketch)</description>
    <defs></defs>
    <g id="Page-1" stroke="none" stroke-width="1" fill="none" fill-rule="evenodd" sketch:type="MSPage">
        <g id="channel-whitepapers" sketch:type="MSArtboardGroup" fill="#FFFFFF">
            <path d="M18.75,18.75 L1.25,18.75 L1.25,1.25 L18.75,1.25 L18.75,18.75 L18.75,18.75 Z M10.00125,3.75 C10.5175,3.75 10.9375,3.330625 10.9375,2.8125 C10.9375,2.295625 10.5175,1.875 10.00125,1.875 C9.48375,1.875 9.0625,2.295625 9.0625,2.8125 C9.0625,3.330625 9.48375,3.75 10.00125,3.75 L10.00125,3.75 Z M10.625,9.375 L16.875,9.375 L16.875,5 L10.625,5 L10.625,9.375 L10.625,9.375 Z M3.125,5.625 L9.375,5.625 L9.375,5 L3.125,5 L3.125,5.625 L3.125,5.625 Z M3.125,7.5 L9.375,7.5 L9.375,6.875 L3.125,6.875 L3.125,7.5 L3.125,7.5 Z M3.125,9.375 L9.375,9.375 L9.375,8.75 L3.125,8.75 L3.125,9.375 L3.125,9.375 Z M3.125,11.25 L16.875,11.25 L16.875,10.625 L3.125,10.625 L3.125,11.25 L3.125,11.25 Z M3.125,13.125 L16.875,13.125 L16.875,12.5 L3.125,12.5 L3.125,13.125 L3.125,13.125 Z M3.125,15 L16.875,15 L16.875,14.375 L3.125,14.375 L3.125,15 L3.125,15 Z M3.125,16.875 L16.875,16.875 L16.875,16.25 L3.125,16.25 L3.125,16.875 L3.125,16.875 Z M18.75,0 L1.25,0 C0.56,0 0,0.56 0,1.25 L0,18.75 C0,19.44 0.56,20 1.25,20 L18.75,20 C19.440625,20 20,19.44 20,18.75 L20,1.25 C20,0.56 19.440625,0 18.75,0 L18.75,0 Z" id="Shape" sketch:type="MSShapeGroup"></path>
        </g>
    </g>
</svg>