<?xml version="1.0" encoding="UTF-8" standalone="no"?>
<svg width="20px" height="20px" viewBox="0 0 20 20" version="1.1" xmlns="http://www.w3.org/2000/svg" xmlns:xlink="http://www.w3.org/1999/xlink" xmlns:sketch="http://www.bohemiancoding.com/sketch/ns">
    <title>js-close</title>
    <description>Created with Sketch (http://www.bohemiancoding.com/sketch)</description>
    <defs></defs>
    <g id="Page-1" stroke="none" stroke-width="1" fill="none" fill-rule="evenodd" sketch:type="MSPage">
        <g id="js-close" sketch:type="MSArtboardGroup">
            <circle id="background" fill="#FFFFFF" sketch:type="MSShapeGroup" cx="10" cy="10" r="9"></circle>
            <path d="M9.99421875,1.25 C12.2335937,1.25 14.4729687,2.104375 16.1817187,3.813125 C19.5992187,7.23 19.5992187,12.770625 16.1817187,16.1875 C14.4729687,17.895625 12.2335937,18.75 9.99421875,18.75 C7.75546875,18.75 5.51609375,17.89625 3.80796875,16.1875 C0.39109375,12.77 0.39109375,7.229375 3.80796875,3.813125 C5.51609375,2.104375 7.75546875,1.25 9.99421875,1.25 M7.79796875,13.886875 L9.99421875,11.69 L12.1917187,13.886875 L13.8810937,12.196875 L11.6848437,10 L13.8810937,7.803125 L12.1917187,6.114375 L9.99546875,8.310625 L7.79796875,6.11375 L6.10859375,7.803125 L8.30484375,10.000625 L6.10859375,12.196875 L7.79796875,13.886875 M9.99421875,0 C7.32359375,0 4.81234375,1.040625 2.92359375,2.929375 C-0.97453125,6.828125 -0.97453125,13.1725 2.92359375,17.07125 C4.81234375,18.96 7.32359375,20 9.99421875,20 C12.6648437,20 15.1767187,18.96 17.0654687,17.07125 C20.9642187,13.1725 20.9642187,6.8275 17.0654687,2.929375 C15.1767188,1.04 12.6648437,0 9.99421875,0" id="Shape" fill="#DD3337" sketch:type="MSShapeGroup"></path>
        </g>
    </g>
</svg>