<?xml version="1.0" encoding="UTF-8" standalone="no"?>
<svg width="14px" height="14px" viewBox="0 0 14 14" version="1.1" xmlns="http://www.w3.org/2000/svg" xmlns:xlink="http://www.w3.org/1999/xlink" xmlns:sketch="http://www.bohemiancoding.com/sketch/ns">
    <title>js-infotip</title>
    <description>Created with Sketch (http://www.bohemiancoding.com/sketch)</description>
    <defs></defs>
    <g id="Page-1" stroke="none" stroke-width="1" fill="none" fill-rule="evenodd" sketch:type="MSPage">
        <g id="js-infotip" sketch:type="MSArtboardGroup" fill="#4178B4">
            <path d="M7,0.875 C10.381875,0.875 13.125,3.61725 13.125,7 C13.125,10.383625 10.381875,13.125 7,13.125 C3.61725,13.125 0.875,10.383625 0.875,7 C0.875,3.61725 3.61725,0.875 7,0.875 M6.98775,4.844875 C7.4554375,4.844875 7.875,4.456375 7.875,3.969875 C7.875,3.4838125 7.4795,3.094875 7.011375,3.094875 C6.544125,3.094875 6.125,3.4838125 6.125,3.969875 C6.125,4.456375 6.5205,4.844875 6.98775,4.844875 M5.6875,7 L6.5625,7 L6.5625,9.625 L5.6875,9.625 L5.6875,10.9375 L8.75,10.9375 L8.75,9.625 L7.875,9.625 L7.875,5.6875 L5.6875,5.6875 L5.6875,7 M7,0 C3.140375,0 0,3.140375 0,7 C0,10.859625 3.140375,14 7,14 C10.859625,14 14,10.859625 14,7 C14,3.140375 10.859625,0 7,0" id="Shape" sketch:type="MSShapeGroup"></path>
        </g>
    </g>
</svg>