<?xml version="1.0" encoding="UTF-8" standalone="no"?>
<svg width="200px" height="200px" viewBox="0 0 200 200" version="1.1" xmlns="http://www.w3.org/2000/svg" xmlns:xlink="http://www.w3.org/1999/xlink" xmlns:sketch="http://www.bohemiancoding.com/sketch/ns">
    <title>logo-med</title>
    <description>Created with Sketch (http://www.bohemiancoding.com/sketch)</description>
    <defs></defs>
    <g id="Page-1" stroke="none" stroke-width="1" fill="none" fill-rule="evenodd" sketch:type="MSPage">
        <g id="logo-med" sketch:type="MSArtboardGroup">
            <g id="Group" sketch:type="MSLayerGroup">
                <path d="M101.129082,167.154592 C100.702551,166.955867 100.277041,166.756888 99.855102,166.557653 C99.3359694,166.31301 98.8211735,166.067602 98.3091837,165.821684 C98.0418367,165.693367 97.7762755,165.564796 97.5112245,165.436224 C96.8862245,165.133673 96.2655612,164.830867 95.6512755,164.527041 C95.565051,164.484184 95.4798469,164.441582 95.3936224,164.398724 C91.5415816,162.487245 87.897449,160.550255 84.4596939,158.585714 C84.434949,158.579592 84.4107143,158.572704 84.3862245,158.566327 L84.3903061,158.546429 C78.8357143,155.369898 73.8173469,152.121939 69.3191327,148.795918 C57.144898,139.795153 48.5829082,129.976786 43.8716837,119.613776 C41.7806122,115.014796 40.4155612,110.254082 39.7783163,105.357143 C39.0201531,107.002806 38.2663265,108.68699 37.5163265,110.404082 C31.4056122,124.422449 25.5461735,140.830867 19.8979592,159.681378 C32.8696429,177.118622 51.5905612,190.471429 74.2130102,196.533163 C101.287755,203.787755 128.745663,199.206122 151.092092,185.959694 C131.875765,179.976276 115.394388,173.781122 101.392347,167.276531 C101.304337,167.235714 101.216582,167.195408 101.129082,167.154592 L101.129082,167.154592 Z" id="Shape" fill="#DD7E69" sketch:type="MSShapeGroup"></path>
                <path d="M32.7197255,100.816837 C32.9194704,100.38801 33.1192153,99.9607143 33.3194704,99.5364796 C33.5638581,99.0188776 33.8087561,98.505102 34.053654,97.9943878 C34.1827357,97.7257653 34.3120724,97.4584184 34.4416643,97.1915816 C34.7437051,96.5678571 35.0462561,95.9477041 35.3498275,95.3344388 C35.3931949,95.2471939 35.4365622,95.1609694 35.4796745,95.0739796 C37.3908989,91.222449 39.3276336,87.5790816 41.2914092,84.1415816 C41.2977867,84.1170918 41.3046745,84.092602 41.311052,84.0681122 L41.3306949,84.072449 C44.5074806,78.517602 47.7554398,73.4992347 51.0812051,69.0010204 C60.0824806,56.8267857 69.9005928,48.265051 80.263603,43.5535714 C84.8628377,41.4625 89.6232969,40.097449 94.5202357,39.4602041 C92.8579908,38.6946429 91.1569704,37.9336735 89.4222765,37.1760204 C89.2271234,37.0908163 89.0340112,37.0058673 88.8380928,36.9209184 C88.8100316,36.9089286 88.7814602,36.8966837 88.753654,36.8844388 C74.9475316,30.9096939 58.8467663,25.175 40.4062051,19.6428571 C22.908501,32.617602 9.50773568,51.3729592 3.43197038,74.0477041 C-3.80629493,101.061735 0.739623436,128.455612 13.9169194,150.775 C19.9013581,131.555102 26.0977867,115.070663 32.6039092,101.066837 C32.6424296,100.983673 32.68095,100.899745 32.7197255,100.816837 L32.7197255,100.816837 Z" id="Shape" fill="#4FC19C" sketch:type="MSShapeGroup"></path>
                <path d="M49.2346939,13.8349761 C68.3591837,19.7974761 84.7691327,25.9714557 98.7186224,32.452323 C98.8010204,32.4903332 98.8839286,32.5285985 98.9663265,32.567119 C99.3959184,32.7666088 99.8239796,32.967119 100.248724,33.1676292 C100.764286,33.4109965 101.276276,33.6548741 101.784694,33.8990067 C102.056122,34.0291088 102.326276,34.1602312 102.595663,34.2905883 C103.216837,34.5918639 103.834184,34.8928843 104.444898,35.19467 C104.535204,35.2395679 104.623724,35.2844659 104.713776,35.3285985 C108.56301,37.2388026 112.204082,39.1745169 115.640051,41.1375271 C115.664541,41.1441598 115.689031,41.1507924 115.713776,41.1574251 L115.709694,41.1770679 C121.264031,44.3541088 126.282398,47.6018128 130.780612,50.9275781 C142.955357,59.9288536 151.516582,69.7469659 156.228316,80.1099761 C158.319388,84.7089557 159.684439,89.46967 160.321684,94.3666088 C161.083929,92.7107414 161.842347,91.0160985 162.597449,89.2877822 C162.685969,89.0844659 162.775,88.8829353 162.863265,88.6783434 C162.869898,88.6632924 162.876786,88.647221 162.883673,88.6319149 C168.860714,74.8245169 174.597449,58.7212006 180.131888,40.2765577 C167.160714,22.8426292 148.441582,9.49262916 125.822194,3.43191487 C98.865051,-3.79129941 71.5288265,0.720945485 49.2346939,13.8349761 L49.2346939,13.8349761 Z" id="Shape" fill="#709CCB" sketch:type="MSShapeGroup"></path>
                <path d="M166.793112,100.283163 C166.562755,100.771939 166.331378,101.257143 166.1,101.739796 C165.955357,102.040816 165.810459,102.340306 165.665816,102.63852 C165.377296,103.233929 165.08801,103.82602 164.798469,104.41199 C164.738776,104.533418 164.678316,104.652806 164.618112,104.77398 C162.718622,108.6 160.793112,112.220153 158.841071,115.63699 C155.62449,121.261735 152.376786,126.280102 149.05102,130.778316 C140.05,142.952551 130.231378,151.514286 119.868878,156.225765 C115.269643,158.316837 110.509184,159.681888 105.612245,160.319388 C106.809694,160.870918 108.026276,161.420408 109.26199,161.968112 C109.717857,162.170153 110.179847,162.371684 110.641071,162.573214 C124.657143,168.684184 141.06352,174.544133 159.912755,180.192347 C177.286735,167.22449 190.588265,148.539541 196.634949,125.972704 C203.87449,98.9548469 199.326276,71.5561224 186.144133,49.2346939 C180.160969,68.422449 173.966327,84.8760204 167.462245,98.855102 C167.224745,99.3642857 167.009694,99.8257653 166.793112,100.283163 Z" id="Shape" fill="#5A6C80" sketch:type="MSShapeGroup"></path>
            </g>
        </g>
    </g>
</svg>