<?xml version="1.0" encoding="UTF-8" standalone="no"?>
<svg width="100px" height="100px" viewBox="0 0 100 100" version="1.1" xmlns="http://www.w3.org/2000/svg" xmlns:xlink="http://www.w3.org/1999/xlink" xmlns:sketch="http://www.bohemiancoding.com/sketch/ns">
    <title>logo-med</title>
    <description>Created with Sketch (http://www.bohemiancoding.com/sketch)</description>
    <defs></defs>
    <g id="Page-1" stroke="none" stroke-width="1" fill="none" fill-rule="evenodd" sketch:type="MSPage">
        <g id="logo-med" sketch:type="MSArtboardGroup">
            <g id="Group" sketch:type="MSLayerGroup">
                <path d="M50.5645408,83.5772959 C50.3512755,83.4779337 50.1385204,83.3784439 49.927551,83.2788265 C49.6679847,83.1565051 49.4105867,83.033801 49.1545918,82.9108418 C49.0209184,82.8466837 48.8881378,82.782398 48.7556122,82.7181122 C48.4431122,82.5668367 48.1327806,82.4154337 47.8256378,82.2635204 C47.7825255,82.2420918 47.7399235,82.2207908 47.6968112,82.1993622 C45.7707908,81.2436224 43.9487245,80.2751276 42.2298469,79.2928571 C42.2174745,79.2897959 42.2053571,79.286352 42.1931122,79.2831633 L42.1951531,79.2732143 C39.4178571,77.684949 36.9086735,76.0609694 34.6595663,74.3979592 C28.572449,69.8975765 24.2914541,64.9883929 21.9358418,59.8068878 C20.8903061,57.507398 20.2077806,55.1270408 19.8891582,52.6785714 C19.5100765,53.5014031 19.1331633,54.3434949 18.7581633,55.2020408 C15.7028061,62.2112245 12.7730867,70.4154337 9.94897959,79.8406888 C16.4348214,88.5593112 25.7952806,95.2357143 37.1065051,98.2665816 C50.6438776,101.893878 64.3728316,99.6030612 75.5460459,92.9798469 C65.9378827,89.9881378 57.6971939,86.8905612 50.6961735,83.6382653 C50.6521684,83.6178571 50.6082908,83.5977041 50.5645408,83.5772959 L50.5645408,83.5772959 Z" id="Shape" fill="#DD7E69" sketch:type="MSShapeGroup"></path>
                <path d="M16.3598627,50.4084184 C16.4597352,50.1940051 16.5596076,49.9803571 16.6597352,49.7682398 C16.7819291,49.5094388 16.904378,49.252551 17.026827,48.9971939 C17.0913678,48.8628827 17.1560362,48.7292092 17.2208321,48.5957908 C17.3718525,48.2839286 17.523128,47.973852 17.6749138,47.6672194 C17.6965974,47.6235969 17.7182811,47.5804847 17.7398372,47.5369898 C18.6954495,45.6112245 19.6638168,43.7895408 20.6457046,42.0707908 C20.6488934,42.0585459 20.6523372,42.046301 20.655526,42.0340561 L20.6653474,42.0362245 C22.2537403,39.258801 23.8777199,36.7496173 25.5406025,34.5005102 C30.0412403,28.4133929 34.9502964,24.1325255 40.1318015,21.7767857 C42.4314189,20.73125 44.8116485,20.0487245 47.2601178,19.730102 C46.4289954,19.3473214 45.5784852,18.9668367 44.7111382,18.5880102 C44.6135617,18.5454082 44.5170056,18.5029337 44.4190464,18.4604592 C44.4050158,18.4544643 44.3907301,18.4483418 44.376827,18.4422194 C37.4737658,15.4548469 29.4233831,12.5875 20.2031025,9.82142857 C11.4542505,16.308801 4.75386784,25.6864796 1.71598519,37.023852 C-1.90314747,50.5308673 0.369811718,64.2278061 6.95845968,75.3875 C9.95067907,65.777551 13.0488934,57.5353316 16.3019546,50.5334184 C16.3212148,50.4918367 16.340475,50.4498724 16.3598627,50.4084184 L16.3598627,50.4084184 Z" id="Shape" fill="#4FC19C" sketch:type="MSShapeGroup"></path>
                <path d="M24.6173469,6.91748805 C34.1795918,9.89873805 42.3845663,12.9857278 49.3593112,16.2261615 C49.4005102,16.2451666 49.4419643,16.2642993 49.4831633,16.2835595 C49.6979592,16.3833044 49.9119898,16.4835595 50.1243622,16.5838146 C50.3821429,16.7054983 50.6381378,16.827437 50.8923469,16.9495034 C51.0280612,17.0145544 51.1631378,17.0801156 51.2978316,17.1452942 C51.6084184,17.2959319 51.9170918,17.4464421 52.222449,17.597335 C52.267602,17.619784 52.3118622,17.6422329 52.3568878,17.6642993 C54.2815051,18.6194013 56.1020408,19.5872585 57.8200255,20.5687636 C57.8322704,20.5720799 57.8445153,20.5753962 57.8568878,20.5787125 L57.8548469,20.588534 C60.6320153,22.1770544 63.141199,23.8009064 65.3903061,25.4637891 C71.4776786,29.9644268 75.7582908,34.8734829 78.1141582,40.054988 C79.1596939,42.3544778 79.8422194,44.734835 80.1608418,47.1833044 C80.5419643,46.3553707 80.9211735,45.5080493 81.2987245,44.6438911 C81.3429847,44.5422329 81.3875,44.4414676 81.4316327,44.3391717 C81.434949,44.3316462 81.4383929,44.3236105 81.4418367,44.3159574 C84.4303571,37.4122585 87.2987245,29.3606003 90.0659439,20.1382789 C83.5803571,11.4213146 74.2207908,4.74631458 62.9110969,1.71595744 C49.4325255,-1.89564971 35.7644133,0.360472742 24.6173469,6.91748805 L24.6173469,6.91748805 Z" id="Shape" fill="#709CCB" sketch:type="MSShapeGroup"></path>
                <path d="M83.3965561,50.1415816 C83.2813776,50.3859694 83.1656888,50.6285714 83.05,50.869898 C82.9776786,51.0204082 82.9052296,51.1701531 82.8329082,51.3192602 C82.688648,51.6169643 82.5440051,51.9130102 82.3992347,52.2059949 C82.3693878,52.2667092 82.3391582,52.3264031 82.3090561,52.3869898 C81.3593112,54.3 80.3965561,56.1100765 79.4205357,57.8184949 C77.8122449,60.6308673 76.1883929,63.140051 74.5255102,65.3891582 C70.025,71.4762755 65.1156888,75.7571429 59.9344388,78.1128827 C57.6348214,79.1584184 55.2545918,79.8409439 52.8061224,80.1596939 C53.4048469,80.4354592 54.0131378,80.7102041 54.6309949,80.9840561 C54.8589286,81.0850765 55.0899235,81.1858418 55.3205357,81.2866071 C62.3285714,84.3420918 70.5317602,87.2720663 79.9563776,90.0961735 C88.6433673,83.6122449 95.2941327,74.2697704 98.3174745,62.986352 C101.937245,49.4774235 99.6631378,35.7780612 93.0720663,24.6173469 C90.0804847,34.2112245 86.9831633,42.4380102 83.7311224,49.427551 C83.6123724,49.6821429 83.5048469,49.9128827 83.3965561,50.1415816 Z" id="Shape" fill="#5A6C80" sketch:type="MSShapeGroup"></path>
            </g>
        </g>
    </g>
</svg>