<?xml version="1.0" encoding="UTF-8" standalone="no"?>
<svg width="60px" height="50px" viewBox="0 0 60 50" version="1.1" xmlns="http://www.w3.org/2000/svg" xmlns:xlink="http://www.w3.org/1999/xlink" xmlns:sketch="http://www.bohemiancoding.com/sketch/ns">
    <title>logo-small</title>
    <description>Created with Sketch (http://www.bohemiancoding.com/sketch)</description>
    <defs></defs>
    <g id="Page-1" stroke="none" stroke-width="1" fill="none" fill-rule="evenodd" sketch:type="MSPage">
        <g id="logo-small" sketch:type="MSArtboardGroup">
            <g id="Group" sketch:type="MSLayerGroup">
                <path d="M30,49.92 C43.785028,49.92 54.96,38.745028 54.96,24.96 C54.96,11.174972 43.785028,0 30,0 C16.214972,0 5.04,11.174972 5.04,24.96 C5.04,38.745028 16.214972,49.92 30,49.92 Z M30,39.96 C38.2842717,39.96 45,33.2442717 45,24.96 C45,16.6757283 38.2842717,9.96 30,9.96 C21.7157283,9.96 15,16.6757283 15,24.96 C15,33.2442717 21.7157283,39.96 30,39.96 Z" id="Oval-3" fill="#54BCD2" sketch:type="MSShapeGroup"></path>
                <rect id="Rectangle-2" fill="#54BCD2" sketch:type="MSShapeGroup" x="0" y="0" width="60" height="9.96"></rect>
                <path d="M30,9.96 L49.9517788,9.96 C49.952383,9.96080238 42.7926228,17.1233757 42.7926228,17.1233757 C40.1545704,12.826156 35.4119987,9.96 30,9.96 Z" id="Shadow" fill-opacity="0.12" fill="#000000" sketch:type="MSShapeGroup"></path>
                <path d="M8.52,9.96 L10.0033044,9.96 C14.5581334,3.91113451 21.7998608,8.52651283e-16 29.9550832,8.52651283e-16 L22.0994798,8.52651283e-16 C16.5457957,1.74618514 11.7907395,5.29474805 8.52,9.96 Z" id="20px-highlight" fill-opacity="0.45" fill="#FFFFFF" sketch:type="MSShapeGroup"></path>
            </g>
        </g>
    </g>
</svg>