<?xml version="1.0" encoding="UTF-8" standalone="no"?>
<svg width="216px" height="180px" viewBox="0 0 216 180" version="1.1" xmlns="http://www.w3.org/2000/svg" xmlns:xlink="http://www.w3.org/1999/xlink" xmlns:sketch="http://www.bohemiancoding.com/sketch/ns">
    <title>logo-med</title>
    <description>Created with Sketch (http://www.bohemiancoding.com/sketch)</description>
    <defs></defs>
    <g id="Page-1" stroke="none" stroke-width="1" fill="none" fill-rule="evenodd" sketch:type="MSPage">
        <g id="logo-med" sketch:type="MSArtboardGroup">
            <g id="Group" sketch:type="MSLayerGroup">
                <path d="M107.5,178.88 C156.89635,178.88 196.94,138.83635 196.94,89.44 C196.94,40.0436495 156.89635,0 107.5,0 C58.1036495,0 18.06,40.0436495 18.06,89.44 C18.06,138.83635 58.1036495,178.88 107.5,178.88 Z M107.5,143.19 C137.185307,143.19 161.25,119.125307 161.25,89.44 C161.25,59.7546932 137.185307,35.69 107.5,35.69 C77.8146932,35.69 53.75,59.7546932 53.75,89.44 C53.75,119.125307 77.8146932,143.19 107.5,143.19 Z" id="Oval-3" fill="#54BCD2" sketch:type="MSShapeGroup"></path>
                <rect id="Rectangle-2" fill="#54BCD2" sketch:type="MSShapeGroup" x="0" y="0" width="216" height="35.69"></rect>
                <path d="M107.5,35.69 L178.993874,35.69 C178.996039,35.6928752 153.340232,61.3587629 153.340232,61.3587629 C143.887211,45.9603924 126.892995,35.69 107.5,35.69 Z" id="Shadow" fill-opacity="0.12" fill="#000000" sketch:type="MSShapeGroup"></path>
                <path d="M32.68,35.69 C45.3227197,18.1507529 63.9904737,5.24339336 85.6511834,0 L107.378581,0 C78.155701,0 52.2061777,14.0148987 35.8847071,35.69 L32.68,35.69 Z" id="12px-highlight" fill-opacity="0.45" fill="#FFFFFF" sketch:type="MSShapeGroup"></path>
            </g>
        </g>
    </g>
</svg>