<?xml version="1.0" encoding="UTF-8" standalone="no"?>
<svg width="120px" height="100px" viewBox="0 0 120 100" version="1.1" xmlns="http://www.w3.org/2000/svg" xmlns:xlink="http://www.w3.org/1999/xlink" xmlns:sketch="http://www.bohemiancoding.com/sketch/ns">
    <title>logo-footer</title>
    <description>Created with Sketch (http://www.bohemiancoding.com/sketch)</description>
    <defs></defs>
    <g id="Page-1" stroke="none" stroke-width="1" fill="none" fill-rule="evenodd" sketch:type="MSPage">
        <g id="logo-footer" sketch:type="MSArtboardGroup">
            <g id="Group" sketch:type="MSLayerGroup">
                <path d="M60,99.84 C87.5700561,99.84 109.92,77.4900561 109.92,49.92 C109.92,22.3499439 87.5700561,0 60,0 C32.4299439,0 10.08,22.3499439 10.08,49.92 C10.08,77.4900561 32.4299439,99.84 60,99.84 Z M60,79.92 C76.5685433,79.92 90,66.4885433 90,49.92 C90,33.3514567 76.5685433,19.92 60,19.92 C43.4314567,19.92 30,33.3514567 30,49.92 C30,66.4885433 43.4314567,79.92 60,79.92 Z" id="Oval-3" fill="#004662" sketch:type="MSShapeGroup"></path>
                <rect id="Rectangle-2" fill="#004662" sketch:type="MSShapeGroup" x="0" y="0" width="120" height="19.92"></rect>
                <path d="M60,19.92 L99.9035576,19.92 C99.904766,19.9216048 85.5852457,34.2467514 85.5852457,34.2467514 C80.3091408,25.652312 70.8239974,19.92 60,19.92 Z" id="Shadow" fill-opacity="0.12" fill="#000000" sketch:type="MSShapeGroup"></path>
                <path d="M17.04,19.92 L20.0066088,19.92 C29.1162667,7.82226902 43.5997216,1.70530257e-15 59.9101664,1.70530257e-15 L44.1989596,1.70530257e-15 C33.0915914,3.49237029 23.5814791,10.5894961 17.04,19.92 Z" id="20px-highlight" fill-opacity="0.33" fill="#FFFFFF" sketch:type="MSShapeGroup"></path>
            </g>
        </g>
    </g>
</svg>