<?xml version="1.0" encoding="UTF-8" standalone="no"?>
<svg width="50px" height="50px" viewBox="0 0 50 50" version="1.1" xmlns="http://www.w3.org/2000/svg" xmlns:xlink="http://www.w3.org/1999/xlink" xmlns:sketch="http://www.bohemiancoding.com/sketch/ns">
    <title>logo-small</title>
    <description>Created with Sketch (http://www.bohemiancoding.com/sketch)</description>
    <defs></defs>
    <g id="Page-1" stroke="none" stroke-width="1" fill="none" fill-rule="evenodd" sketch:type="MSPage">
        <g id="logo-small" sketch:type="MSArtboardGroup">
            <g id="Group" sketch:type="MSLayerGroup">
                <path d="M25.2822704,41.788648 C25.1756378,41.7389668 25.0692602,41.6892219 24.9637755,41.6394133 C24.8339923,41.5782526 24.7052934,41.5169005 24.5772959,41.4554209 C24.5104592,41.4233418 24.4440689,41.391199 24.3778061,41.3590561 C24.2215561,41.2834184 24.0663903,41.2077168 23.9128189,41.1317602 C23.8912628,41.1210459 23.8699617,41.1103954 23.8484056,41.0996811 C22.8853954,40.6218112 21.9743622,40.1375638 21.1149235,39.6464286 C21.1087372,39.644898 21.1026786,39.643176 21.0965561,39.6415816 L21.0975765,39.6366071 C19.7089286,38.8424745 18.4543367,38.0304847 17.3297832,37.1989796 C14.2862245,34.9487883 12.145727,32.4941964 10.9679209,29.9034439 C10.4451531,28.753699 10.1038903,27.5635204 9.94457908,26.3392857 C9.75503827,26.7507015 9.56658163,27.1717474 9.37908163,27.6010204 C7.85140306,31.1056122 6.38654337,35.2077168 4.9744898,39.9203444 C8.21741071,44.2796556 12.8976403,47.6178571 18.5532526,49.1332908 C25.3219388,50.9469388 32.1864158,49.8015306 37.773023,46.4899235 C32.9689413,44.9940689 28.8485969,43.4452806 25.3480867,41.8191327 C25.3260842,41.8089286 25.3041454,41.798852 25.2822704,41.788648 L25.2822704,41.788648 Z" id="Shape" fill="#DD7E69" sketch:type="MSShapeGroup"></path>
                <path d="M8.17993137,25.2042092 C8.22986759,25.0970026 8.27980382,24.9901786 8.32986759,24.8841199 C8.39096453,24.7547194 8.45218902,24.6262755 8.51341351,24.4985969 C8.54568392,24.4314413 8.5780181,24.3646046 8.61041606,24.2978954 C8.68592627,24.1419643 8.76156402,23.986926 8.83745688,23.8336097 C8.84829872,23.8117985 8.85914055,23.7902423 8.86991861,23.7684949 C9.34772474,22.8056122 9.83190841,21.8947704 10.3228523,21.0353954 C10.3244467,21.029273 10.3261686,21.0231505 10.327763,21.0170281 L10.3326737,21.0181122 C11.1268701,19.6294005 11.9388599,18.3748087 12.7703013,17.2502551 C15.0206201,14.2066964 17.4751482,12.0662628 20.0659008,10.8883929 C21.2157094,10.365625 22.4058242,10.0243622 23.6300589,9.86505102 C23.2144977,9.67366071 22.7892426,9.48341837 22.3555691,9.2940051 C22.3067809,9.27270408 22.2585028,9.25146684 22.2095232,9.23022959 C22.2025079,9.22723214 22.195365,9.22417092 22.1884135,9.22110969 C18.7368829,7.72742347 14.7116916,6.29375 10.1015513,4.91071429 C5.72712525,8.15440051 2.37693392,12.8432398 0.857992594,18.511926 C-0.951573733,25.2654337 0.184905859,32.1139031 3.47922984,37.69375 C4.97533953,32.8887755 6.52444668,28.7676658 8.15097729,25.2667092 C8.16060739,25.2459184 8.17023749,25.2249362 8.17993137,25.2042092 L8.17993137,25.2042092 Z" id="Shape" fill="#4FC19C" sketch:type="MSShapeGroup"></path>
                <path d="M12.3086735,3.45874402 C17.0897959,4.94936902 21.1922832,6.49286392 24.6796556,8.11308076 C24.7002551,8.12258331 24.7209821,8.13214964 24.7415816,8.14177974 C24.8489796,8.19165219 24.9559949,8.24177974 25.0621811,8.29190729 C25.1910714,8.35274913 25.3190689,8.41371851 25.4461735,8.47475168 C25.5140306,8.50727719 25.5815689,8.5400578 25.6489158,8.57264709 C25.8042092,8.64796596 25.9585459,8.72322107 26.1112245,8.79866749 C26.133801,8.80989198 26.1559311,8.82111647 26.1784439,8.83214964 C27.1407526,9.30970066 28.0510204,9.79362923 28.9100128,10.2843818 C28.9161352,10.2860399 28.9222577,10.2876981 28.9284439,10.2893563 L28.9274235,10.294267 C30.3160077,11.0885272 31.5705995,11.9004532 32.6951531,12.7318945 C35.7388393,14.9822134 37.8791454,17.4367415 39.0570791,20.027494 C39.5798469,21.1772389 39.9211097,22.3674175 40.0804209,23.5916522 C40.2709821,23.1776854 40.4605867,22.7540246 40.6493622,22.3219456 C40.6714923,22.2711165 40.69375,22.2207338 40.7158163,22.1695859 C40.7174745,22.1658231 40.7191964,22.1618052 40.7209184,22.1579787 C42.2151786,18.7061292 43.6493622,14.6803001 45.0329719,10.0691394 C41.7901786,5.71065729 37.1103954,2.37315729 31.4555485,0.857978718 C24.7162628,-0.947824853 17.8822066,0.180236371 12.3086735,3.45874402 L12.3086735,3.45874402 Z" id="Shape" fill="#709CCB" sketch:type="MSShapeGroup"></path>
                <path d="M41.6982781,25.0707908 C41.6406888,25.1929847 41.5828444,25.3142857 41.525,25.434949 C41.4888393,25.5102041 41.4526148,25.5850765 41.4164541,25.6596301 C41.344324,25.8084821 41.2720026,25.9565051 41.1996173,26.1029974 C41.1846939,26.1333546 41.1695791,26.1632015 41.1545281,26.1934949 C40.6796556,27.15 40.1982781,28.0550383 39.7102679,28.9092474 C38.9061224,30.3154337 38.0941964,31.5700255 37.2627551,32.6945791 C35.0125,35.7381378 32.5578444,37.8785714 29.9672194,39.0564413 C28.8174107,39.5792092 27.6272959,39.9204719 26.4030612,40.0798469 C26.7024235,40.2177296 27.0065689,40.355102 27.3154974,40.4920281 C27.4294643,40.5425383 27.5449617,40.5929209 27.6602679,40.6433036 C31.1642857,42.1710459 35.2658801,43.6360332 39.9781888,45.0480867 C44.3216837,41.8061224 47.6470663,37.1348852 49.1587372,31.493176 C50.9686224,24.7387117 49.8315689,17.8890306 46.5360332,12.3086735 C45.0402423,17.1056122 43.4915816,21.2190051 41.8655612,24.7137755 C41.8061862,24.8410714 41.7524235,24.9564413 41.6982781,25.0707908 Z" id="Shape" fill="#5A6C80" sketch:type="MSShapeGroup"></path>
            </g>
        </g>
    </g>
</svg>