<?xml version="1.0" encoding="UTF-8" standalone="no"?>
<svg width="20px" height="20px" viewBox="0 0 20 20" version="1.1" xmlns="http://www.w3.org/2000/svg" xmlns:xlink="http://www.w3.org/1999/xlink" xmlns:sketch="http://www.bohemiancoding.com/sketch/ns">
    <title>menu-sort</title>
    <description>Created with Sketch (http://www.bohemiancoding.com/sketch)</description>
    <defs></defs>
    <g id="Page-1" stroke="none" stroke-width="1" fill="none" fill-rule="evenodd" sketch:type="MSPage">
        <g id="menu-sort" sketch:type="MSArtboardGroup" fill="#666666">
            <path d="M19.479375,13.69 L14.346875,10 L19.479375,6.31 C19.805625,6.075 19.999375,5.696875 19.999375,5.295 C19.999375,4.8925 19.805625,4.515 19.479375,4.28 L13.855,0.235 C13.638125,0.079375 13.381875,0 13.125,0 C12.93,0 12.734375,0.045 12.555,0.138125 C12.1375,0.351875 11.875,0.78125 11.875,1.25 L11.875,2.5 L10,2.5 C9.56125,2.5 9.15375,2.730625 8.928125,3.106875 L7.81875,4.95625 L6.7125,3.108125 C6.4875,2.730625 6.08,2.5 5.64,2.5 L1.25,2.5 C0.56,2.5 0,3.06 0,3.75 L0,6.875 C0,7.565 0.56,8.125 1.25,8.125 L3.666875,8.125 L4.7925,10 L3.666875,11.875 L1.25,11.875 C0.56,11.875 0,12.435 0,13.125 L0,16.25 C0,16.94 0.56,17.5 1.25,17.5 L5.64,17.5 C6.08,17.5 6.4875,17.269375 6.7125,16.891875 L7.81875,15.04375 L8.928125,16.893125 C9.15375,17.269375 9.56125,17.5 10,17.5 L11.875,17.5 L11.875,18.75 C11.875,19.21875 12.1375,19.648125 12.555,19.861875 C12.734375,19.955 12.93,20 13.125,20 C13.381875,20 13.638125,19.920625 13.855,19.765 L19.479375,15.72 C19.805625,15.485 19.999375,15.1075 19.999375,14.705 C19.999375,14.3025 19.805625,13.925 19.479375,13.69 L19.479375,13.69 Z M10,3.75 L13.125,3.75 L13.125,1.25 L18.749375,5.295 L13.125,9.33875 L13.125,6.875 L11.25,6.875 L9.744375,9.390625 L8.1825,6.780625 L10,3.75 L10,3.75 Z M11.875,11.735 L10.836875,10 L11.875,8.265 L11.875,11.735 L11.875,11.735 Z M5.64,16.25 L1.25,16.25 L1.25,13.125 L4.375,13.125 L5.885625,10.6075 L7.453125,13.220625 L5.64,16.25 L5.64,16.25 Z M13.125,18.75 L13.125,16.25 L10,16.25 L7.8175,12.611875 L6,9.5825 L4.375,6.875 L1.25,6.875 L1.25,3.75 L5.64,3.75 L7.566875,6.97 L9.38,10 L11.25,13.125 L13.125,13.125 L13.125,10.66125 L18.749375,14.705625 L13.125,18.75 L13.125,18.75 Z" id="Shape" sketch:type="MSShapeGroup"></path>
        </g>
    </g>
</svg>