<?xml version="1.0" encoding="UTF-8" standalone="no"?>
<svg width="20px" height="20px" viewBox="0 0 20 20" version="1.1" xmlns="http://www.w3.org/2000/svg" xmlns:xlink="http://www.w3.org/1999/xlink" xmlns:sketch="http://www.bohemiancoding.com/sketch/ns">
    <title>meta-meetings</title>
    <description>Created with Sketch (http://www.bohemiancoding.com/sketch)</description>
    <defs></defs>
    <g id="Page-1" stroke="none" stroke-width="1" fill="none" fill-rule="evenodd" sketch:type="MSPage">
        <g id="meta-meetings" sketch:type="MSArtboardGroup" fill="#666666">
            <path d="M10.000625,1.25 L12.9175,4.375 L18.750625,4.375 L18.750625,6.875 L1.25,6.875 L1.25,4.375 L7.080625,4.375 L10.000625,1.25 L10.000625,1.25 Z M7.935625,4.375 L12.0625,4.375 L10.000625,2.165625 L7.935625,4.375 L7.935625,4.375 Z M18.750625,18.75 L1.25,18.75 L1.25,7.5 L18.75,7.5 L18.75,18.75 L18.750625,18.75 Z M15.625625,10.625 L16.875625,10.625 L16.875625,9.375 L15.625625,9.375 L15.625625,10.625 L15.625625,10.625 Z M12.500625,10.625 L13.750625,10.625 L13.750625,9.375 L12.500625,9.375 L12.500625,10.625 L12.500625,10.625 Z M9.375,10.625 L10.625,10.625 L10.625,9.375 L9.375,9.375 L9.375,10.625 L9.375,10.625 Z M6.25,10.625 L7.5,10.625 L7.5,9.375 L6.25,9.375 L6.25,10.625 L6.25,10.625 Z M3.125,10.625 L4.375,10.625 L4.375,9.375 L3.125,9.375 L3.125,10.625 L3.125,10.625 Z M11.875625,14.375 L14.375625,14.375 L14.375625,11.875 L11.875625,11.875 L11.875625,14.375 L11.875625,14.375 Z M15.625625,13.75 L16.875625,13.75 L16.875625,12.5 L15.625625,12.5 L15.625625,13.75 L15.625625,13.75 Z M9.375,13.75 L10.625,13.75 L10.625,12.5 L9.375,12.5 L9.375,13.75 L9.375,13.75 Z M6.25,13.75 L7.5,13.75 L7.5,12.5 L6.25,12.5 L6.25,13.75 L6.25,13.75 Z M3.125,13.75 L4.375,13.75 L4.375,12.5 L3.125,12.5 L3.125,13.75 L3.125,13.75 Z M9.375,16.875 L10.625,16.875 L10.625,15.625 L9.375,15.625 L9.375,16.875 L9.375,16.875 Z M6.25,16.875 L7.5,16.875 L7.5,15.625 L6.25,15.625 L6.25,16.875 L6.25,16.875 Z M3.125,16.875 L4.375,16.875 L4.375,15.625 L3.125,15.625 L3.125,16.875 L3.125,16.875 Z M13.750625,13.75 L12.500625,13.75 L12.500625,12.5 L13.750625,12.5 L13.750625,13.75 L13.750625,13.75 Z M10.000625,0 C9.65375,0 9.32375,0.14375 9.0875,0.396875 L6.5375,3.125 L1.25,3.125 C0.56,3.125 0,3.685 0,4.375 L0,18.75 C0,19.44 0.559375,20 1.25,20 L18.75,20 C19.44,20 20,19.44 20,18.75 L20,4.375 C20,3.685 19.44,3.125 18.75,3.125 L13.459375,3.125 L10.91375,0.396875 C10.678125,0.14375 10.3475,0 10.000625,0 L10.000625,0 Z" id="Shape" sketch:type="MSShapeGroup"></path>
        </g>
    </g>
</svg>