<?xml version="1.0" encoding="UTF-8" standalone="no"?>
<svg width="20px" height="20px" viewBox="0 0 20 20" version="1.1" xmlns="http://www.w3.org/2000/svg" xmlns:xlink="http://www.w3.org/1999/xlink" xmlns:sketch="http://www.bohemiancoding.com/sketch/ns">
    <title>meta-specifications</title>
    <description>Created with Sketch (http://www.bohemiancoding.com/sketch)</description>
    <defs></defs>
    <g id="Page-1" stroke="none" stroke-width="1" fill="none" fill-rule="evenodd" sketch:type="MSPage">
        <g id="meta-specifications" sketch:type="MSArtboardGroup" fill="#666666">
            <path d="M14.375,1.25 L18.75,5.625 L14.375,5.625 L14.375,1.25 L14.375,1.25 Z M13.75,1.25 L13.75,6.25 L18.75,6.25 L18.75,16.25 L7.5,16.25 L7.5,1.25 L13.75,1.25 L13.75,1.25 Z M9.375,8.75 L16.875,8.75 L16.875,8.125 L9.375,8.125 L9.375,8.75 L9.375,8.75 Z M9.375,10.625 L16.875,10.625 L16.875,10 L9.375,10 L9.375,10.625 L9.375,10.625 Z M9.375,12.5 L16.875,12.5 L16.875,11.875 L9.375,11.875 L9.375,12.5 L9.375,12.5 Z M9.375,14.375 L16.875,14.375 L16.875,13.75 L9.375,13.75 L9.375,14.375 L9.375,14.375 Z M6.875,3.75 L6.875,8.75 L3.125,8.75 L3.125,9.375 L6.875,9.375 L6.875,10.625 L3.125,10.625 L3.125,11.25 L6.875,11.25 L6.875,12.5 L3.125,12.5 L3.125,13.125 L6.875,13.125 L6.875,14.375 L3.125,14.375 L3.125,15 L6.875,15 L6.875,16.875 L12.5,16.875 L12.5,18.75 L1.25,18.75 L1.25,3.75 L6.875,3.75 L6.875,3.75 Z M14.0425,0 L7.5,0 C6.81,0 6.25,0.56 6.25,1.25 L6.25,2.5 L1.25,2.5 C0.56,2.5 0,3.06 0,3.75 L0,18.75 C0,19.44 0.56,20 1.25,20 L12.5,20 C13.19,20 13.75,19.44 13.75,18.75 L13.75,17.5 L18.75,17.5 C19.44,17.5 20,16.94 20,16.25 L20,5.995 C20,5.886875 19.95,5.408125 19.63375,5.0925 L14.926875,0.36625 C14.6875,0.126875 14.368125,0 14.0425,0 L14.0425,0 Z" id="Shape" sketch:type="MSShapeGroup"></path>
        </g>
    </g>
</svg>