<?xml version="1.0" encoding="UTF-8" standalone="no"?>
<svg width="20px" height="20px" viewBox="0 0 20 20" version="1.1" xmlns="http://www.w3.org/2000/svg" xmlns:xlink="http://www.w3.org/1999/xlink" xmlns:sketch="http://www.bohemiancoding.com/sketch/ns">
    <title>meta-ghost-town</title>
    <description>Created with Sketch (http://www.bohemiancoding.com/sketch)</description>
    <defs></defs>
    <g id="Page-1" stroke="none" stroke-width="1" fill="none" fill-rule="evenodd" sketch:type="MSPage">
        <g id="meta-ghost-town" sketch:type="MSArtboardGroup" fill="#666666">
            <path d="M10,1.25 C14.8325,1.25 18.75,5.1675 18.75,10 L18.75,18.75 L17.001875,16.875 L15.24875,18.75 L13.500625,16.875 L11.7475,18.75 L10,16.875 L8.251875,18.75 L6.49875,16.875 L4.75125,18.75 L2.998125,16.875 L1.25,18.75 L1.25,10 C1.25,5.1675 5.16875,1.25 10,1.25 M12.8125,10.625 C13.675625,10.625 14.375,9.925625 14.375,9.0625 C14.375,8.199375 13.675625,7.5 12.8125,7.5 C11.949375,7.5 11.25,8.199375 11.25,9.0625 C11.25,9.925625 11.949375,10.625 12.8125,10.625 M7.1875,10.625 C8.050625,10.625 8.75,9.925625 8.75,9.0625 C8.75,8.199375 8.050625,7.5 7.1875,7.5 C6.324375,7.5 5.625,8.199375 5.625,9.0625 C5.625,9.925625 6.324375,10.625 7.1875,10.625 M10,0 C4.48625,0 0,4.48625 0,10 L0,18.75 C0,19.263125 0.315,19.725 0.7925,19.913125 C0.94125,19.971875 1.09625,20 1.25,20 C1.590625,20 1.92375,19.860625 2.164375,19.601875 L2.999375,18.70625 L3.838125,19.60375 C4.075,19.856875 4.405625,20 4.75125,20 L4.7525,20 C5.09875,20 5.43,19.85625 5.665,19.601875 L6.5,18.70625 L7.33875,19.603125 C7.574375,19.856875 7.905,20 8.251875,20 C8.59875,20 8.929375,19.85625 9.16625,19.6025 L10,18.708125 L10.83375,19.6025 C11.070625,19.85625 11.40125,20 11.748125,20 C12.095,20 12.425625,19.856875 12.66125,19.60375 L13.5,18.70625 L14.335,19.601875 C14.57125,19.85625 14.9025,20 15.24875,20 C15.595,20 15.92625,19.856875 16.161875,19.603125 L17.000625,18.70625 L17.835625,19.6025 C18.0775,19.860625 18.410625,20 18.75125,20 C18.905,20 19.06,19.971875 19.20875,19.913125 C19.68625,19.725 20,19.263125 20,18.75 L20,10 C20,4.48625 15.51375,0 10,0" id="Shape" sketch:type="MSShapeGroup"></path>
        </g>
    </g>
</svg>