<?xml version="1.0" encoding="UTF-8" standalone="no"?>
<svg width="20px" height="20px" viewBox="0 0 20 20" version="1.1" xmlns="http://www.w3.org/2000/svg" xmlns:xlink="http://www.w3.org/1999/xlink" xmlns:sketch="http://www.bohemiancoding.com/sketch/ns">
    <title>meta-status</title>
    <description>Created with Sketch (http://www.bohemiancoding.com/sketch)</description>
    <defs></defs>
    <g id="Page-1" stroke="none" stroke-width="1" fill="none" fill-rule="evenodd" sketch:type="MSPage">
        <g id="meta-status" sketch:type="MSArtboardGroup" fill="#666666">
            <g id="Shape-+-Shape-+-Shape" sketch:type="MSLayerGroup" transform="translate(10.000000, 10.000000) rotate(-315.000000) translate(-10.000000, -10.000000) ">
                <path d="M17.070625,2.929375 C15.181875,1.040625 12.670625,1.77635684e-15 10,1.77635684e-15 C7.329375,1.77635684e-15 4.818125,1.040625 2.929375,2.929375 C1.040625,4.8175 -1.77635684e-15,7.329375 -1.77635684e-15,10 C-1.77635684e-15,12.670625 1.04,15.181875 2.92875,17.070625 C4.8175,18.959375 7.32875,20 10,20 C12.670625,20 15.1825,18.96 17.070625,17.070625 C18.96,15.181875 20,12.670625 20,10 C20,7.329375 18.959375,4.8175 17.070625,2.929375 M16.186875,16.186875 C14.478125,17.89625 12.239375,18.75 10,18.75 C7.760625,18.75 5.52125,17.895625 3.813125,16.186875 C0.395625,12.769375 0.395625,7.23 3.813125,3.8125 C5.521875,2.10375 7.760625,1.25 10,1.25 C12.239375,1.25 14.478125,2.10375 16.186875,3.8125 C19.60375,7.229375 19.604375,12.77 16.186875,16.186875" id="Shape" sketch:type="MSShapeGroup"></path>
                <path d="M15.305625,4.69625 C13.89,3.28125 12.00625,2.5 10.003125,2.5 L10.001875,2.5 C7.999375,2.50125 6.114375,3.28125 4.6975,4.698125 C3.280625,6.114375 2.500625,8 2.5,10.00125 C2.5,14.136875 5.86375,17.50125 9.99875,17.50125 L10,17.50125 C12.0025,17.50125 13.8875,16.72125 15.30375,15.304375 C16.72125,13.886875 17.50125,12.003125 17.501875,10 C17.503125,7.996875 16.7225,6.113125 15.305625,4.69625 M3.1275,9.9525 L3.1275,10.050625 C3.1275,10.035 3.125,10.018125 3.125,10.001875 C3.125,9.98625 3.1275,9.969375 3.1275,9.9525 M3.156875,10.625 L5.0025,10.625 L5.0025,9.375 L3.155625,9.375 C3.28125,7.980625 3.823125,6.675 4.720625,5.60125 L6.025625,6.90625 L6.909375,6.0225 L5.604375,4.718125 C6.678125,3.821875 7.98375,3.28125 9.3775,3.155625 L9.3775,5 L10.6275,5 L10.6275,3.155625 C12.020625,3.280625 13.32625,3.820625 14.4,4.7175 L13.09625,6.0225 L13.98,6.90625 L15.28375,5.60125 C16.181875,6.675625 16.7225,7.981875 16.846875,9.375 L15.0025,9.375 L15.0025,10.625 L16.84625,10.625 C16.72125,12.018125 16.180625,13.32375 15.28375,14.3975 L13.98,13.093125 L13.09625,13.976875 L14.400625,15.281875 C13.326875,16.18 12.02125,16.720625 10.6275,16.84625 L10.6275,15 L9.3775,15 L9.3775,16.845625 C7.95,16.716875 6.64625,16.1525 5.60375,15.281875 L6.909375,13.976875 L6.025625,13.093125 L4.72,14.398125 C3.85,13.355625 3.285625,12.0525 3.156875,10.625 M5.135,14.855625 L5.146875,14.8675 C5.1425,14.8625 5.13875,14.85875 5.135,14.855625 M9.99875,16.876875 C9.985,16.876875 9.970625,16.875 9.956875,16.875 L10.043125,16.875 C10.028125,16.875 10.01375,16.876875 9.99875,16.876875" id="Shape" sketch:type="MSShapeGroup"></path>
                <path d="M11.515,11.515625 C12.37,10.660625 12.36875,9.27625 11.515,8.42125 C10.66125,7.5675 6.875,6.875 6.875,6.875 C6.875,6.875 7.568125,10.66125 8.421875,11.515 C9.275625,12.36875 10.659375,12.37 11.515,11.515625" id="Shape" sketch:type="MSShapeGroup"></path>
            </g>
        </g>
    </g>
</svg>