<?xml version="1.0" encoding="UTF-8" standalone="no"?>
<svg width="20px" height="20px" viewBox="0 0 20 20" version="1.1" xmlns="http://www.w3.org/2000/svg" xmlns:xlink="http://www.w3.org/1999/xlink" xmlns:sketch="http://www.bohemiancoding.com/sketch/ns">
    <title>meta-membership</title>
    <description>Created with Sketch (http://www.bohemiancoding.com/sketch)</description>
    <defs></defs>
    <g id="Page-1" stroke="none" stroke-width="1" fill="none" fill-rule="evenodd" sketch:type="MSPage">
        <g id="meta-membership" sketch:type="MSArtboardGroup" fill="#666666">
            <path d="M17.5,3.125 L2.5,3.125 L2.5,1.25 L17.5,1.25 L17.5,3.125 L17.5,3.125 Z M18.125,6.25 L1.875,6.25 L1.875,3.75 L18.125,3.75 L18.125,6.25 L18.125,6.25 Z M18.75,6.875 L18.75,18.75 L13.75,18.75 L13.75,16.875 L15,16.875 L15,16.25 L11.875,16.25 L11.875,16.875 L13.125,16.875 L13.125,18.75 L6.875,18.75 L6.875,16.875 L8.125,16.875 L8.125,16.25 L5,16.25 L5,16.875 L6.25,16.875 L6.25,18.75 L1.25,18.75 L1.25,6.875 L18.75,6.875 L18.75,6.875 Z M4.686875,10.73 C5.33375,10.73 5.85625,10.20625 5.85625,9.56 C5.85625,8.915625 5.33375,8.391875 4.686875,8.391875 C4.0425,8.391875 3.518125,8.915625 3.518125,9.56 C3.518125,10.20625 4.0425,10.73 4.686875,10.73 L4.686875,10.73 Z M9.375,10 L16.875,10 L16.875,9.375 L9.375,9.375 L9.375,10 L9.375,10 Z M9.375,11.875 L16.875,11.875 L16.875,11.25 L9.375,11.25 L9.375,11.875 L9.375,11.875 Z M3.125,14.375 L6.25,14.375 L6.25,12.84125 C6.25,11.97 5.616875,11.26375 4.686875,11.26375 C3.758125,11.263125 3.125,11.97 3.125,12.84125 L3.125,14.375 L3.125,14.375 Z M9.375,13.75 L16.875,13.75 L16.875,13.125 L9.375,13.125 L9.375,13.75 L9.375,13.75 Z M17.5,0 L2.5,0 C1.81,0 1.25,0.56 1.25,1.25 L1.25,2.6675 C0.87625,2.883125 0.625,3.2875 0.625,3.75 L0.625,5.7925 C0.25125,6.008125 0,6.4125 0,6.875 L0,18.75 C0,19.44 0.56,20 1.25,20 L18.75,20 C19.44,20 20,19.44 20,18.75 L20,6.875 C20,6.4125 19.74875,6.008125 19.375,5.7925 L19.375,3.75 C19.375,3.2875 19.12375,2.883125 18.75,2.6675 L18.75,1.25 C18.75,0.56 18.19,0 17.5,0 L17.5,0 Z" id="Shape" sketch:type="MSShapeGroup"></path>
        </g>
    </g>
</svg>