<?xml version="1.0" encoding="UTF-8" standalone="no"?>
<svg width="20px" height="20px" viewBox="0 0 20 20" version="1.1" xmlns="http://www.w3.org/2000/svg" xmlns:xlink="http://www.w3.org/1999/xlink" xmlns:sketch="http://www.bohemiancoding.com/sketch/ns">
    <title>meta-links</title>
    <description>Created with Sketch (http://www.bohemiancoding.com/sketch)</description>
    <defs></defs>
    <g id="Page-1" stroke="none" stroke-width="1" fill="none" fill-rule="evenodd" sketch:type="MSPage">
        <g id="meta-links" sketch:type="MSArtboardGroup" fill="#666666">
            <path d="M17.2513685,1.25 L18.7513685,2.75125 L15.2101185,6.29125 L13.7101185,4.79125 L17.2513685,1.25 M14.1344935,1.270625 C14.7388685,1.270625 15.3407435,1.414375 15.8913685,1.695 L13.6188685,3.968125 C13.5938685,3.978125 13.5632435,3.981875 13.5269935,3.981875 C13.4294935,3.981875 13.2951185,3.954375 13.1813685,3.954375 C13.1019935,3.954375 13.0326185,3.9675 12.9894935,4.010625 L11.3882435,5.6125 C11.2588685,5.7425 11.4026185,6.10875 11.3444935,6.240625 L9.07011855,8.514375 C8.32949355,7.056875 8.56511855,5.23 9.78574355,4.010625 L11.3882435,2.408125 C12.1463685,1.649375 13.1407435,1.270625 14.1344935,1.270625 M18.3082435,4.110625 C19.0494935,5.568125 18.8126185,7.395 17.5926185,8.61375 L15.9913685,10.21625 C15.2332435,10.975 14.2382435,11.353125 13.2444935,11.353125 C12.6413685,11.353125 12.0394935,11.21 11.4888685,10.92875 L13.7607435,8.65625 C13.7851185,8.645625 13.8169935,8.641875 13.8526185,8.641875 C13.9507435,8.641875 14.0838685,8.669375 14.1988685,8.669375 C14.2769935,8.669375 14.3469935,8.656875 14.3894935,8.61375 L15.9907435,7.011875 C16.1201185,6.8825 15.9763685,6.515625 16.0332435,6.38375 L18.3082435,4.110625 M12.1888685,6.3125 L13.6888685,7.81375 L7.62761855,13.875 L6.12574355,12.37375 L12.1888685,6.3125 M6.73761855,8.666875 C7.34199355,8.666875 7.94324355,8.810625 8.49386855,9.09125 L6.22136855,11.364375 C6.19761855,11.375 6.16636855,11.378125 6.13074355,11.378125 C6.03199355,11.378125 5.89886855,11.350625 5.78386855,11.350625 C5.70574355,11.350625 5.63761855,11.36375 5.59386855,11.40625 L3.99074355,13.008125 C3.86136855,13.138125 4.00574355,13.504375 3.94824355,13.63625 L1.67386855,15.91 C0.933243546,14.4525 1.17011855,12.625625 2.38949355,11.40625 L3.99074355,9.804375 C4.75011855,9.045625 5.74324355,8.666875 6.73761855,8.666875 M10.9119935,11.506875 C11.6532435,12.964375 11.4176185,14.790625 10.1976185,16.01 L8.59449355,17.6125 C7.83636855,18.371875 6.84261855,18.75 5.84824355,18.75 C5.24386855,18.75 4.64199355,18.60625 4.09136855,18.325625 L6.36449355,16.0525 C6.38761855,16.041875 6.41949355,16.03875 6.45636855,16.03875 C6.55386855,16.03875 6.68699355,16.06625 6.80136855,16.06625 C6.87949355,16.06625 6.94949355,16.053125 6.99199355,16.01 L8.59324355,14.408125 C8.72261855,14.27875 8.58011855,13.9125 8.63761855,13.780625 L10.9119935,11.506875 M4.79261855,13.708125 L6.29324355,15.21 L2.75136855,18.75 L1.25074355,17.249375 L4.79261855,13.708125 M17.2513685,0 C16.9207435,0 16.6019935,0.131875 16.3676185,0.36625 L16.2526185,0.481875 C15.5876185,0.179375 14.8594935,0.020625 14.1344935,0.020625 C12.7613685,0.020625 11.4719935,0.555 10.5026185,1.52375 L8.90136855,3.126875 C7.73511855,4.290625 7.22511855,5.9025 7.44574355,7.466875 C7.21074355,7.434375 6.97386855,7.416875 6.73699355,7.416875 C5.36574355,7.416875 4.07699355,7.950625 3.10636855,8.919375 L1.50511855,10.5225 C-0.0161314541,12.045 -0.422381454,14.328125 0.461368546,16.271875 L0.366993546,16.365 C-0.121131454,16.853125 -0.121131454,17.644375 0.366993546,18.1325 L1.86761855,19.633125 C2.10261855,19.868125 2.42074355,20 2.75136855,20 C3.08324355,20 3.40074355,19.868125 3.63511855,19.63375 L3.73011855,19.53875 C4.39761855,19.84125 5.12386855,20 5.84824355,20 C7.21886855,20 8.50949355,19.46625 9.47824355,18.4975 L11.0813685,16.894375 C12.2457435,15.73 12.7563685,14.118125 12.5351185,12.55375 C12.7707435,12.5875 13.0076185,12.604375 13.2444935,12.604375 C14.6163685,12.604375 15.9057435,12.070625 16.8751185,11.10125 L18.4763685,9.498125 C19.9988685,7.978125 20.4038685,5.694375 19.5213685,3.750625 L19.6351185,3.635625 C20.1232435,3.148125 20.1232435,2.356875 19.6363685,1.868125 L18.1363685,0.366875 C17.9019935,0.131875 17.5832435,0 17.2513685,0" id="Shape" sketch:type="MSShapeGroup"></path>
        </g>
    </g>
</svg>