<?xml version="1.0" encoding="UTF-8" standalone="no"?>
<svg width="20px" height="20px" viewBox="0 0 20 20" version="1.1" xmlns="http://www.w3.org/2000/svg" xmlns:xlink="http://www.w3.org/1999/xlink" xmlns:sketch="http://www.bohemiancoding.com/sketch/ns">
    <title>meta-organization</title>
    <description>Created with Sketch (http://www.bohemiancoding.com/sketch)</description>
    <defs></defs>
    <g id="Page-1" stroke="none" stroke-width="1" fill="none" fill-rule="evenodd" sketch:type="MSPage">
        <g id="meta-organization" sketch:type="MSArtboardGroup" fill="#666666">
            <path d="M18.75,18.75 L16.25,18.75 L16.25,1.25 L18.75,1.25 L18.75,18.75 L18.75,18.75 Z M13.75,1.25 L13.75,6.21625 L11.25,7.049375 L11.25,1.25 L13.75,1.25 L13.75,1.25 Z M15.625,6.25 L15.625,18.75 L1.25,18.75 L1.25,8.75 L8.75,6.25 L8.75,8.541875 L15.625,6.25 L15.625,6.25 Z M11.25,12.5 L13.125,12.5 L13.125,10.625 L11.25,10.625 L11.25,12.5 L11.25,12.5 Z M7.5,12.5 L9.375,12.5 L9.375,10.625 L7.5,10.625 L7.5,12.5 L7.5,12.5 Z M3.75,12.5 L5.625,12.5 L5.625,10.625 L3.75,10.625 L3.75,12.5 L3.75,12.5 Z M11.25,16.25 L13.125,16.25 L13.125,14.375 L11.25,14.375 L11.25,16.25 L11.25,16.25 Z M7.5,16.25 L9.375,16.25 L9.375,14.375 L7.5,14.375 L7.5,16.25 L7.5,16.25 Z M3.75,16.25 L5.625,16.25 L5.625,14.375 L3.75,14.375 L3.75,16.25 L3.75,16.25 Z M18.75,0 L16.25,0 C15.559375,0 15,0.559375 15,1.25 C15,0.559375 14.440625,0 13.75,0 L11.25,0 C10.559375,0 10,0.559375 10,1.25 L10,6.25 C10,5.848125 9.806875,5.470625 9.480625,5.23625 C9.265625,5.080625 9.00875,5 8.75,5 C8.6175,5 8.48375,5.02125 8.355,5.064375 L0.855,7.564375 C0.344375,7.734375 0,8.211875 0,8.75 L0,18.75 C0,19.440625 0.559375,20 1.25,20 L18.75,20 C19.440625,20 20,19.440625 20,18.75 L20,1.25 C20,0.559375 19.440625,0 18.75,0 L18.75,0 Z" id="Shape" sketch:type="MSShapeGroup"></path>
        </g>
    </g>
</svg>