<?xml version="1.0" encoding="UTF-8" standalone="no"?>
<svg width="20px" height="20px" viewBox="0 0 20 20" version="1.1" xmlns="http://www.w3.org/2000/svg" xmlns:xlink="http://www.w3.org/1999/xlink" xmlns:sketch="http://www.bohemiancoding.com/sketch/ns">
    <title>meta-presenters</title>
    <description>Created with Sketch (http://www.bohemiancoding.com/sketch)</description>
    <defs></defs>
    <g id="Page-1" stroke="none" stroke-width="1" fill="none" fill-rule="evenodd" sketch:type="MSPage">
        <g id="meta-presenters" sketch:type="MSArtboardGroup" fill="#666666">
            <path d="M5.964375,1.25 C7.778125,1.25 9.245625,2.718125 9.245625,4.5275 C9.245625,6.34 7.778125,7.806875 5.964375,7.806875 C4.15625,7.806875 2.685,6.34 2.685,4.5275 C2.685,2.718125 4.15625,1.25 5.964375,1.25 M15.001875,2.600625 C16.674375,2.600625 18.029375,3.955 18.029375,5.625 C18.029375,7.296875 16.674375,8.65125 15.001875,8.65125 C13.333125,8.65125 11.975625,7.296875 11.975625,5.625 C11.975625,3.955 13.333125,2.600625 15.001875,2.600625 M5.938125,9.305625 C8.529375,9.305625 10.625,11.286875 10.625,13.7325 L10.625,18.75 L1.25,18.75 L1.25,13.7325 C1.25,11.2875 3.3475,9.305625 5.938125,9.305625 M15,10 C17.07375,10 18.75,11.585625 18.75,13.54125 L18.75,18.75 L11.25,18.75 L11.25,13.54125 C11.25,11.585625 12.92875,10 15,10 M5.964375,0 C3.466875,0 1.435,2.03125 1.435,4.5275 C1.435,6.21125 2.358125,7.68375 3.725625,8.464375 C1.54375,9.304375 0,11.349375 0,13.7325 L0,18.75 C0,19.44 0.56,20 1.25,20 L18.75,20 C19.440625,20 20,19.44 20,18.75 L20,13.54125 C20,11.67375 18.879375,10.0525 17.24875,9.2625 C18.46625,8.5075 19.279375,7.159375 19.279375,5.625 C19.279375,3.268125 17.360625,1.350625 15.001875,1.350625 C12.645,1.350625 10.725625,3.268125 10.725625,5.625 C10.725625,7.15875 11.5375,8.50625 12.75375,9.26125 C12.044375,9.604375 11.43125,10.105 10.965,10.715 C10.3075,9.7175 9.335625,8.92875 8.1825,8.476875 C9.561875,7.69875 10.495625,6.220625 10.495625,4.5275 C10.495625,2.03125 8.463125,0 5.964375,0" id="Shape" sketch:type="MSShapeGroup"></path>
        </g>
    </g>
</svg>