<?xml version="1.0" encoding="UTF-8" standalone="no"?>
<svg width="20px" height="20px" viewBox="0 0 20 20" version="1.1" xmlns="http://www.w3.org/2000/svg" xmlns:xlink="http://www.w3.org/1999/xlink" xmlns:sketch="http://www.bohemiancoding.com/sketch/ns">
    <title>meta-connected</title>
    <description>Created with Sketch (http://www.bohemiancoding.com/sketch)</description>
    <defs></defs>
    <g id="Page-1" stroke="none" stroke-width="1" fill="none" fill-rule="evenodd" sketch:type="MSPage">
        <g id="meta-connected" sketch:type="MSArtboardGroup" fill="#666666">
            <g id="Group" sketch:type="MSLayerGroup">
                <path d="M15.625,0 C13.213125,0 11.25,1.9625 11.25,4.375 C11.25,4.9075 11.3475,5.423125 11.526875,5.901875 C11.04875,5.7225 10.533125,5.625 10,5.625 C8.288125,5.625 6.75875,6.630625 6.0475,8.125 L2.5,8.125 L2.5,11.671875 C1.005625,12.38375 0,13.913125 0,15.625 C0,18.036875 1.963125,20 4.375,20 C6.786875,20 8.75,18.036875 8.75,15.625 C8.75,15.091875 8.6525,14.57625 8.473125,14.098125 C8.95125,14.2775 9.466875,14.375 10,14.375 C11.711875,14.375 13.24125,13.369375 13.9525,11.875 L17.5,11.875 L17.5,8.3275 C18.994375,7.615625 20,6.086875 20,4.375 C20,1.963125 18.036875,0 15.625,0 M16.25,7.436875 L16.25,10.625 L13.061875,10.625 C12.771875,12.05125 11.511875,13.125 10,13.125 C8.488125,13.125 7.2275,12.05125 6.938125,10.625 L5,10.625 L5,12.563125 C6.42625,12.853125 7.5,14.113125 7.5,15.625 C7.5,17.35125 6.10125,18.75 4.375,18.75 C2.64875,18.75 1.25,17.35125 1.25,15.625 C1.25,14.113125 2.32375,12.8525 3.75,12.563125 L3.75,9.375 L6.938125,9.375 C7.2275,7.948125 8.488125,6.875 10,6.875 C11.511875,6.875 12.7725,7.948125 13.061875,9.375 L15,9.375 L15,7.436875 C13.57375,7.146875 12.5,5.886875 12.5,4.375 C12.5,2.64875 13.89875,1.25 15.625,1.25 C17.35125,1.25 18.75,2.64875 18.75,4.375 C18.75,5.886875 17.67625,7.1475 16.25,7.436875" id="Shape" sketch:type="MSShapeGroup"></path>
                <path d="M10,8.75 C9.309375,8.75 8.75,9.309375 8.75,10 C8.75,10.690625 9.309375,11.25 10,11.25 C10.690625,11.25 11.25,10.690625 11.25,10 C11.25,9.309375 10.690625,8.75 10,8.75" id="Shape" sketch:type="MSShapeGroup"></path>
                <path d="M15.625,3.125 C14.934375,3.125 14.375,3.684375 14.375,4.375 C14.375,5.065625 14.934375,5.625 15.625,5.625 C16.315625,5.625 16.875,5.065625 16.875,4.375 C16.875,3.684375 16.315625,3.125 15.625,3.125" id="Shape" sketch:type="MSShapeGroup"></path>
                <path d="M3.125,15.625 C3.125,16.315625 3.684375,16.875 4.375,16.875 C5.065625,16.875 5.625,16.315625 5.625,15.625 C5.625,14.934375 5.065625,14.375 4.375,14.375 C3.684375,14.375 3.125,14.934375 3.125,15.625" id="Shape" sketch:type="MSShapeGroup"></path>
            </g>
        </g>
    </g>
</svg>