<?xml version="1.0" encoding="UTF-8" standalone="no"?>
<svg width="20px" height="20px" viewBox="0 0 20 20" version="1.1" xmlns="http://www.w3.org/2000/svg" xmlns:xlink="http://www.w3.org/1999/xlink" xmlns:sketch="http://www.bohemiancoding.com/sketch/ns">
    <title>meta-wiki</title>
    <description>Created with Sketch (http://www.bohemiancoding.com/sketch)</description>
    <defs></defs>
    <g id="Page-1" stroke="none" stroke-width="1" fill="none" fill-rule="evenodd" sketch:type="MSPage">
        <g id="meta-wiki" sketch:type="MSArtboardGroup" fill="#666666">
            <g id="Group" sketch:type="MSLayerGroup">
                <path d="M20,10.625 L20,8.125 C20,7.435 19.44,6.875 18.75,6.875 L16.875,6.875 L16.875,4.725625 C16.875,4.6175 16.824375,4.158125 16.50875,3.8425 L13.0975,0.36625 C12.858125,0.126875 12.53875,0 12.213125,0 L4.375,0 C3.685,0 3.125,0.56 3.125,1.25 L3.125,6.875 L1.25,6.875 C0.56,6.875 0,7.435 0,8.125 L0,10.625 C0,11.315 0.56,11.875 1.25,11.875 L1.263125,11.875 L0.073125,15.204375 C0.025,15.339375 0,15.481875 0,15.625 C0,18.20125 1.79875,20 4.375,20 L15.625,20 C18.20125,20 20,18.20125 20,15.625 C20,15.481875 19.975,15.339375 19.926875,15.204375 L18.7375,11.875 L18.75,11.875 C19.44,11.875 20,11.315 20,10.625 L20,10.625 Z M12.5,1.25 L15.625,4.375 L12.5,4.375 L12.5,1.25 L12.5,1.25 Z M11.875,1.25 L11.875,5 L15.625,5 L15.625,7.5 L4.375,7.5 L4.375,1.25 L11.875,1.25 L11.875,1.25 Z M3.75,8.125 L4.375,8.125 L15.625,8.125 L16.25,8.125 L16.25,10.625 L3.75,10.625 L3.75,8.125 L3.75,8.125 Z M1.25,8.125 L3.125,8.125 L3.125,10.625 L1.25,10.625 L1.25,8.125 L1.25,8.125 Z M18.75,15.625 C18.75,17.5 17.5,18.75 15.625,18.75 L4.375,18.75 C2.5,18.75 1.25,17.5 1.25,15.625 L2.81375,11.25 L8.125,11.25 C8.125,11.875 8.75,11.875 10,11.875 C11.25,11.875 11.875,11.875 11.875,11.25 L17.186875,11.25 L18.75,15.625 L18.75,15.625 Z M16.875,8.125 L18.75,8.125 L18.75,10.625 L16.875,10.625 L16.875,8.125 L16.875,8.125 Z" id="Shape" sketch:type="MSShapeGroup"></path>
                <rect id="Rectangle" sketch:type="MSShapeGroup" x="6.25" y="2.5" width="4.375" height="0.625"></rect>
                <rect id="Rectangle" sketch:type="MSShapeGroup" x="6.25" y="4.375" width="4.375" height="0.625"></rect>
                <path d="M15.625625,13.125 C14.93375,13.125 14.375,13.404375 14.375,13.75 C14.375,14.095625 14.93375,14.375 15.625625,14.375 C16.315625,14.375 16.875,14.095625 16.875,13.75 C16.875,13.404375 16.315625,13.125 15.625625,13.125" id="Shape" sketch:type="MSShapeGroup"></path>
                <path d="M13.125,13.75 C13.125,13.40375 12.565625,13.125 11.87625,13.125 C11.185,13.125 10.625,13.40375 10.625,13.75 C10.625,14.095 11.185,14.375 11.87625,14.375 C12.565625,14.375 13.125,14.095 13.125,13.75" id="Shape" sketch:type="MSShapeGroup"></path>
                <path d="M10.000625,15 C9.30875,15 8.75,15.279375 8.75,15.625 C8.75,15.970625 9.30875,16.25 10.000625,16.25 C10.690625,16.25 11.25,15.970625 11.25,15.625 C11.25,15.279375 10.690625,15 10.000625,15" id="Shape" sketch:type="MSShapeGroup"></path>
                <path d="M13.750625,15 C13.05875,15 12.5,15.279375 12.5,15.625 C12.5,15.970625 13.05875,16.25 13.750625,16.25 C14.440625,16.25 15,15.970625 15,15.625 C15,15.279375 14.440625,15 13.750625,15" id="Shape" sketch:type="MSShapeGroup"></path>
                <path d="M5.625,13.75 C5.625,13.40375 5.065625,13.125 4.375625,13.125 C3.684375,13.125 3.125,13.40375 3.125,13.75 C3.125,14.095 3.684375,14.375 4.375625,14.375 C5.065,14.375 5.625,14.095 5.625,13.75" id="Shape" sketch:type="MSShapeGroup"></path>
                <path d="M9.375,13.75 C9.375,13.40375 8.815625,13.125 8.125625,13.125 C7.434375,13.125 6.875,13.40375 6.875,13.75 C6.875,14.095 7.434375,14.375 8.125625,14.375 C8.815,14.375 9.375,14.095 9.375,13.75" id="Shape" sketch:type="MSShapeGroup"></path>
                <path d="M6.250625,15 C5.55875,15 5,15.279375 5,15.625 C5,15.970625 5.55875,16.25 6.250625,16.25 C6.940625,16.25 7.5,15.970625 7.5,15.625 C7.5,15.279375 6.940625,15 6.250625,15" id="Shape" sketch:type="MSShapeGroup"></path>
            </g>
        </g>
    </g>
</svg>