<?xml version="1.0" encoding="UTF-8" standalone="no"?>
<svg width="20px" height="20px" viewBox="0 0 20 20" version="1.1" xmlns="http://www.w3.org/2000/svg" xmlns:xlink="http://www.w3.org/1999/xlink" xmlns:sketch="http://www.bohemiancoding.com/sketch/ns">
    <title>meta-ancestry</title>
    <description>Created with Sketch (http://www.bohemiancoding.com/sketch)</description>
    <defs></defs>
    <g id="Page-1" stroke="none" stroke-width="1" fill="none" fill-rule="evenodd" sketch:type="MSPage">
        <g id="meta-ancestry" sketch:type="MSArtboardGroup" fill="#666666">
            <path d="M18.75,13.75 L17.5,13.75 L17.5,10 L10.625,10 L10.625,8.125 L14.375,8.125 C15.065625,8.125 15.625,7.565 15.625,6.875 L15.625,1.25 C15.625,0.56 15.065625,0 14.375,0 L5.625,0 C4.935,0 4.375,0.56 4.375,1.25 L4.375,6.875 C4.375,7.565 4.935,8.125 5.625,8.125 L9.375,8.125 L9.375,10 L2.5,10 L2.5,13.75 L1.25,13.75 C0.56,13.75 0,14.31 0,15 L0,18.75 C0,19.44 0.56,20 1.25,20 L5,20 C5.690625,20 6.25,19.44 6.25,18.75 L6.25,15 C6.25,14.31 5.690625,13.75 5,13.75 L3.75,13.75 L3.75,11.25 L9.375,11.25 L9.375,13.75 L8.125,13.75 C7.435,13.75 6.875,14.31 6.875,15 L6.875,18.75 C6.875,19.44 7.435,20 8.125,20 L11.875,20 C12.565625,20 13.125,19.44 13.125,18.75 L13.125,15 C13.125,14.31 12.565625,13.75 11.875,13.75 L10.625,13.75 L10.625,11.25 L16.25,11.25 L16.25,13.75 L15,13.75 C14.31,13.75 13.75,14.31 13.75,15 L13.75,18.75 C13.75,19.44 14.31,20 15,20 L18.75,20 C19.440625,20 20,19.44 20,18.75 L20,15 C20,14.31 19.440625,13.75 18.75,13.75 L18.75,13.75 Z M5.625,1.25 L14.375,1.25 L14.375,6.875 L5.625,6.875 L5.625,1.25 L5.625,1.25 Z M5,18.75 L1.25,18.75 L1.25,15 L5,15 L5,18.75 L5,18.75 Z M11.875,18.75 L8.125,18.75 L8.125,15 L11.875,15 L11.875,18.75 L11.875,18.75 Z M18.75,18.75 L15,18.75 L15,15 L18.75,15 L18.75,18.75 L18.75,18.75 Z" id="Shape" sketch:type="MSShapeGroup"></path>
        </g>
    </g>
</svg>