<?xml version="1.0" encoding="UTF-8" standalone="no"?>
<svg width="20px" height="20px" viewBox="0 0 20 20" version="1.1" xmlns="http://www.w3.org/2000/svg" xmlns:xlink="http://www.w3.org/1999/xlink" xmlns:sketch="http://www.bohemiancoding.com/sketch/ns">
    <title>meta-forum</title>
    <description>Created with Sketch (http://www.bohemiancoding.com/sketch)</description>
    <defs></defs>
    <g id="Page-1" stroke="none" stroke-width="1" fill="none" fill-rule="evenodd" sketch:type="MSPage">
        <g id="meta-forum" sketch:type="MSArtboardGroup" fill="#666666">
            <path d="M9.375,1.25 C11.445625,1.25 13.125,2.929375 13.125,5 L13.125,6.25 C13.125,8.320625 11.445625,10 9.375,10 L8.126875,10 L5,13.125 L5,10 C2.929375,10 1.25,8.320625 1.25,6.25 L1.25,5 C1.25,2.929375 2.929375,1.25 5,1.25 L9.375,1.25 M15,6.875 C17.070625,6.875 18.75,8.554375 18.75,10.625 L18.75,11.875 C18.75,13.945625 17.070625,15.625 15,15.625 L15,18.75 L11.873125,15.625 L10.625,15.625 C8.9025,15.625 7.454375,14.461875 7.015,12.878125 L8.644375,11.25 L9.375,11.25 C11.92,11.25 14.0225,9.336875 14.331875,6.875 L15,6.875 M9.375,0 L5,0 C2.243125,0 0,2.243125 0,5 L0,6.25 C0,8.575625 1.595625,10.535 3.75,11.091875 L3.75,13.125 C3.75,13.630625 4.054375,14.08625 4.52125,14.28 C4.67625,14.34375 4.83875,14.375 5,14.375 C5.325,14.375 5.644375,14.248125 5.88375,14.009375 L6.0375,13.855625 C6.818125,15.6625 8.61875,16.875 10.625,16.875 L11.355625,16.875 L14.11625,19.634375 C14.355625,19.873125 14.675,20 15,20 C15.16125,20 15.32375,19.96875 15.47875,19.905 C15.945625,19.71125 16.25,19.255625 16.25,18.75 L16.25,16.716875 C18.404375,16.16 20,14.200625 20,11.875 L20,10.625 C20,7.868125 17.756875,5.625 15,5.625 L14.375,5.625 L14.375,5 C14.375,2.243125 12.131875,0 9.375,0" id="Shape" sketch:type="MSShapeGroup"></path>
        </g>
    </g>
</svg>