<?xml version="1.0" encoding="UTF-8" standalone="no"?>
<svg width="20px" height="20px" viewBox="0 0 20 20" version="1.1" xmlns="http://www.w3.org/2000/svg" xmlns:xlink="http://www.w3.org/1999/xlink" xmlns:sketch="http://www.bohemiancoding.com/sketch/ns">
    <title>meta-produces</title>
    <description>Created with Sketch (http://www.bohemiancoding.com/sketch)</description>
    <defs></defs>
    <g id="Page-1" stroke="none" stroke-width="1" fill="none" fill-rule="evenodd" sketch:type="MSPage">
        <g id="meta-produces" sketch:type="MSArtboardGroup" fill="#666666">
            <g id="Group" sketch:type="MSLayerGroup">
                <path d="M8.125,1.25 L8.128125,1.25 M8.125,1.25 L5.745,3.63 L8.125,6.009375 L6.009375,8.125 L3.63,5.71875 L1.25,8.125 L1.25,1.25 L8.125,1.25 M8.128125,0 L8.125,0 L1.25,0 C0.56,0 0,0.56 0,1.25 L0,8.125 C0,8.631875 0.305625,9.08875 0.774375,9.28125 C0.928125,9.344375 1.09,9.375 1.25,9.375 C1.5775,9.375 1.899375,9.24625 2.13875,9.00375 L3.63,7.49625 L5.120625,9.00375 C5.355,9.240625 5.673125,9.37375 6.005625,9.375 L6.009375,9.375 C6.34125,9.375 6.65875,9.243125 6.893125,9.00875 L9.00875,6.893125 C9.243125,6.65875 9.375,6.34125 9.375,6.009375 C9.375,5.678125 9.243125,5.36 9.00875,5.125625 L7.513125,3.63 L8.98375,2.159375 C9.225625,1.93125 9.376875,1.608125 9.376875,1.25 C9.376875,0.56 8.818125,0 8.128125,0" id="Shape" sketch:type="MSShapeGroup"></path>
                <path d="M18.75,8.125 L18.75,8.128125 M16.37,5.745 L13.990625,8.125 L11.875,6.009375 L14.28125,3.63 L11.875,1.25 L18.75,1.25 L18.75,8.125 L16.37,5.745 Z M20,1.25 C20,0.56 19.44,1.38966796e-15 18.75,1.26291701e-15 L11.875,0 C11.368125,-9.31114269e-17 10.91125,0.305625 10.71875,0.774375 C10.655625,0.928125 10.625,1.09 10.625,1.25 C10.625,1.5775 10.75375,1.899375 10.99625,2.13875 L12.50375,3.63 L10.99625,5.120625 C10.759375,5.355 10.62625,5.673125 10.625,6.005625 C10.625,6.34125 10.756875,6.65875 10.99125,6.893125 L13.106875,9.00875 C13.34125,9.243125 13.65875,9.375 13.990625,9.375 C14.321875,9.375 14.64,9.243125 14.874375,9.00875 L16.37,7.513125 L17.840625,8.98375 C18.06875,9.225625 18.391875,9.376875 18.75,9.376875 C19.44,9.376875 20,8.818125 20,8.128125 L20,1.25 Z" id="Shape" sketch:type="MSShapeGroup"></path>
                <path d="M6.009375,11.875 L8.125,13.990625 L5.71875,16.370625 L8.125,18.75 L1.25,18.75 L1.25,11.875 L3.63,14.255 L6.009375,11.875 M1.25,10.625 C1.08875,10.625 0.92625,10.65625 0.77125,10.72 C0.304375,10.91375 0,11.369375 0,11.875 L0,18.75 C0,19.44 0.56,20 1.25,20 L8.125,20 C8.631875,20 9.08875,19.694375 9.28125,19.225625 C9.47375,18.75625 9.364375,18.218125 9.00375,17.86125 L7.49625,16.37 L9.00375,14.87875 C9.240625,14.645 9.374375,14.32625 9.375,13.99375 C9.375625,13.660625 9.244375,13.34125 9.00875,13.10625 L6.893125,10.990625 C6.65875,10.756875 6.34125,10.625 6.009375,10.625 C5.678125,10.625 5.36,10.756875 5.125625,10.99125 L3.63,12.486875 L2.13375,10.99125 C1.894375,10.751875 1.575625,10.625 1.25,10.625" id="Shape" sketch:type="MSShapeGroup"></path>
                <path d="M18.75,11.875 L18.75,18.75 L11.875,18.75 L14.255,16.37 L11.875,13.990625 L13.990625,11.875 L16.370625,14.28125 L18.75,11.875 M18.75,10.625 C18.423125,10.625 18.100625,10.75375 17.86125,10.99625 L16.37,12.50375 L14.87875,10.99625 C14.645,10.759375 14.32625,10.62625 13.99375,10.625 L13.99,10.625 C13.658125,10.625 13.340625,10.756875 13.10625,10.99125 L10.990625,13.106875 C10.756875,13.34125 10.625,13.65875 10.625,13.990625 C10.625,14.321875 10.756875,14.64 10.99125,14.874375 L12.486875,16.370625 L10.99125,17.866875 C10.63375,18.224375 10.526875,18.761875 10.72,19.229375 C10.91375,19.695625 11.369375,20 11.875,20 L18.75,20 C19.44,20 20,19.44 20,18.75 L20,11.875 C20,11.368125 19.694375,10.91125 19.225625,10.71875 C19.071875,10.655625 18.91,10.625 18.75,10.625" id="Shape" sketch:type="MSShapeGroup"></path>
            </g>
        </g>
    </g>
</svg>