<?xml version="1.0" encoding="UTF-8" standalone="no"?>
<svg width="20px" height="20px" viewBox="0 0 20 20" version="1.1" xmlns="http://www.w3.org/2000/svg" xmlns:xlink="http://www.w3.org/1999/xlink" xmlns:sketch="http://www.bohemiancoding.com/sketch/ns">
    <title>meta-consumes</title>
    <description>Created with Sketch (http://www.bohemiancoding.com/sketch)</description>
    <defs></defs>
    <g id="Page-1" stroke="none" stroke-width="1" fill="none" fill-rule="evenodd" sketch:type="MSPage">
        <g id="meta-consumes" sketch:type="MSArtboardGroup" fill="#666666">
            <g id="Group" sketch:type="MSLayerGroup">
                <path d="M16.634375,1.25 L18.75,3.365625 L16.34375,5.745 L18.75,8.125 L11.875,8.125 L11.875,1.25 L14.255,3.63 L16.634375,1.25 M11.875,0 C11.71375,0 11.55125,0.03125 11.39625,0.095 C10.929375,0.28875 10.625,0.744375 10.625,1.25 L10.625,8.125 C10.625,8.815 11.185,9.375 11.875,9.375 L18.75,9.375 C19.256875,9.375 19.71375,9.069375 19.90625,8.600625 C20.099375,8.13125 19.99,7.5925 19.629375,7.23625 L18.121875,5.745 L19.629375,4.254375 C19.865625,4.020625 19.999375,3.701875 20,3.369375 C20.000625,3.035625 19.869375,2.716875 19.63375,2.481875 L17.518125,0.36625 C17.28375,0.131875 16.96625,0 16.634375,0 C16.303125,0 15.985,0.131875 15.750625,0.36625 L14.254375,1.861875 L12.758125,0.36625 C12.519375,0.126875 12.200625,0 11.875,0" id="Shape" sketch:type="MSShapeGroup"></path>
                <path d="M8.125,1.25 L8.125,8.125 L1.25,8.125 L3.63,5.745 L1.25,3.365625 L3.365625,1.25 L5.745,3.65625 L8.125,1.25 M8.125,0 C7.798125,0 7.475625,0.12875 7.23625,0.37125 L5.745,1.87875 L4.254375,0.37125 C4.020625,0.134375 3.701875,0.00125 3.369375,0 L3.365625,0 C3.03375,0 2.71625,0.131875 2.481875,0.36625 L0.36625,2.481875 C0.131875,2.71625 0,3.03375 0,3.365625 C0,3.696875 0.131875,4.015 0.36625,4.249375 L1.861875,5.745 L0.36625,7.24125 C0.00875,7.59875 -0.098125,8.13625 0.095,8.60375 C0.28875,9.070625 0.744375,9.375 1.25,9.375 L8.125,9.375 C8.815,9.375 9.375,8.815 9.375,8.125 L9.375,1.25 C9.375,0.743125 9.069375,0.28625 8.600625,0.09375 C8.446875,0.030625 8.285,0 8.125,0" id="Shape" sketch:type="MSShapeGroup"></path>
                <path d="M8.12502569,11.875 L8.12502569,18.75 L5.74502569,16.37 L3.36565069,18.75 L1.25002569,16.634375 L3.65627569,14.254375 L1.25002569,11.875 L8.12502569,11.875 M8.12502569,10.625 L1.25002569,10.625 C0.743150691,10.625 0.286275691,10.930625 0.0937756907,11.399375 C-0.0987243093,11.86875 0.0106506907,12.406875 0.371275691,12.76375 L1.87877569,14.255 L0.371275691,15.74625 C0.134400691,15.979375 0.000650690677,16.298125 2.56906769e-05,16.630625 C-0.000599309323,16.96375 0.130650691,17.283125 0.366275691,17.518125 L2.48190069,19.63375 C2.71627569,19.868125 3.03377569,20 3.36565069,20 C3.69690069,20 4.01502569,19.868125 4.24940069,19.63375 L5.74502569,18.138125 L7.24127569,19.63375 C7.48065069,19.873125 7.79940069,20 8.12502569,20 C8.28627569,20 8.44877569,19.96875 8.60377569,19.905 C9.07065069,19.71125 9.37502569,19.255625 9.37502569,18.75 L9.37502569,11.875 C9.37502569,11.185 8.81502569,10.625 8.12502569,10.625" id="Shape" sketch:type="MSShapeGroup"></path>
                <path d="M18.75,11.875 L16.37,14.255 L18.75,16.634375 L16.634375,18.75 L14.254375,16.34375 L11.875,18.75 L11.875,11.875 L18.75,11.875 M18.75,10.625 L11.875,10.625 C11.185,10.625 10.625,11.185 10.625,11.875 L10.625,18.75 C10.625,19.256875 10.930625,19.71375 11.399375,19.90625 C11.553125,19.969375 11.715,20 11.875,20 C12.201875,20 12.524375,19.87125 12.76375,19.62875 L14.255,18.12125 L15.74625,19.62875 C15.98,19.865625 16.29875,19.99875 16.63125,20 L16.635,20 C16.966875,20 17.284375,19.868125 17.51875,19.63375 L19.634375,17.518125 C19.868125,17.28375 20,16.96625 20,16.634375 C20,16.303125 19.868125,15.985 19.63375,15.750625 L18.138125,14.254375 L19.63375,12.758125 C19.99125,12.400625 20.098125,11.863125 19.905,11.395625 C19.71125,10.929375 19.255625,10.625 18.75,10.625" id="Shape" sketch:type="MSShapeGroup"></path>
            </g>
        </g>
    </g>
</svg>