<?xml version="1.0" encoding="UTF-8" standalone="no"?>
<svg width="20px" height="20px" viewBox="0 0 20 20" version="1.1" xmlns="http://www.w3.org/2000/svg" xmlns:xlink="http://www.w3.org/1999/xlink" xmlns:sketch="http://www.bohemiancoding.com/sketch/ns">
    <title>meta-mailing-list</title>
    <description>Created with Sketch (http://www.bohemiancoding.com/sketch)</description>
    <defs></defs>
    <g id="Page-1" stroke="none" stroke-width="1" fill="none" fill-rule="evenodd" sketch:type="MSPage">
        <g id="meta-mailing-list" sketch:type="MSArtboardGroup" fill="#666666">
            <path d="M16.994375,5.37875 C17.30125,5.15125 17.5,4.78625 17.5,4.375 L17.5,1.25 C17.5,0.56 16.940625,0 16.25,0 L11.875,0 C11.185,0 10.625,0.56 10.625,1.25 L10.625,5 L5,5 C1.86875,5 0,7.33625 0,11.25 L0,18.75 C0,19.44 0.56,20 1.25,20 L18.75,20 C19.440625,20 20,19.44 20,18.75 L20,11.25 C20,8.258125 18.9075,6.188125 16.994375,5.37875 L16.994375,5.37875 Z M11.875,1.25 L16.25,1.25 L16.25,4.375 L13.75,4.375 L13.75,9.6875 C13.75,10.205625 13.33,10.625 12.8125,10.625 C12.295,10.625 11.875,10.205625 11.875,9.6875 L11.875,1.25 L11.875,1.25 Z M8.75,18.75 L1.25,18.75 L1.25,11.25 C1.25,8.125 2.5,6.25 5,6.25 C7.5,6.25 8.75,8.125 8.75,11.25 L8.75,18.75 L8.75,18.75 Z M18.75,18.75 L9.375,18.75 L9.375,17.5 L18.75,17.5 L18.75,18.75 L18.75,18.75 Z M18.75,16.875 L9.375,16.875 L9.375,11.25 C9.375,8.75 8.75,6.875 7.5,6.25 L11.25,6.25 L11.25,9.6875 C11.25,10.54875 11.950625,11.25 12.8125,11.25 C13.674375,11.25 14.375,10.54875 14.375,9.6875 L14.375,6.25 L15,6.25 C17.5,6.25 18.75,8.125 18.75,11.25 L18.75,16.875 L18.75,16.875 Z" id="Shape" sketch:type="MSShapeGroup"></path>
        </g>
    </g>
</svg>