<?xml version="1.0" encoding="UTF-8" standalone="no"?>
<svg width="20px" height="20px" viewBox="0 0 20 20" version="1.1" xmlns="http://www.w3.org/2000/svg" xmlns:xlink="http://www.w3.org/1999/xlink" xmlns:sketch="http://www.bohemiancoding.com/sketch/ns">
    <title>meta-components</title>
    <description>Created with Sketch (http://www.bohemiancoding.com/sketch)</description>
    <defs></defs>
    <g id="Page-1" stroke="none" stroke-width="1" fill="none" fill-rule="evenodd" sketch:type="MSPage">
        <g id="meta-components" sketch:type="MSArtboardGroup" fill="#666666">
            <path d="M18.75,5.625 L14.375,5.625 L14.375,1.25 L18.75,1.25 L18.75,5.625 L18.75,5.625 Z M10.625,8.75 L6.25,8.75 L6.25,4.375 L10.625,4.375 L10.625,8.75 L10.625,8.75 Z M5.625,8.75 L1.25,8.75 L1.25,4.375 L5.625,4.375 L5.625,8.75 L5.625,8.75 Z M15.625,13.75 L11.25,13.75 L11.25,9.375 L15.625,9.375 L15.625,13.75 L15.625,13.75 Z M10.625,13.75 L6.25,13.75 L6.25,9.375 L10.625,9.375 L10.625,13.75 L10.625,13.75 Z M5.625,13.75 L1.25,13.75 L1.25,9.375 L5.625,9.375 L5.625,13.75 L5.625,13.75 Z M15.625,18.75 L11.25,18.75 L11.25,14.375 L15.625,14.375 L15.625,18.75 L15.625,18.75 Z M10.625,18.75 L6.25,18.75 L6.25,14.375 L10.625,14.375 L10.625,18.75 L10.625,18.75 Z M5.625,18.75 L1.25,18.75 L1.25,14.375 L5.625,14.375 L5.625,18.75 L5.625,18.75 Z M18.75,0 L14.375,0 C13.685,0 13.125,0.56 13.125,1.25 L13.125,5.625 C13.125,6.315 13.685,6.875 14.375,6.875 L18.75,6.875 C19.44,6.875 20,6.315 20,5.625 L20,1.25 C20,0.56 19.44,0 18.75,0 L18.75,0 Z M10.625,3.125 L1.25,3.125 C0.56,3.125 0,3.685 0,4.375 L0,18.75 C0,19.44 0.56,20 1.25,20 L15.625,20 C16.315,20 16.875,19.44 16.875,18.75 L16.875,9.375 C16.875,8.685 16.315,8.125 15.625,8.125 L11.875,8.125 L11.875,4.375 C11.875,3.685 11.315,3.125 10.625,3.125 L10.625,3.125 Z" id="Shape" sketch:type="MSShapeGroup"></path>
        </g>
    </g>
</svg>