<?xml version="1.0" encoding="UTF-8" standalone="no"?>
<svg width="20px" height="20px" viewBox="0 0 20 20" version="1.1" xmlns="http://www.w3.org/2000/svg" xmlns:xlink="http://www.w3.org/1999/xlink" xmlns:sketch="http://www.bohemiancoding.com/sketch/ns">
    <title>meta-issues</title>
    <description>Created with Sketch (http://www.bohemiancoding.com/sketch)</description>
    <defs></defs>
    <g id="Page-1" stroke="none" stroke-width="1" fill="none" fill-rule="evenodd" sketch:type="MSPage">
        <g id="meta-issues" sketch:type="MSArtboardGroup" fill="#666666">
            <path d="M16.5175,13.225 C16.63125,12.723125 16.71625,12.20125 16.77625,11.665 C17.92,12.14375 18.58625,12.734375 18.783125,13.3225 C18.869375,13.584375 19.11375,13.75 19.375,13.75 C19.440625,13.75 19.506875,13.739375 19.5725,13.7175 C19.899375,13.60875 20.076875,13.255 19.968125,12.926875 C19.605625,11.83875 18.514375,10.971875 16.8625,10.36375 C16.86625,10.2425 16.875,10.123125 16.875,10 C16.875,9.87625 16.86625,9.7575 16.8625,9.635625 C18.514375,9.0275 19.605625,8.160625 19.968125,7.0725 C20.076875,6.745 19.9,6.390625 19.5725,6.281875 C19.241875,6.173125 18.89125,6.35 18.7825,6.676875 C18.58625,7.265625 17.919375,7.85625 16.775625,8.335 C16.715625,7.7975 16.630625,7.27625 16.516875,6.775 C18.645,5.283125 20,3.081875 20,0.625 C20,0.279375 19.720625,0 19.375,0 C19.029375,0 18.75,0.279375 18.75,0.625 C18.75,2.53 17.7575,4.256875 16.1575,5.503125 C15.04375,2.216875 12.735625,0 10,0 C7.265625,0 4.9575,2.216875 3.8425,5.503125 C2.24375,4.2575 1.25,2.53 1.25,0.625 C1.25,0.279375 0.970625,0 0.625,0 C0.279375,0 0,0.279375 0,0.625 C0,3.081875 1.355,5.283125 3.48375,6.775 C3.369375,7.27625 3.28375,7.7975 3.22375,8.335 C2.08,7.85625 1.415,7.265625 1.218125,6.676875 C1.109375,6.35 0.756875,6.173125 0.4275,6.281875 C0.1,6.390625 -0.076875,6.745 0.033125,7.0725 C0.395625,8.160625 1.486875,9.0275 3.1375,9.635625 C3.135,9.7575 3.125,9.87625 3.125,10 C3.125,10.123125 3.135,10.2425 3.1375,10.364375 C1.486875,10.9725 0.395625,11.83875 0.033125,12.9275 C-0.076875,13.255 0.1,13.609375 0.4275,13.718125 C0.756875,13.828125 1.109375,13.650625 1.218125,13.323125 C1.415,12.735 2.08,12.14375 3.22375,11.665625 C3.28375,12.201875 3.369375,12.72375 3.48375,13.225625 C1.355,14.716875 0,16.9175 0,19.375 C0,19.720625 0.279375,20 0.625,20 C0.970625,20 1.25,19.720625 1.25,19.375 C1.25,17.469375 2.24375,15.7425 3.8425,14.49625 C4.9575,17.783125 7.265625,20 10,20 C12.735625,20 15.04375,17.783125 16.1575,14.49625 C17.7575,15.7425 18.75,17.469375 18.75,19.375 C18.75,19.720625 19.029375,20 19.375,20 C19.720625,20 20,19.720625 20,19.375 C20,16.9175 18.645,14.716875 16.5175,13.225 M5.814375,4.170625 C6.0475,3.765625 6.30375,3.395625 6.580625,3.064375 C6.62625,3.01 6.6725,2.95625 6.71875,2.904375 C6.791875,2.821875 6.865,2.74 6.941875,2.663125 C7.0175,2.58625 7.095,2.515625 7.173125,2.445 C7.265625,2.360625 7.358125,2.280625 7.455,2.205 C7.545,2.13375 7.635625,2.06375 7.728125,2 C7.788125,1.958125 7.849375,1.92 7.90875,1.88125 C8.0125,1.816875 8.1175,1.7575 8.22375,1.7025 C8.27125,1.678125 8.316875,1.65125 8.364375,1.62875 C8.516875,1.556875 8.670625,1.495 8.828125,1.443125 C8.870625,1.429375 8.915,1.418125 8.95875,1.40625 C9.084375,1.36875 9.21125,1.33875 9.339375,1.315 C9.388125,1.30625 9.4375,1.296875 9.4875,1.29 C9.655625,1.26625 9.826875,1.25 10,1.25 C10.173125,1.25 10.344375,1.26625 10.51375,1.29 C10.5625,1.296875 10.61125,1.30625 10.66,1.315 C10.788125,1.33875 10.915,1.36875 11.040625,1.405625 C11.084375,1.418125 11.12875,1.429375 11.1725,1.443125 C11.32875,1.495 11.48375,1.556875 11.63375,1.628125 C11.68375,1.65125 11.73125,1.679375 11.77875,1.704375 C11.88375,1.75875 11.98625,1.816875 12.0875,1.88 C12.15,1.919375 12.211875,1.95875 12.273125,2.00125 C12.36375,2.063125 12.45125,2.13125 12.539375,2.200625 C12.641875,2.28125 12.740625,2.366875 12.839375,2.456875 C12.9125,2.52375 12.984375,2.589375 13.055625,2.66125 C13.13375,2.739375 13.208125,2.823125 13.28375,2.9075 C13.3275,2.9575 13.371875,3.00875 13.415625,3.06125 C13.695,3.394375 13.9525,3.766875 14.186875,4.17375 C14.195625,4.18875 14.20375,4.2025 14.2125,4.2175 C14.294375,4.3625 14.36875,4.51875 14.444375,4.671875 C13.466875,6.616875 11.809375,7.8125 10,7.8125 C8.196875,7.8125 6.533125,6.614375 5.555625,4.670625 C5.63125,4.51875 5.704375,4.363125 5.78625,4.21875 C5.795625,4.2025 5.805625,4.186875 5.814375,4.170625 M8.95875,18.59375 C8.915,18.58125 8.870625,18.570625 8.828125,18.55625 C8.670625,18.504375 8.516875,18.441875 8.364375,18.370625 C8.316875,18.348125 8.27125,18.32125 8.22375,18.296875 C8.1175,18.241875 8.0125,18.1825 7.90875,18.118125 C7.849375,18.079375 7.788125,18.04125 7.728125,17.999375 C7.635625,17.935625 7.545,17.86625 7.455,17.795 C7.358125,17.719375 7.265625,17.639375 7.173125,17.555 C7.095,17.484375 7.0175,17.413125 6.941875,17.33625 C6.865,17.259375 6.791875,17.1775 6.71875,17.095 C6.6725,17.043125 6.62625,16.989375 6.580625,16.935 C6.30375,16.60375 6.0475,16.23375 5.814375,15.828125 C5.805625,15.8125 5.795625,15.79625 5.78625,15.780625 C5.25875,14.8525 4.855,13.753125 4.618125,12.538125 C4.604375,12.471875 4.59625,12.401875 4.58375,12.335 C4.451875,11.590625 4.375,10.81 4.375,10 C4.375,9.19 4.451875,8.409375 4.58375,7.664375 C4.59625,7.5975 4.604375,7.528125 4.618125,7.46125 C4.760625,6.725 4.971875,6.039375 5.228125,5.4 C6.215625,7.084375 7.71875,8.1625 9.375,8.38375 L9.375,18.690625 C9.36375,18.688125 9.351875,18.68625 9.339375,18.684375 C9.21125,18.660625 9.084375,18.63125 8.95875,18.59375 M15.41625,12.335 C15.405,12.401875 15.395625,12.471875 15.383125,12.538125 C15.14625,13.75375 14.74125,14.853125 14.21375,15.781875 C14.205,15.79625 14.196875,15.810625 14.188125,15.825 C13.95375,16.231875 13.69625,16.604375 13.416875,16.9375 C13.373125,16.99 13.32875,17.04125 13.285,17.09125 C13.209375,17.175625 13.135,17.259375 13.056875,17.3375 C12.98625,17.409375 12.91375,17.475625 12.840625,17.541875 C12.741875,17.6325 12.643125,17.7175 12.540625,17.798125 C12.4525,17.8675 12.365,17.935625 12.274375,17.9975 C12.213125,18.039375 12.15125,18.079375 12.08875,18.118125 C11.9875,18.181875 11.885,18.239375 11.78,18.29375 C11.7325,18.31875 11.685,18.346875 11.635,18.37 C11.485,18.440625 11.33,18.503125 11.17375,18.555 C11.13,18.56875 11.085625,18.58 11.041875,18.593125 C10.91625,18.63 10.789375,18.659375 10.66125,18.68375 C10.65,18.685625 10.638125,18.6875 10.625625,18.69 L10.625625,8.39125 C12.286875,8.171875 13.785,7.0875 14.7725,5.400625 C15.02875,6.039375 15.24,6.725625 15.384375,7.46125 C15.396875,7.528125 15.40625,7.5975 15.4175,7.664375 C15.549375,8.409375 15.625,9.19 15.625,10 C15.625,10.81 15.549375,11.590625 15.41625,12.335" id="Shape" sketch:type="MSShapeGroup"></path>
        </g>
    </g>
</svg>