<?xml version="1.0" encoding="UTF-8" standalone="no"?>
<svg width="20px" height="20px" viewBox="0 0 20 20" version="1.1" xmlns="http://www.w3.org/2000/svg" xmlns:xlink="http://www.w3.org/1999/xlink" xmlns:sketch="http://www.bohemiancoding.com/sketch/ns">
    <title>meta-lead</title>
    <description>Created with Sketch (http://www.bohemiancoding.com/sketch)</description>
    <defs></defs>
    <g id="Page-1" stroke="none" stroke-width="1" fill="none" fill-rule="evenodd" sketch:type="MSPage">
        <g id="meta-lead" sketch:type="MSArtboardGroup" fill="#666666">
            <path d="M10,1.25 C10.863125,1.25 11.5625,1.949375 11.5625,2.8125 C11.5625,3.675625 10.863125,4.375 10,4.375 C9.138125,4.375 8.4375,3.675625 8.4375,2.8125 C8.4375,1.949375 9.138125,1.25 10,1.25 L10,1.25 Z M17.1875,3.125 C18.050625,3.125 18.75,3.824375 18.75,4.6875 C18.75,5.550625 18.050625,6.25 17.1875,6.25 C16.325625,6.25 15.625,5.55 15.625,4.6875 C15.625,3.825 16.325625,3.125 17.1875,3.125 L17.1875,3.125 Z M2.8125,3.125 C3.675625,3.125 4.375,3.824375 4.375,4.6875 C4.375,5.550625 3.675625,6.25 2.8125,6.25 C1.950625,6.25 1.25,5.55 1.25,4.6875 C1.25,3.825 1.950625,3.125 2.8125,3.125 L2.8125,3.125 Z M10.625,5 L13.125,9.375 L15.625,6.25 L17.5,6.875 L15.625,15 L4.375,15 L2.5,6.875 C2.520625,6.875 4.375,6.25 4.375,6.25 L6.875,9.375 L9.375,5 L10.625,5 L10.625,5 Z M16.25,18.750625 L3.75,18.750625 L3.75,15.625625 L16.25,15.625625 L16.25,18.750625 L16.25,18.750625 Z M10,0 C8.44875,0 7.1875,1.261875 7.1875,2.8125 C7.1875,3.6 7.5125,4.313125 8.035625,4.824375 L6.703125,7.1575 L5.4675,5.614375 C5.57,5.325 5.625,5.0125 5.625,4.6875 C5.625,3.136875 4.36375,1.875 2.8125,1.875 C1.2625,1.875 0,3.136875 0,4.6875 C0,5.665 0.501875,6.5275 1.26,7.031875 C1.265625,7.073125 3.005625,14.621875 3.005625,14.621875 C2.69875,14.849375 2.5,15.214375 2.5,15.625625 L2.5,18.750625 C2.5,19.440625 3.06,20.000625 3.75,20.000625 L16.25,20.000625 C16.940625,20.000625 17.5,19.440625 17.5,18.750625 L17.5,15.625625 C17.5,15.214375 17.3025,14.849375 16.995625,14.621875 C16.995625,14.621875 18.735,7.073125 18.74,7.031875 C19.499375,6.526875 20,5.664375 20,4.6875 C20,3.136875 18.73875,1.875 17.1875,1.875 C15.6375,1.875 14.375,3.136875 14.375,4.6875 C14.375,5.0125 14.43125,5.325 14.5325,5.615 L13.298125,7.158125 L11.96375,4.82375 C12.486875,4.3125 12.8125,3.599375 12.8125,2.8125 C12.8125,1.2625 11.55,0 10,0 L10,0 Z" id="Shape" sketch:type="MSShapeGroup"></path>
        </g>
    </g>
</svg>