<?xml version="1.0" encoding="UTF-8" standalone="no"?>
<svg width="28px" height="25px" viewBox="0 0 28 25" version="1.1" xmlns="http://www.w3.org/2000/svg" xmlns:xlink="http://www.w3.org/1999/xlink" xmlns:sketch="http://www.bohemiancoding.com/sketch/ns">
    <title>navtoggle-close</title>
    <description>Created with Sketch (http://www.bohemiancoding.com/sketch)</description>
    <defs></defs>
    <g id="Page-1" stroke="none" stroke-width="1" fill="none" fill-rule="evenodd" sketch:type="MSPage">
        <g id="navtoggle-close" sketch:type="MSArtboardGroup" fill="#FFFFFF">
            <path d="M20.2265897,12.5 L25.3805204,17.6539307 L19.6539307,23.3805204 L14.5,18.2265897 L9.34606927,23.3805204 L3.61947957,17.6539307 L8.7734103,12.5 L3.61947957,7.34606927 L9.34606927,1.61947957 L14.5,6.7734103 L19.6539307,1.61947957 L25.3805204,7.34606927 M20.7992487,0.474161627 C20.1670332,-0.158053876 19.1408283,-0.158053876 18.5086128,0.474161627 L14.5,4.48277442 L10.4913872,0.474161627 C9.85917171,-0.158053876 8.83296683,-0.158053876 8.20075133,0.474161627 L2.47416163,6.20075133 C1.84194612,6.83296683 1.84194612,7.85917171 2.47416163,8.49138721 L6.48277442,12.5 L2.47416163,16.5086128 C1.84194612,17.1408283 1.84194612,18.1670332 2.47416163,18.7992487 L8.20075133,24.5258384 C8.83296683,25.1580539 9.85917171,25.1580539 10.4913872,24.5258384 L14.5,20.5172256 L18.5086128,24.5258384 C19.1408283,25.1580539 20.1670332,25.1580539 20.7992487,24.5258384 L26.5258384,18.7992487 C27.1580539,18.1670332 27.1580539,17.1408283 26.5258384,16.5086128 L22.5172256,12.5 L26.5258384,8.49138721 C27.1580539,7.85917171 27.1580539,6.83296683 26.5258384,6.20075133" id="Shape" sketch:type="MSShapeGroup"></path>
        </g>
    </g>
</svg>