<?xml version="1.0" encoding="UTF-8" standalone="no"?>
<svg width="20px" height="20px" viewBox="0 0 20 20" version="1.1" xmlns="http://www.w3.org/2000/svg" xmlns:xlink="http://www.w3.org/1999/xlink" xmlns:sketch="http://www.bohemiancoding.com/sketch/ns">
    <title>pagination-next</title>
    <description>Created with Sketch (http://www.bohemiancoding.com/sketch)</description>
    <defs></defs>
    <g id="Page-1" stroke="none" stroke-width="1" fill="none" fill-rule="evenodd" sketch:type="MSPage">
        <g id="pagination-next" sketch:type="MSArtboardGroup" fill="#666666">
            <path d="M10,1.25 C14.831875,1.25 18.75,5.1675 18.75,10 C18.75,14.8325 14.831875,18.75 10,18.75 C5.1675,18.75 1.25,14.8325 1.25,10 C1.25,5.1675 5.1675,1.25 10,1.25 M10.625,9.356875 L5,5.3025 L5,14.6975 L10.625,10.6425 L10.625,14.6975 L16.25625,10 L10.625,5.3025 L10.625,9.356875 M10,0 C4.48625,0 0,4.48625 0,10 C0,15.51375 4.48625,20 10,20 C15.51375,20 20,15.51375 20,10 C20,4.48625 15.51375,0 10,0" id="Shape" sketch:type="MSShapeGroup"></path>
        </g>
    </g>
</svg>