<?xml version="1.0" encoding="UTF-8" standalone="no"?>
<svg width="16px" height="16px" viewBox="0 0 16 16" version="1.1" xmlns="http://www.w3.org/2000/svg" xmlns:xlink="http://www.w3.org/1999/xlink" xmlns:sketch="http://www.bohemiancoding.com/sketch/ns">
    <title>search</title>
    <description>Created with Sketch (http://www.bohemiancoding.com/sketch)</description>
    <defs></defs>
    <g id="Page-1" stroke="none" stroke-width="1" fill="none" fill-rule="evenodd" sketch:type="MSPage">
        <g id="search" sketch:type="MSArtboardGroup" fill="#666666">
            <g id="Shape-+-Shape" sketch:type="MSLayerGroup">
                <path d="M15.403,12.524 L12.739,9.86 C13.239,8.9025 13.5,7.842 13.5,6.75 C13.5,3.028 10.4715,0 6.75,0 C3.0285,0 0,3.028 0,6.75 C0,10.472 3.0285,13.5 6.75,13.5 C7.8425,13.5 8.9025,13.239 9.86,12.739 L12.525,15.4035 C12.907,15.7875 13.4195,16 13.9645,16 C14.509,16 15.02,15.7875 15.4045,15.4025 C15.788,15.019 16,14.5075 16,13.964 C16,13.42 15.7875,12.908 15.403,12.524 M14.6965,14.6965 C14.494,14.899 14.229,15 13.9645,15 C13.699,15 13.4335,14.899 13.232,14.6965 L10.0175,11.4825 L10.0325,11.467 C9.1015,12.116 7.971,12.5 6.75,12.5 C3.5745,12.5 1,9.9255 1,6.75 C1,3.5745 3.5745,1 6.75,1 C9.926,1 12.5,3.5745 12.5,6.75 C12.5,7.9715 12.116,9.102 11.467,10.0335 L11.4825,10.018 L14.6965,13.232 C15.101,13.6355 15.101,14.2915 14.6965,14.6965" id="Shape" sketch:type="MSShapeGroup"></path>
                <path d="M6.75,2 C4.1265,2 2,4.127 2,6.75 C2,9.373 4.1265,11.5 6.75,11.5 C9.3735,11.5 11.5,9.373 11.5,6.75 C11.5,4.127 9.3735,2 6.75,2 M6.75,11 C4.4065,11 2.5,9.0935 2.5,6.75 C2.5,4.4065 4.4065,2.5 6.75,2.5 C9.0935,2.5 11,4.4065 11,6.75 C11,9.0935 9.0935,11 6.75,11" id="Shape" sketch:type="MSShapeGroup"></path>
            </g>
        </g>
    </g>
</svg>