<?xml version="1.0" encoding="UTF-8" standalone="no"?>
<svg width="24px" height="24px" viewBox="0 0 24 24" version="1.1" xmlns="http://www.w3.org/2000/svg" xmlns:xlink="http://www.w3.org/1999/xlink" xmlns:sketch="http://www.bohemiancoding.com/sketch/ns">
    <title>sextant-menu</title>
    <description>Created with Sketch (http://www.bohemiancoding.com/sketch)</description>
    <defs></defs>
    <g id="Page-1" stroke="none" stroke-width="1" fill="none" fill-rule="evenodd" sketch:type="MSPage">
        <g id="sextant-menu" sketch:type="MSArtboardGroup" fill="#666666">
            <path d="M0,24 L3.42857143,24 L3.42857143,20.5714286 L0,20.5714286 L0,24 L0,24 Z M5.14285714,24 L24,24 L24,20.5714286 L5.14285714,20.5714286 L5.14285714,24 L5.14285714,24 Z M0,18.8571429 L3.42857143,18.8571429 L3.42857143,15.4285714 L0,15.4285714 L0,18.8571429 L0,18.8571429 Z M5.14285714,18.8571429 L24,18.8571429 L24,15.4285714 L5.14285714,15.4285714 L5.14285714,18.8571429 L5.14285714,18.8571429 Z M0,13.7142857 L3.42857143,13.7142857 L3.42857143,10.2848571 L0,10.2848571 L0,13.7142857 L0,13.7142857 Z M5.14285714,13.7142857 L24,13.7142857 L24,10.2848571 L5.14285714,10.2848571 L5.14285714,13.7142857 L5.14285714,13.7142857 Z M0,8.57142857 L3.42857143,8.57142857 L3.42857143,5.14285714 L0,5.14285714 L0,8.57142857 L0,8.57142857 Z M5.14285714,8.57142857 L24,8.57142857 L24,5.14285714 L5.14285714,5.14285714 L5.14285714,8.57142857 L5.14285714,8.57142857 Z M0,3.42857143 L3.42857143,3.42857143 L3.42857143,0 L0,0 L0,3.42857143 L0,3.42857143 Z M5.14285714,3.42857143 L24,3.42857143 L24,0 L5.14285714,0 L5.14285714,3.42857143 L5.14285714,3.42857143 Z" id="Shape" sketch:type="MSShapeGroup"></path>
        </g>
    </g>
</svg>