<?xml version="1.0" encoding="UTF-8" standalone="no"?>
<svg width="10px" height="10px" viewBox="0 0 10 10" version="1.1" xmlns="http://www.w3.org/2000/svg" xmlns:xlink="http://www.w3.org/1999/xlink" xmlns:sketch="http://www.bohemiancoding.com/sketch/ns">
    <title>sextant-backToTop</title>
    <description>Created with Sketch (http://www.bohemiancoding.com/sketch)</description>
    <defs></defs>
    <g id="Page-1" stroke="none" stroke-width="1" fill="none" fill-rule="evenodd" sketch:type="MSPage">
        <g id="sextant-backToTop" sketch:type="MSArtboardGroup" fill="#305A87">
            <path d="M5.00611664,0.625 L9.38736664,6.25 L6.25611664,5.625 L6.25611664,9.375 L3.75611664,9.375 L3.75611664,5.625 L0.624866642,6.25 L5.00611664,0.625 M5.00611664,0 C4.81361664,0 4.63142914,0.08875 4.51299164,0.2409375 L0.131741642,5.8659375 C-0.0285708581,6.071875 -0.0438833581,6.3559375 0.0929916419,6.578125 C0.208304142,6.765 0.411116642,6.875 0.624866642,6.875 C0.665491642,6.875 0.706429142,6.8709375 0.747366642,6.8628125 L3.13111664,6.386875 L3.13111664,9.375 C3.13111664,9.72 3.41111664,10 3.75611664,10 L6.25611664,10 C6.60111664,10 6.88111664,9.72 6.88111664,9.375 L6.88111664,6.386875 L9.26486664,6.8625 C9.30580414,6.8709375 9.34674164,6.875 9.38736664,6.875 C9.60142914,6.875 9.80392914,6.765 9.91924164,6.5784375 C10.0561166,6.35625 10.0411166,6.0721875 9.88049164,5.86625 L5.49924164,0.24125 C5.38080414,0.08875 5.19861664,0 5.00611664,0" id="Shape" sketch:type="MSShapeGroup"></path>
        </g>
    </g>
</svg>