<?xml version="1.0" encoding="UTF-8" standalone="no"?>
<svg width="24px" height="24px" viewBox="0 0 24 24" version="1.1" xmlns="http://www.w3.org/2000/svg" xmlns:xlink="http://www.w3.org/1999/xlink" xmlns:sketch="http://www.bohemiancoding.com/sketch/ns">
    <title>social-google</title>
    <description>Created with Sketch (http://www.bohemiancoding.com/sketch)</description>
    <defs></defs>
    <g id="Page-1" stroke="none" stroke-width="1" fill="none" fill-rule="evenodd" sketch:type="MSPage">
        <g id="social-google" sketch:type="MSArtboardGroup" fill="#305A87">
            <path d="M0.018,20.38275 C0.012,20.3235 0.0075,20.26425 0.0045,20.20425 C0.0075,20.26425 0.01275,20.3235 0.018,20.38275 L0.018,20.38275 Z M5.52825,13.24575 C7.6845,13.31025 9.13125,11.073 8.75925,8.24925 C8.38725,5.4255 6.336,3.159 4.17975,3.0945 C2.02275,3.03075 0.57675,5.1915 0.94875,8.016 C1.32075,10.83975 3.37125,13.18125 5.52825,13.24575 L5.52825,13.24575 Z M23.99925,6 L23.99925,4.0005 C23.99925,1.8 22.2,0 19.9995,0 L3.99975,0 C1.83675,0 0.06225,1.74 0.00225,3.88875 C1.37025,2.68425 3.26775,1.6785 5.226,1.6785 L13.599,1.6785 L11.7255,3.26325 L9.0705,3.26325 C10.8315,3.93825 11.76975,5.985 11.76975,8.085 C11.76975,9.84825 10.7895,11.3655 9.405,12.444 C8.05425,13.49625 7.79775,13.93725 7.79775,14.832 C7.79775,15.5955 9.24525,16.8945 10.00125,17.4285 C12.213,18.98775 12.92925,20.436 12.92925,22.85325 C12.92925,23.238 12.88125,23.62275 12.78675,24.00075 L19.9995,24.00075 C22.2,24.00075 23.99925,22.20225 23.99925,20.00025 L23.99925,7.50075 L19.49925,7.50075 L19.49925,12.00075 L17.99925,12.00075 L17.99925,7.50075 L13.49925,7.50075 L13.49925,6.00075 L17.99925,6.00075 L17.99925,1.50075 L19.49925,1.50075 L19.49925,6.00075 L23.99925,6.00075 L23.99925,6 Z M4.356,17.952 C4.86225,17.952 5.3265,17.9385 5.808,17.9385 C5.172,17.32125 4.668,16.56525 4.668,15.633 C4.668,15.0795 4.845,14.547 5.09325,14.07375 C4.8405,14.09175 4.5825,14.097 4.317,14.097 C2.574,14.097 1.09425,13.533 2.66453526e-15,12.60075 L2.66453526e-15,14.1765 L2.66453526e-15,18.9045 C1.2525,18.30975 2.73975,17.95275 4.35675,17.95275 L4.356,17.952 Z M0.0795,20.79525 C0.05325,20.667 0.03375,20.53725 0.02025,20.40525 C0.03375,20.53725 0.054,20.667 0.0795,20.79525 L0.0795,20.79525 Z M10.674,22.332 C10.32075,20.9535 9.06975,20.27025 7.32525,19.06125 C6.69075,18.8565 5.99175,18.73575 5.24175,18.72825 C3.141,18.70575 1.18425,19.54725 0.08025,20.79975 C0.45375,22.62075 2.073,24 3.99975,24 L10.713,24 C10.75575,23.739 10.776,23.46975 10.776,23.193 C10.776,22.899 10.74,22.61175 10.67325,22.332 L10.674,22.332 Z" id="Shape" sketch:type="MSShapeGroup"></path>
        </g>
    </g>
</svg>