<?xml version="1.0" encoding="UTF-8" standalone="no"?>
<svg width="24px" height="24px" viewBox="0 0 24 24" version="1.1" xmlns="http://www.w3.org/2000/svg" xmlns:xlink="http://www.w3.org/1999/xlink" xmlns:sketch="http://www.bohemiancoding.com/sketch/ns">
    <title>social-twitter</title>
    <description>Created with Sketch (http://www.bohemiancoding.com/sketch)</description>
    <defs></defs>
    <g id="Page-1" stroke="none" stroke-width="1" fill="none" fill-rule="evenodd" sketch:type="MSPage">
        <g id="social-twitter" sketch:type="MSArtboardGroup" fill="#305A87">
            <path d="M24.00075,4.36769231 C23.118,4.76923077 22.1685,5.04076923 21.1725,5.16307692 C22.18875,4.53769231 22.9695,3.54846154 23.33775,2.36923077 C22.386,2.94769231 21.33225,3.36846154 20.211,3.59461538 C19.3125,2.61307692 18.033,2 16.617,2 C13.8975,2 11.69325,4.26076923 11.69325,7.05 C11.69325,7.44615385 11.73675,7.83153846 11.82075,8.20076923 C7.72875,7.99 4.10025,5.97923077 1.67175,2.92384615 C1.248,3.67 1.005,4.53692308 1.005,5.46307692 C1.005,7.21538462 1.87425,8.76076923 3.19575,9.66692308 C2.38875,9.64076923 1.62975,9.41384615 0.96525,9.03538462 C0.9645,9.05615385 0.9645,9.07769231 0.9645,9.09923077 C0.9645,11.5461538 2.66175,13.5869231 4.914,14.0507692 C4.50075,14.1661538 4.06575,14.2276923 3.6165,14.2276923 C3.29925,14.2276923 2.991,14.1961538 2.69025,14.1369231 C3.3165,16.1430769 5.13525,17.6030769 7.29,17.6438462 C5.60475,18.9984615 3.4815,19.8053846 1.1745,19.8053846 C0.777,19.8053846 0.3855,19.7815385 0,19.7346154 C2.17875,21.1676923 4.767,22.0038462 7.548,22.0038462 C16.605,22.0038462 21.55725,14.3084615 21.55725,7.63461538 C21.55725,7.41538462 21.55275,7.19769231 21.543,6.98153846 C22.50525,6.26923077 23.34,5.38 24,4.36769231 L24.00075,4.36769231 Z" id="Shape" sketch:type="MSShapeGroup"></path>
        </g>
    </g>
</svg>