<?xml version="1.0" encoding="UTF-8" standalone="no"?>
<svg width="24px" height="24px" viewBox="0 0 24 24" version="1.1" xmlns="http://www.w3.org/2000/svg" xmlns:xlink="http://www.w3.org/1999/xlink" xmlns:sketch="http://www.bohemiancoding.com/sketch/ns">
    <title>social-github</title>
    <description>Created with Sketch (http://www.bohemiancoding.com/sketch)</description>
    <defs></defs>
    <g id="Page-1" stroke="none" stroke-width="1" fill="none" fill-rule="evenodd" sketch:type="MSPage">
        <g id="social-github" sketch:type="MSArtboardGroup" fill="#003246">
            <path d="M12,0 C5.37225,0 0,5.37225 0,12 C0,18.62775 5.37225,24 12,24 C18.62775,24 24,18.62775 24,12 C24,5.37225 18.62775,0 12,0 L12,0 Z M19.1265,19.1265 C18.20025,20.05275 17.1225,20.7795 15.9225,21.28725 C15.618,21.41625 15.30825,21.5295 14.994,21.627 L14.994,19.8285 C14.994,18.8835 14.67,18.1875 14.02125,17.74275 C14.42775,17.70375 14.8005,17.649 15.14025,17.5785 C15.48,17.508 15.83925,17.40675 16.21875,17.274 C16.59825,17.14125 16.93725,16.983 17.238,16.79925 C17.53875,16.6155 17.8275,16.377 18.105,16.0845 C18.3825,15.792 18.615,15.45975 18.8025,15.0885 C18.99,14.71725 19.1385,14.27175 19.248,13.75275 C19.3575,13.23375 19.41225,12.66075 19.41225,12.036 C19.41225,10.82475 19.01775,9.7935 18.22875,8.94225 C18.588,8.00475 18.549,6.9855 18.11175,5.88375 L17.8185,5.8485 C17.61525,5.82525 17.25,5.91075 16.72275,6.1065 C16.1955,6.30225 15.60375,6.6225 14.9475,7.06725 C14.0175,6.80925 13.053,6.68025 12.05325,6.68025 C11.04525,6.68025 10.0845,6.80925 9.17025,7.06725 C8.75625,6.786 8.364,6.5535 7.99275,6.36975 C7.6215,6.186 7.3245,6.0615 7.10175,5.99475 C6.879,5.928 6.672,5.8875 6.48075,5.87175 C6.2895,5.856 6.1665,5.85225 6.11175,5.85975 C6.057,5.86725 6.018,5.8755 5.99475,5.883 C5.5575,6.99225 5.5185,8.01225 5.87775,8.9415 C5.08875,9.79275 4.69425,10.824 4.69425,12.03525 C4.69425,12.66 4.749,13.23225 4.8585,13.752 C4.968,14.27175 5.1165,14.7165 5.304,15.08775 C5.4915,15.459 5.724,15.79125 6.0015,16.08375 C6.279,16.37625 6.56775,16.61475 6.8685,16.7985 C7.16925,16.98225 7.509,17.1405 7.88775,17.27325 C8.2665,17.406 8.62575,17.508 8.96625,17.57775 C9.30675,17.6475 9.67875,17.703 10.08525,17.742 C9.44475,18.17925 9.1245,18.8745 9.1245,19.82775 L9.1245,21.6615 C8.7705,21.5565 8.42175,21.432 8.079,21.2865 C6.879,20.77875 5.80125,20.052 4.875,19.12575 C3.94875,18.1995 3.222,17.12175 2.71425,15.92175 C2.18925,14.6805 1.923,13.36125 1.923,11.99925 C1.923,10.63725 2.18925,9.318 2.71425,8.07675 C3.222,6.87675 3.94875,5.799 4.875,4.87275 C5.80125,3.9465 6.879,3.21975 8.079,2.712 C9.32025,2.187 10.64025,1.92075 12.0015,1.92075 C13.36275,1.92075 14.68275,2.187 15.924,2.712 C17.124,3.21975 18.20175,3.9465 19.128,4.87275 C20.05425,5.799 20.781,6.87675 21.28875,8.07675 C21.81375,9.318 22.08,10.638 22.08,11.99925 C22.08,13.3605 21.81375,14.6805 21.28875,15.92175 C20.781,17.12175 20.05425,18.1995 19.128,19.12575 L19.1265,19.1265 Z" id="Shape" sketch:type="MSShapeGroup"></path>
        </g>
    </g>
</svg>