<?xml version="1.0" encoding="UTF-8" standalone="no"?>
<svg width="24px" height="24px" viewBox="0 0 24 24" version="1.1" xmlns="http://www.w3.org/2000/svg" xmlns:xlink="http://www.w3.org/1999/xlink" xmlns:sketch="http://www.bohemiancoding.com/sketch/ns">
    <title>social-linkedin</title>
    <description>Created with Sketch (http://www.bohemiancoding.com/sketch)</description>
    <defs></defs>
    <g id="Page-1" stroke="none" stroke-width="1" fill="none" fill-rule="evenodd" sketch:type="MSPage">
        <g id="social-linkedin" sketch:type="MSArtboardGroup" fill="#305A87">
            <path d="M19.96875,0 L4.03125,0 C1.81425,0 0,1.81425 0,4.03125 L0,19.96875 C0,22.18575 1.81425,24 4.03125,24 L19.96875,24 C22.18575,24 24,22.18575 24,19.96875 L24,4.03125 C24,1.81425 22.18575,0 19.96875,0 L19.96875,0 Z M9,19.5 L6,19.5 L6,9 L9,9 L9,19.5 L9,19.5 Z M7.5,7.5 C6.67125,7.5 6,6.82875 6,6 C6,5.17125 6.67125,4.5 7.5,4.5 C8.32875,4.5 9,5.17125 9,6 C9,6.82875 8.32875,7.5 7.5,7.5 L7.5,7.5 Z M19.5,19.5 L16.5,19.5 L16.5,13.5 C16.5,12.67125 15.82875,12 15,12 C14.17125,12 13.5,12.67125 13.5,13.5 L13.5,19.5 L10.5,19.5 L10.5,9 L13.5,9 L13.5,10.86225 C14.11875,10.0125 15.0645,9 16.125,9 C17.98875,9 19.5,10.67925 19.5,12.75 L19.5,19.5 L19.5,19.5 Z" id="Shape" sketch:type="MSShapeGroup"></path>
        </g>
    </g>
</svg>