<?xml version="1.0" encoding="UTF-8" standalone="no"?>
<svg width="20px" height="20px" viewBox="0 0 20 20" version="1.1" xmlns="http://www.w3.org/2000/svg" xmlns:xlink="http://www.w3.org/1999/xlink" xmlns:sketch="http://www.bohemiancoding.com/sketch/ns">
    <title>tag-favorite</title>
    <description>Created with Sketch (http://www.bohemiancoding.com/sketch)</description>
    <defs></defs>
    <g id="Page-1" stroke="none" stroke-width="1" fill="none" fill-rule="evenodd" sketch:type="MSPage">
        <g id="tag-favorite" sketch:type="MSArtboardGroup" fill="#FFFFFF">
            <path d="M10.0006753,1.25 L12.7038003,7.01 L18.7500503,7.934375 L14.3750503,12.419375 L15.4088003,18.75 L10.0006753,15.760625 L4.59255031,18.75 L5.62505031,12.419375 L1.25005031,7.934375 L7.29630031,7.01 L10.0006753,1.25 M10.0006753,0 C9.51630031,0 9.07567531,0.28 8.86880031,0.71875 L6.44817531,5.875 L1.06067531,6.699375 C0.598175308,6.77 0.213800308,7.09375 0.0650503079,7.538125 C-0.0843246921,7.981875 0.0281753079,8.4725 0.355050308,8.8075 L4.28942531,12.840625 L3.35880031,18.54875 C3.28130031,19.02125 3.48067531,19.496875 3.87192531,19.771875 C4.08755031,19.923125 4.33942531,20 4.59255031,20 C4.80005031,20 5.00817531,19.948125 5.19692531,19.84375 L10.0006753,17.18875 L14.8044253,19.84375 C14.9938003,19.948125 15.2019253,20 15.4094253,20 C15.6619253,20 15.9144253,19.923125 16.1294253,19.771875 C16.5206753,19.49625 16.7200503,19.02125 16.6425503,18.54875 L15.7106753,12.840625 L19.6450503,8.8075 C19.9719253,8.4725 20.0844253,7.981875 19.9363003,7.538125 C19.7869253,7.09375 19.4025503,6.77 18.9394253,6.699375 L13.5525503,5.875 L11.1325503,0.71875 C10.9263003,0.28 10.4850503,0 10.0006753,0" id="Shape" sketch:type="MSShapeGroup"></path>
        </g>
    </g>
</svg>