<?xml version="1.0" encoding="UTF-8" standalone="no"?>
<svg width="100px" height="26px" viewBox="0 0 100 26" version="1.1" xmlns="http://www.w3.org/2000/svg" xmlns:xlink="http://www.w3.org/1999/xlink" xmlns:sketch="http://www.bohemiancoding.com/sketch/ns">
    <title>wordmark-med</title>
    <description>Created with Sketch (http://www.bohemiancoding.com/sketch)</description>
    <defs></defs>
    <g id="Page-1" stroke="none" stroke-width="1" fill="none" fill-rule="evenodd" sketch:type="MSPage">
        <g id="wordmark-med" sketch:type="MSArtboardGroup" fill="#666666">
            <path d="M25.7968513,12.6169983 C25.7968513,14.5266075 25.473418,16.2713732 24.8265418,17.8513475 C24.1796655,19.4313219 23.2818593,20.7839415 22.1330962,21.909247 C20.9843331,23.0345524 19.6181063,23.9040936 18.0343747,24.5178966 C16.4506431,25.1316996 14.7331007,25.4385965 12.8816962,25.4385965 C11.0302916,25.4385965 9.31832576,25.1316996 7.74574719,24.5178966 C6.17316862,23.9040936 4.81251822,23.0345524 3.66375515,21.909247 C2.51499208,20.7839415 1.61718587,19.4313219 0.970309583,17.8513475 C0.323433293,16.2713732 0,14.5266075 0,12.6169983 C0,10.6846555 0.323433293,8.93988989 0.970309583,7.38264898 C1.61718587,5.82540808 2.51499208,4.50120484 3.66375515,3.40999953 C4.81251822,2.31879422 6.17316862,1.47766942 7.74574719,0.886599878 C9.31832576,0.295530337 11.0302916,0 12.8816962,0 C14.7331007,0 16.4506431,0.295530337 18.0343747,0.886599878 C19.6181063,1.47766942 20.9843331,2.31879422 22.1330962,3.40999953 C23.2818593,4.50120484 24.1796655,5.82540808 24.8265418,7.38264898 C25.473418,8.93988989 25.7968513,10.6846555 25.7968513,12.6169983 Z M19.6738633,12.6169983 C19.6738633,11.5712598 19.5065702,10.5937364 19.171979,9.68439866 C18.8373878,8.77506091 18.3745436,7.99645214 17.7834325,7.34854899 C17.1923214,6.70064584 16.4785376,6.18915102 15.6420597,5.8140492 C14.8055817,5.43894737 13.8854697,5.25139928 12.8816962,5.25139928 C11.8779226,5.25139928 10.9633871,5.43894737 10.1380622,5.8140492 C9.31273728,6.18915102 8.59895346,6.70064584 7.99668932,7.34854899 C7.39442519,7.99645214 6.931581,8.77506091 6.60814285,9.68439866 C6.28470471,10.5937364 6.12298806,11.5712598 6.12298806,12.6169983 C6.12298806,13.7082036 6.29028114,14.7141434 6.62487233,15.6348478 C6.95946351,16.5555523 7.42230771,17.3455276 8.0134188,18.0047975 C8.60452989,18.6640674 9.31273728,19.1812455 10.1380622,19.5563473 C10.9633871,19.9314491 11.8779226,20.1189972 12.8816962,20.1189972 C13.8854697,20.1189972 14.8000053,19.9314491 15.6253302,19.5563473 C16.4506551,19.1812455 17.1644389,18.6640674 17.7667031,18.0047975 C18.3689672,17.3455276 18.8373878,16.5555523 19.171979,15.6348478 C19.5065702,14.7141434 19.6738633,13.7082036 19.6738633,12.6169983 Z M46.4938541,6.92229905 C46.0031204,6.28576262 45.3618302,5.77995108 44.5699644,5.40484925 C43.7780986,5.02974743 43.0141269,4.84219933 42.2780263,4.84219933 C41.8988229,4.84219933 41.5140488,4.87629899 41.1236925,4.94449932 C40.7333361,5.01269965 40.3820206,5.14341499 40.0697355,5.33664926 C39.7574504,5.52988354 39.4953579,5.77994767 39.2834501,6.08684916 C39.0715424,6.39375065 38.9655901,6.78589668 38.9655901,7.263299 C38.9655901,7.67250099 39.0492367,8.01349753 39.2165322,8.28629886 C39.3838278,8.55910018 39.629191,8.79779776 39.9526292,9.00239876 C40.2760673,9.20699975 40.6608414,9.39454785 41.106963,9.56504868 C41.5530846,9.73554951 42.0549638,9.91173106 42.6126158,10.0935986 C43.4156346,10.3663999 44.2521,10.6676135 45.1220371,10.9972485 C45.9919742,11.3268834 46.7838281,11.7644956 47.4976227,12.3100983 C48.2114172,12.855701 48.8025194,13.5320108 49.2709471,14.339048 C49.7393747,15.1460853 49.973585,16.1520251 49.973585,17.3568976 C49.973585,18.7436377 49.7226454,19.9428089 49.2207586,20.9544471 C48.7188719,21.9660854 48.0441231,22.8015269 47.1964921,23.4607968 C46.3488611,24.1200666 45.3785612,24.6088283 44.2855633,24.9270966 C43.1925655,25.2453648 42.0661254,25.4044965 40.9062093,25.4044965 C39.2109473,25.4044965 37.5714751,25.1032829 35.9877435,24.5008466 C34.4040119,23.8984104 33.0879729,23.0402357 32.0395872,21.926297 L35.7869898,18.0388975 C36.3669478,18.7663677 37.1309195,19.3744782 38.0789279,19.8632473 C39.0269363,20.3520163 39.969354,20.5963972 40.9062093,20.5963972 C41.3300248,20.5963972 41.742681,20.550931 42.1441905,20.4599972 C42.5456999,20.3690634 42.8970154,20.2212982 43.1981474,20.0166972 C43.4992795,19.8120962 43.7390662,19.539299 43.9175149,19.1982974 C44.0959635,18.8572957 44.1851865,18.4480998 44.1851865,17.9706975 C44.1851865,17.5160286 44.0736578,17.1295659 43.850597,16.8112977 C43.6275362,16.4930295 43.3096793,16.2031824 42.8970169,15.9417478 C42.4843544,15.6803132 41.9713223,15.4416156 41.3579051,15.2256479 C40.7444879,15.0096802 40.0474334,14.7766659 39.2667207,14.526598 C38.508314,14.2765301 37.766648,13.9809998 37.0417004,13.6399981 C36.3167529,13.2989965 35.6698863,12.8613842 35.1010813,12.3271483 C34.5322762,11.7929124 34.0750085,11.1450189 33.7292643,10.3834486 C33.38352,9.6218782 33.2106505,8.69550426 33.2106505,7.60429895 C33.2106505,6.26302576 33.4783194,5.11500407 34.0136653,4.16019943 C34.5490112,3.20539478 35.2516422,2.42110274 36.1215793,1.80729975 C36.9915163,1.19349677 37.9729691,0.744517985 39.065967,0.460349937 C40.1589648,0.176181888 41.2630992,0.0340999953 42.3784031,0.0340999953 C43.7167679,0.0340999953 45.0829947,0.284164127 46.4771246,0.784299892 C47.8712546,1.28443566 49.0924941,2.0232615 50.1408798,3.00079959 L46.4938541,6.92229905 Z M58.1569401,24.7906966 L58.1569401,0.647899911 L63.9118797,0.647899911 L63.9118797,19.7097973 L73.0796323,19.7097973 L73.0796323,24.7906966 L58.1569401,24.7906966 Z M100,21.448897 C98.9516143,22.676503 97.6578811,23.6483432 96.1187617,24.3644466 C94.5796422,25.0805501 92.8063355,25.4385965 90.7987884,25.4385965 C88.96969,25.4385965 87.2800298,25.1316996 85.7297573,24.5178966 C84.1794848,23.9040936 82.8355637,23.0345524 81.6979537,21.909247 C80.5603437,20.7839415 79.6681139,19.4370052 79.0212376,17.8683975 C78.3743613,16.2997899 78.050928,14.5720741 78.050928,12.6851983 C78.050928,10.7528555 78.3799378,9.0024066 79.0379671,7.43379897 C79.6959964,5.86519135 80.6049555,4.52962155 81.7648716,3.42704953 C82.9247877,2.3244775 84.2854381,1.47766942 85.8468637,0.886599878 C87.4082892,0.295530337 89.0923729,0 90.8991653,0 C92.5721212,0 94.2171699,0.301213613 95.8343606,0.903649875 C97.4515513,1.50608614 98.7620138,2.38699387 99.7657873,3.54639951 L95.884549,7.50199897 C95.3492031,6.75179532 94.6465722,6.1948343 93.7766351,5.8310992 C92.906698,5.46736409 92.0144682,5.28549927 91.099919,5.28549927 C90.0961454,5.28549927 89.1760335,5.47304737 88.3395555,5.84814919 C87.5030776,6.22325102 86.7837173,6.74042911 86.1814532,7.39969898 C85.579189,8.05896885 85.1107684,8.83757762 84.7761772,9.73554866 C84.441586,10.6335197 84.274293,11.6167264 84.274293,12.6851983 C84.274293,13.7764036 84.441586,14.7766601 84.7761772,15.6859978 C85.1107684,16.5953356 85.5736126,17.3739444 86.1647237,18.0218475 C86.7558348,18.6697507 87.4640422,19.1755622 88.2893671,19.5392973 C89.114692,19.9030324 90.0180747,20.0848972 90.9995421,20.0848972 C92.1371522,20.0848972 93.1297578,19.8575662 93.9773888,19.4028973 C94.8250198,18.9482284 95.505345,18.3571678 96.0183848,17.6296976 L100,21.448897 Z" id="OSLC" sketch:type="MSShapeGroup"></path>
        </g>
    </g>
</svg>