<svg width="250" height="209" viewBox="0 0 250 209" xmlns="http://www.w3.org/2000/svg" xmlns:sketch="http://www.bohemiancoding.com/sketch/ns"><title>logo-med</title><g sketch:type="MSLayerGroup" fill="none" fill-rule="evenodd"><path d="M125 209c57.438 0 104-46.786 104-104.5s-46.562-104.5-104-104.5-104 46.786-104 104.5 46.562 104.5 104 104.5zm.5-41c34.518 0 62.5-28.206 62.5-63s-27.982-63-62.5-63-62.5 28.206-62.5 63 27.982 63 62.5 63z" fill="#53C2D2" sketch:type="MSShapeGroup"/><path fill="#53C2D2" sketch:type="MSShapeGroup" d="M0 0h250v42h-250z"/><path d="M125 42h82.992c.003.003-29.78 30-29.78 30-10.973-17.997-30.701-30-53.213-30z" fill-opacity=".12" fill="#000" sketch:type="MSShapeGroup"/><path d="M39 42c14.995-20.963 37.251-36.231 63.019-42h22.981c-33.885 0-63.974 16.493-82.899 42h-3.101z" fill-opacity=".45" fill="#fff" sketch:type="MSShapeGroup"/></g></svg>