<svg width="250" height="208" viewBox="0 0 250 208" xmlns="http://www.w3.org/2000/svg" xmlns:sketch="http://www.bohemiancoding.com/sketch/ns"><title>logo-med</title><g sketch:type="MSLayerGroup" fill="none" fill-rule="evenodd"><path d="M125 208c57.438 0 104-46.562 104-104s-46.562-104-104-104-104 46.562-104 104 46.562 104 104 104zm0-41.5c34.518 0 62.5-27.982 62.5-62.5s-27.982-62.5-62.5-62.5-62.5 27.982-62.5 62.5 27.982 62.5 62.5 62.5z" fill="#54BCD2" sketch:type="MSShapeGroup"/><path fill="#54BCD2" sketch:type="MSShapeGroup" d="M0 0h250v41.5h-250z"/><path d="M125 41.5h83.132c.003.003-29.83 29.847-29.83 29.847-10.992-17.905-30.753-29.847-53.303-29.847z" fill-opacity=".12" fill="#000" sketch:type="MSShapeGroup"/><path d="M38.8 41.5c15.038-20.714 37.355-35.8 63.196-41.5h23.045c-33.98 0-64.154 16.296-83.132 41.5h-3.109z" fill-opacity=".45" fill="#fff" sketch:type="MSShapeGroup"/></g></svg>