<svg width="58" height="48" viewBox="0 0 58 48" xmlns="http://www.w3.org/2000/svg" xmlns:sketch="http://www.bohemiancoding.com/sketch/ns"><title>logo-small</title><g sketch:type="MSArtboardGroup" fill="none" fill-rule="evenodd"><path fill="#54BCD2" sketch:type="MSShapeGroup" d="M0 0h58v9.486h-58z"/><path d="M29 48c13.255 0 24-10.745 24-24s-10.745-24-24-24-24 10.745-24 24 10.745 24 24 24zm0-9.577c7.966 0 14.423-6.457 14.423-14.423s-6.457-14.423-14.423-14.423-14.423 6.457-14.423 14.423 6.457 14.423 14.423 14.423z" fill="#54BCD2" sketch:type="MSShapeGroup"/><path d="M28.5 9.5h19.998c.001.001-7.176 7-7.176 7-2.644-4.199-7.398-7-12.822-7z" fill-opacity=".12" fill="#000" sketch:type="MSShapeGroup"/><path d="M8 10h1.453c4.462-6.073 11.557-10 19.547-10h-7.696c-5.441 1.753-10.099 5.316-13.304 10z" fill-opacity=".45" fill="#fff" sketch:type="MSShapeGroup"/></g></svg>