<svg width="58" height="48" viewBox="0 0 58 48" xmlns="http://www.w3.org/2000/svg" xmlns:sketch="http://www.bohemiancoding.com/sketch/ns"><title>logo-small</title><g sketch:type="MSLayerGroup" fill="none" fill-rule="evenodd"><path d="M29 48c13.255 0 24-10.745 24-24s-10.745-24-24-24-24 10.745-24 24 10.745 24 24 24zm.5-9c8.008 0 14.5-6.492 14.5-14.5s-6.492-14.5-14.5-14.5-14.5 6.492-14.5 14.5 6.492 14.5 14.5 14.5z" fill="#53C2D2" sketch:type="MSShapeGroup"/><path fill="#53C2D2" sketch:type="MSShapeGroup" d="M0 0h58v10h-58z"/><path d="M29 10h18.998c.001.001-6.817 7-6.817 7-2.512-4.199-7.028-7-12.181-7z" fill-opacity=".12" fill="#000" sketch:type="MSShapeGroup"/><path d="M9 10c3.206-4.787 7.9-8.373 13.365-10h6.635c-7.715 0-14.566 3.927-18.875 10h-1.125z" fill-opacity=".45" fill="#fff" sketch:type="MSShapeGroup"/></g></svg>