<svg width="250" height="208" viewBox="0 0 250 208" xmlns="http://www.w3.org/2000/svg" xmlns:sketch="http://www.bohemiancoding.com/sketch/ns"><title>logo-med</title><g sketch:type="MSArtboardGroup" fill="none" fill-rule="evenodd"><path fill="#54BCD2" sketch:type="MSShapeGroup" d="M0 0h250v41.5h-250z"/><path d="M125 208c57.438 0 104-46.562 104-104s-46.562-104-104-104-104 46.562-104 104 46.562 104 104 104zm0-41.5c34.518 0 62.5-27.982 62.5-62.5s-27.982-62.5-62.5-62.5-62.5 27.982-62.5 62.5 27.982 62.5 62.5 62.5z" fill="#54BCD2" sketch:type="MSShapeGroup"/><path d="M125 41.5h83.192c.003.003-29.851 29.8-29.851 29.8-11-17.877-30.775-29.8-53.341-29.8z" fill-opacity=".12" fill="#000" sketch:type="MSShapeGroup"/><path d="M38.4 42c14.995-20.963 37.251-36.231 63.019-42h22.981c-33.885 0-63.974 16.493-82.899 42h-3.101z" fill-opacity=".45" fill="#fff" sketch:type="MSShapeGroup"/></g></svg>