<svg width="20" height="20" viewBox="0 0 20 20" xmlns="http://www.w3.org/2000/svg" xmlns:sketch="http://www.bohemiancoding.com/sketch/ns"><title>channel-podcast</title><path d="M10 1.25c4.767 0 8.75 3.912 8.75 8.739 0 3.558-2.497 6.617-5 7.981v-1.818c1.251-1.234 3.372-3.533 3.372-6.163 0-3.927-3.303-7.121-7.181-7.121s-7.093 3.194-7.093 7.121c0 2.63 2.151 4.93 3.402 6.163v1.818c-2.502-1.364-5-4.423-5-7.981 0-4.827 3.984-8.739 8.75-8.739m0 3.151c3.048 0 5.52 2.502 5.52 5.589 0 1.599-.677 3.026-1.742 4.043-.217-.488-.549-.931-.964-1.3.681-.714 1.107-1.676 1.107-2.743 0-2.189-1.759-3.97-3.921-3.97s-3.921 1.781-3.921 3.97c0 1.067.425 2.029 1.106 2.742-.415.368-.747.812-.965 1.299-1.064-1.016-1.739-2.443-1.739-4.041-.001-3.087 2.471-5.589 5.519-5.589m0 3.527c1.107 0 2.003.907 2.003 2.026 0 1.119-.896 2.026-2.003 2.026-1.103 0-2.001-.907-2.001-2.026 0-1.119.898-2.026 2.001-2.026m-.001 4.665c1.59 0 3.126 1.225 3.126 2.736v3.422h-6.25v-3.431c.008-1.574 1.537-2.726 3.124-2.726m.001-12.592c-5.514 0-10 4.481-10 9.989 0 4.144 2.839 7.546 5.652 9.079l.017.009c.144.531.63.922 1.207.922h6.249c.578 0 1.064-.391 1.207-.923l.017-.009c2.812-1.532 5.651-4.935 5.651-9.078 0-5.508-4.486-9.989-10-9.989" sketch:type="MSShapeGroup" fill="#fff" fill-rule="evenodd"/></svg>