<svg width="20" height="20" viewBox="0 0 20 20" xmlns="http://www.w3.org/2000/svg" xmlns:sketch="http://www.bohemiancoding.com/sketch/ns"><title>js-close</title><g sketch:type="MSArtboardGroup" fill="none" fill-rule="evenodd"><circle fill="#fff" sketch:type="MSShapeGroup" cx="10" cy="10" r="9"/><path d="M9.994 1.25c2.239 0 4.479.854 6.188 2.563 3.418 3.417 3.418 8.958 0 12.374-1.709 1.708-3.948 2.563-6.188 2.563-2.239 0-4.478-.854-6.186-2.563-3.417-3.418-3.417-8.958 0-12.374 1.708-1.709 3.948-2.563 6.186-2.563m-2.196 12.637l2.196-2.197 2.198 2.197 1.689-1.69-2.196-2.197 2.196-2.197-1.689-1.689-2.196 2.196-2.198-2.197-1.689 1.689 2.196 2.197-2.196 2.196 1.689 1.69m2.196-13.887c-2.671 0-5.182 1.041-7.071 2.929-3.898 3.899-3.898 10.243 0 14.142 1.889 1.889 4.4 2.929 7.071 2.929 2.671 0 5.183-1.04 7.071-2.929 3.899-3.899 3.899-10.244 0-14.142-1.889-1.889-4.401-2.929-7.071-2.929" fill="#DD3337" sketch:type="MSShapeGroup"/></g></svg>