<svg width="60" height="50" viewBox="0 0 60 50" xmlns="http://www.w3.org/2000/svg" xmlns:sketch="http://www.bohemiancoding.com/sketch/ns"><title>logo-small</title><g sketch:type="MSLayerGroup" fill="none" fill-rule="evenodd"><path d="M30 49.92c13.785 0 24.96-11.175 24.96-24.96s-11.175-24.96-24.96-24.96-24.96 11.175-24.96 24.96 11.175 24.96 24.96 24.96zm0-9.96c8.284 0 15-6.716 15-15 0-8.284-6.716-15-15-15-8.284 0-15 6.716-15 15 0 8.284 6.716 15 15 15z" fill="#54BCD2" sketch:type="MSShapeGroup"/><path fill="#54BCD2" sketch:type="MSShapeGroup" d="M0 0h60v9.96h-60z"/><path d="M30 9.96h19.952c.001.001-7.159 7.163-7.159 7.163-2.638-4.297-7.381-7.163-12.793-7.163z" fill-opacity=".12" fill="#000" sketch:type="MSShapeGroup"/><path d="M8.52 9.96h1.483c4.555-6.049 11.797-9.96 19.952-9.96h-7.856c-5.554 1.746-10.309 5.295-13.579 9.96z" fill-opacity=".45" fill="#fff" sketch:type="MSShapeGroup"/></g></svg>