<svg width="20" height="20" viewBox="0 0 20 20" xmlns="http://www.w3.org/2000/svg" xmlns:sketch="http://www.bohemiancoding.com/sketch/ns"><title>menu-filter</title><path d="M10 1.25c4.832 0 8.75 1.259 8.75 2.813 0 1.553-3.918 2.813-8.75 2.813s-8.75-1.259-8.75-2.813c0-1.553 3.918-2.813 8.75-2.813m8.692 4.338h.003m-.003 0l-2.384 2.849.519.524c.907.906.901 2.389-.006 3.296l-1.523 1.51c-.454.454-1.056.681-1.66.681-.604 0-1.207-.227-1.659-.681l-.144-.094-.584.581v3.247c0 .69-.56 1.25-1.25 1.25s-1.25-.56-1.25-1.25v-3.247l-7.356-8.666c1.471 1.407 4.995 2.136 8.595 2.136 3.601 0 7.232-.729 8.702-2.136m-5.017 7.567c.265 0 .53-.101.732-.303l1.511-1.509c.404-.405.404-1.062.001-1.466l-.442-.441-2.711 3.241.176.176c.201.202.467.304.732.304m-3.675-13.154c-4.978 0-10 1.256-10 4.063 0 .369.124 1.96.442 2.334l7.058 8.316v2.788c0 1.379 1.121 2.5 2.5 2.5s2.5-1.121 2.5-2.5v-1.984c.361.118.744.181 1.137.181.966 0 1.871-.373 2.544-1.047l1.519-1.506c.678-.678 1.051-1.576 1.054-2.533.002-.821-.269-1.6-.771-2.229l1.641-1.961c.198-.221.319-.513.319-.833 0-.213.056-1.192.056-1.525-.001-2.806-5.023-4.063-10.001-4.063" sketch:type="MSShapeGroup" fill="#666" fill-rule="evenodd"/></svg>