<svg width="32" height="32" viewBox="0 0 32 32" xmlns="http://www.w3.org/2000/svg" xmlns:sketch="http://www.bohemiancoding.com/sketch/ns"><title>next</title><path d="M12 2l18 14.021-18 14.019 2-10.019h-12v-8h12l-2-10.021m0-2c-.363 0-.728.099-1.051.298-.711.439-1.074 1.274-.91 2.094l1.523 7.628h-9.562c-1.104 0-2 .895-2 2v8c0 1.104.896 2 2 2h9.562l-1.523 7.627c-.164.819.199 1.654.91 2.094.323.199.688.298 1.051.298.436 0 .869-.142 1.229-.422l18-14.02c.487-.378.771-.96.771-1.576 0-.619-.284-1.201-.771-1.58l-18-14.019c-.36-.278-.793-.422-1.229-.422" sketch:type="MSShapeGroup" fill="#666" fill-rule="evenodd"/></svg>