<svg width="114" height="29" viewBox="0 0 114 29" xmlns="http://www.w3.org/2000/svg" xmlns:sketch="http://www.bohemiancoding.com/sketch/ns"><title>wordmark-med</title><path d="M29.408 14.383c0 2.177-.369 4.166-1.106 5.967-.737 1.801-1.761 3.343-3.071 4.626-1.31 1.283-2.867 2.274-4.673 2.974-1.805.7-3.763 1.05-5.874 1.05-2.111 0-4.062-.35-5.855-1.05-1.793-.7-3.344-1.691-4.653-2.974-1.31-1.283-2.333-2.825-3.071-4.626-.737-1.801-1.106-3.79-1.106-5.967 0-2.203.369-4.192 1.106-5.967.737-1.775 1.761-3.285 3.071-4.529 1.31-1.244 2.861-2.203 4.653-2.877 1.793-.674 3.744-1.011 5.855-1.011s4.069.337 5.874 1.011c1.805.674 3.363 1.633 4.673 2.877 1.31 1.244 2.333 2.754 3.071 4.529.737 1.775 1.106 3.764 1.106 5.967zm-6.98 0c0-1.192-.191-2.307-.572-3.343-.381-1.037-.909-1.924-1.583-2.663-.674-.739-1.488-1.322-2.441-1.749-.954-.428-2.003-.641-3.147-.641-1.144 0-2.187.214-3.128.641-.941.428-1.755 1.011-2.441 1.749-.687.739-1.214 1.626-1.583 2.663s-.553 2.151-.553 3.343c0 1.244.191 2.391.572 3.44.381 1.05.909 1.95 1.583 2.702.674.752 1.481 1.341 2.422 1.769.941.428 1.983.641 3.128.641 1.144 0 2.187-.214 3.128-.641.941-.428 1.755-1.017 2.441-1.769.687-.752 1.221-1.652 1.602-2.702s.572-2.196.572-3.44zm30.575-6.492c-.559-.726-1.291-1.302-2.193-1.73-.903-.428-1.774-.641-2.613-.641-.432 0-.871.039-1.316.117-.445.078-.846.227-1.202.447s-.655.505-.896.855c-.242.35-.362.797-.362 1.341 0 .466.095.855.286 1.166.191.311.47.583.839.816.369.233.807.447 1.316.641s1.081.395 1.716.603c.915.311 1.869.654 2.861 1.03.992.376 1.894.875 2.708 1.497.814.622 1.488 1.393 2.022 2.313.534.92.801 2.067.801 3.44 0 1.581-.286 2.948-.858 4.101-.572 1.153-1.341 2.106-2.308 2.857-.966.752-2.072 1.309-3.318 1.672s-2.53.544-3.852.544c-1.933 0-3.802-.343-5.607-1.03-1.805-.687-3.306-1.665-4.501-2.935l4.272-4.432c.661.829 1.532 1.523 2.613 2.08 1.081.557 2.155.836 3.223.836.483 0 .954-.052 1.411-.155.458-.104.858-.272 1.202-.505.343-.233.617-.544.82-.933.203-.389.305-.855.305-1.399 0-.518-.127-.959-.381-1.322-.254-.363-.617-.693-1.087-.991-.47-.298-1.055-.57-1.755-.816-.699-.246-1.494-.512-2.384-.797-.865-.285-1.71-.622-2.537-1.011-.826-.389-1.564-.888-2.212-1.497-.648-.609-1.17-1.348-1.564-2.216-.394-.868-.591-1.924-.591-3.168 0-1.529.305-2.838.915-3.926.61-1.088 1.411-1.983 2.403-2.682.992-.7 2.111-1.212 3.357-1.536 1.246-.324 2.505-.486 3.776-.486 1.526 0 3.083.285 4.673.855 1.589.57 2.982 1.412 4.177 2.527l-4.158 4.471zm13.296 20.37v-27.523h6.561v21.731h10.451v5.792h-17.012zm47.701-3.81c-1.195 1.399-2.67 2.507-4.425 3.324-1.755.816-3.776 1.225-6.065 1.225-2.085 0-4.011-.35-5.779-1.05-1.767-.7-3.299-1.691-4.596-2.974-1.297-1.283-2.314-2.818-3.051-4.607-.737-1.788-1.106-3.758-1.106-5.909 0-2.203.375-4.198 1.125-5.987.75-1.788 1.786-3.311 3.109-4.568 1.322-1.257 2.873-2.222 4.653-2.896 1.78-.674 3.7-1.011 5.76-1.011 1.907 0 3.783.343 5.626 1.03 1.844.687 3.338 1.691 4.482 3.013l-4.425 4.509c-.61-.855-1.411-1.49-2.403-1.905-.992-.415-2.009-.622-3.051-.622-1.144 0-2.193.214-3.147.641-.954.428-1.774 1.017-2.46 1.769-.687.752-1.221 1.639-1.602 2.663-.381 1.024-.572 2.145-.572 3.363 0 1.244.191 2.384.572 3.421.381 1.037.909 1.924 1.583 2.663.674.739 1.481 1.315 2.422 1.73.941.415 1.971.622 3.09.622 1.297 0 2.428-.259 3.395-.777.966-.518 1.742-1.192 2.327-2.021l4.539 4.354z" sketch:type="MSShapeGroup" fill="#666" fill-rule="evenodd"/></svg>